SplineFontDB: 3.2
FontName: Scriven
FullName: Scriven
FamilyName: Scriven
Weight: Regular
Copyright: Copyright (c) 2024, Kevin Smith
Version: 0.1.0
ItalicAngle: 0
UnderlinePosition: -100
UnderlineWidth: 50
Ascent: 650
Descent: 350
InvalidEm: 0
sfntRevision: 0x00010000
LayerCount: 2
Layer: 0 0 "Back" 1
Layer: 1 0 "Fore" 0
XUID: [1021 154 1557044757 1433364]
StyleMap: 0x0000
FSType: 0
OS2Version: 4
OS2_WeightWidthSlopeOnly: 0
OS2_UseTypoMetrics: 1
CreationTime: 1708861063
ModificationTime: 1709417363
PfmFamily: 17
TTFWeight: 400
TTFWidth: 5
LineGap: 90
VLineGap: 0
Panose: 2 0 5 3 0 0 0 0 0 0
OS2TypoAscent: 650
OS2TypoAOffset: 0
OS2TypoDescent: -350
OS2TypoDOffset: 0
OS2TypoLinegap: 90
OS2WinAscent: 668
OS2WinAOffset: 0
OS2WinDescent: 356
OS2WinDOffset: 0
HheadAscent: 668
HheadAOffset: 0
HheadDescent: -356
HheadDOffset: 0
OS2SubXSize: 650
OS2SubYSize: 700
OS2SubXOff: 0
OS2SubYOff: 140
OS2SupXSize: 650
OS2SupYSize: 700
OS2SupXOff: 0
OS2SupYOff: 480
OS2StrikeYSize: 49
OS2StrikeYPos: 258
OS2XHeight: 323
OS2Vendor: 'PfEd'
OS2CodePages: 00000001.00000000
OS2UnicodeRanges: a000004f.10002000.08008000.00000000
Lookup: 4 0 1 "'rlig' Required Ligatures lookup 2" { "'rlig' Required Ligatures lookup 2 per glyph data 0"  "'rlig' Required Ligatures lookup 2 per glyph data 1"  } ['rlig' ('DFLT' <'dflt' > 'latn' <'dflt' > 'runr' <'dflt' > ) ]
Lookup: 4 0 1 "'rlig' Required Ligatures lookup 3" { "'rlig' Required Ligatures lookup 3 subtable"  } ['rlig' ('DFLT' <'dflt' > 'latn' <'dflt' > 'runr' <'dflt' > ) ]
Lookup: 258 0 0 "'kern' Horizontal Kerning lookup 0" { "'kern' Horizontal Kerning lookup 0 subtable" [20,0,0] } ['kern' ('DFLT' <'dflt' > 'latn' <'dflt' > 'runr' <'dflt' > ) ]
Lookup: 258 0 0 "'kern' Horizontal Kerning lookup 1" { "'kern' Horizontal Kerning lookup 1 subtable"  } ['kern' ('DFLT' <'dflt' > 'latn' <'dflt' > 'runr' <'dflt' > ) ]
MarkAttachClasses: 1
DEI: 91125
KernClass2: 19 18 "'kern' Horizontal Kerning lookup 0 subtable"
 7 uni0061

StartChar: .notdef
Encoding: 65536 -1 0
Width: 500
GlyphClass: 1
Flags: HMW
HStem: 0 50<100 400 100 450> 383 50<100 400 100 100>
VStem: 50 50<50 50 50 383> 400 50<50 383 383 383>
LayerCount: 2
Fore
SplineSet
50 0 m 1
 50 433 l 1
 450 433 l 1
 450 0 l 1
 50 0 l 1
100 50 m 1
 400 50 l 1
 400 383 l 1
 100 383 l 1
 100 50 l 1
EndSplineSet
Validated: 1
EndChar

StartChar: novianDecorationRight
Encoding: 0 0 1
Width: 753
GlyphClass: 3
Flags: W
HStem: -21.7424 21G<529.868 584.509> 0.631607 21G
LayerCount: 2
Back
SplineSet
683 103.677132482 m 1029
684 437.677734375 m 5
 578.04296875 542.634765625 l 5
 307.086914062 271.6796875 l 5
 579.044921875 -0.2783203125 l 5
 683 103.677132482 l 1029
EndSplineSet
Refer: 87 9671 S 1 0 0 1 0 0 2
Fore
SplineSet
713.176914536 459.14183599 m 1
 717.176914536 452.21363276 l 1
 654.823085464 416.21363276 l 1
 562.1053551 508.056312839 l 1
 341.727932852 287.679684862 l 1
 595.044833255 34.3627844592 l 1
 649.823085464 89.1412340972 l 1
 712.176914536 125.141234097 l 1
 716.176914536 118.213030867 l 1
 612.221836411 14.2575780724 l 1
 549.868007339 -21.7424219276 l 1
 277.909999526 250.215585885 l 1
 273.909999526 257.143789115 l 1
 544.866054214 528.09886724 l 1
 607.219883286 564.09886724 l 1
 713.176914536 459.14183599 l 1
EndSplineSet
Refer: 87 9671 N 1 0 0 1 0 0 2
Validated: 524293
LCarets2: 2 0 0
Ligature2: "'rlig' Required Ligatures lookup 3 subtable" uni005D uni200D uni25C7
EndChar

StartChar: uni002C
Encoding: 44 44 3
Width: 213
GlyphClass: 2
Flags: HMW
HStem: -76.5442 145.798
VStem: 98.4963 66.3538
LayerCount: 2
Back
SplineSet
88 -55 m 1
 111 -42 128 -34.296875 128 -15 c 3
 128 -9.74609375 127 -5 124 0 c 1
 91 48 l 1025
EndSplineSet
Fore
SplineSet
94.8230854638 -29.5358983849 m 0
 94.8230854638 -25.7242748727 94.2967588188 -22.1799266099 92.8622641105 -18.6119978286 c 2
 61.8230854638 26.5358983849 l 1
 57.8230854638 33.4641016151 l 1
 120.176914536 69.4641016151 l 1
 153.209407543 21.4168390593 153.209407543 21.4168390593 157.44753553 14.0761860575 c 0
 160.237360147 9.24406807744 161.176914536 4.62854196291 161.176914536 -0.464101615138 c 0
 161.176914536 -15.6341608495 150.670621559 -23.639082778 135.002369261 -32.6851524599 c 0
 75.5693886864 -66.9987997936 75.5693886864 -66.9987997936 58.8230854638 -76.4641016151 c 1
 54.8230854638 -69.5358983849 l 1
 75.8715372348 -57.3835690888 l 2
 87.4609282539 -49.9127548005 94.8230854638 -42.2347680677 94.8230854638 -29.5358983849 c 0
EndSplineSet
Validated: 524289
EndChar

StartChar: uni002E
Encoding: 46 46 4
Width: 213
GlyphClass: 2
Flags: HMW
HStem: -20.6535 89.9077
VStem: 57.1141 100.374
LayerCount: 2
Back
SplineSet
91 48 m 29
 124 0 l 1053
EndSplineSet
Fore
SplineSet
61.8230854638 26.5358983849 m 1
 57.8230854638 33.4641016151 l 1
 120.176914536 69.4641016151 l 1
 153.176914536 21.4641016151 l 1
 157.176914536 14.5358983849 l 1
 94.8230854638 -21.4641016151 l 1
 61.8230854638 26.5358983849 l 1
EndSplineSet
Validated: 524289
EndChar

StartChar: uni005B
Encoding: 91 91 5
Width: 267
GlyphClass: 2
Flags: HMW
HStem: 570.089 43.7138
VStem: 70.4404 66.3538
LayerCount: 2
Back
SplineSet
162 593.02734375 m 4
 79 593.02734375 l 4
 78 -162.58984375 l 0
 162 -162.589752197 l 1024
EndSplineSet
Fore
SplineSet
191.176914536 614.491445365 m 1
 195.176914536 607.563242135 l 1
 132.823085464 571.563242135 l 1
 112.129271364 571.563242135 l 1
 111.186083475 -141.125737765 l 1
 137.849693829 -141.125737765 164.513304182 -141.125650582 191.176914536 -141.125650582 c 1
 195.176914536 -148.053853812 l 1
 132.823085464 -184.053853812 l 1
 48.8230854638 -184.053853812 l 1
 44.8230854638 -177.125742135 l 1
 45.8230854638 578.491445365 l 1
 108.176914536 614.491445365 l 1
 191.176914536 614.491445365 l 1
EndSplineSet
Validated: 524289
EndChar

StartChar: uni005D
Encoding: 93 93 6
Width: 267
GlyphClass: 2
Flags: HMW
HStem: -185.084 43.3959 570.848 42.17
VStem: 132.555 66.3584
LayerCount: 2
Back
SplineSet
78 -162.58984375 m 0
 161 -162.58984375 l 0
 162 593.02734375 l 0
 78 593.02734375 l 1024
EndSplineSet
Fore
SplineSet
48.8230854638 -184.053945365 m 1
 44.8230854638 -177.125742135 l 1
 107.176914536 -141.125742135 l 1
 127.870728636 -141.125742135 l 1
 128.813916531 571.563242135 l 1
 48.8230854638 571.563242135 l 1
 44.8230854638 578.491445365 l 1
 107.176914536 614.491445365 l 1
 191.176914536 614.491445365 l 1
 195.176914536 607.563242135 l 1
 194.176914536 -148.053945365 l 1
 131.823085464 -184.053945365 l 1
 48.8230854638 -184.053945365 l 1
EndSplineSet
Validated: 524289
EndChar

StartChar: uni0061
Encoding: 97 97 7
Width: 355
GlyphClass: 2
Flags: HMW
HStem: -20.9414 42.9277<113.816 189.836> 279.856 42.9277<121.692 203.444>
VStem: 78.8559 66.3545<60.1255 72.2627>
LayerCount: 2
Back
SplineSet
170.725585938 236 m 0
 57.7255859375 86 70.5517578125 0 116.725585938 0 c 3
 141.725585938 0 205.725585938 32 249.725585938 58 c 1025
65.7255859375 276 m 1
 96.7255859375 294 108.672851562 298 126.725585938 298 c 3
 209.731445312 298 282.717773438 0 339.725585938 0 c 3
 344.725585938 0 357.725585938 6 386.725585938 22 c 1025
EndSplineSet
Fore
SplineSet
368.902500474 21.4641016151 m 0
 373.902500474 21.4641016151 386.902500474 27.4641016151 415.902500474 43.4641016151 c 1
 419.902500474 36.5358983849 l 1
 341.315709704 -8.83620642105 319.443553635 -21.4641016151 310.548671401 -21.4641016151 c 0
 300.418510686 -21.4641016151 284.878025422 -15.0042771367 249.361900522 53.123696318 c 1
 213.422275916 32.3739443772 l 2
 169.900606093 7.24669658909 111.228996091 -21.4641016151 87.5486714013 -21.4641016151 c 0
 69.7265616072 -21.4641016151 63.6952547906 -11.0175717728 56.7242896819 1.0564939732 c 0
 52.323119094 8.67954504421 49.833464108 19.0355796199 49.833464108 31.9870623346 c 0
 49.833464108 71.871299511 73.4438326934 136.369182976 137.548671401 221.464101615 c 1
 156.232657767 232.251306173 l 1
 137.320767927 258.918715648 117.730887303 276.535898385 97.5486714013 276.535898385 c 0
 78.2122779036 276.535898385 66.0477100069 271.567176265 36.5486714013 254.535898385 c 1
 32.5475514529 261.466041423 l 1
 96.4498928787 298.360075447 l 2
 126.305917788 315.597459465 138.153251279 319.464101615 155.902500474 319.464101615 c 0
 200.224453833 319.464101615 242.631550907 234.052331476 286.109707972 142.665107664 c 0
 318.043684986 75.5427176636 343.771989383 21.4641016151 368.902500474 21.4641016151 c 0
116.187292519 61.058858644 m 0
 116.187292519 50.063158027 117.981803009 40.9382222048 121.217036223 33.7682148364 c 0
 127.164061283 25.6440522519 135.722864849 21.4641016151 145.902500474 21.4641016151 c 0
 165.048563678 21.4641016151 207.068703222 40.2325745093 245.461419445 60.7007578045 c 1
 237.107956715 77.1207847804 228.535568383 95.1391835347 219.755878899 113.593310895 c 0
 192.557790665 170.761282293 181.128944215 192.404874447 172.918175756 206.291933816 c 1
 132.009974927 142.85491462 116.187292519 93.7093680546 116.187292519 61.058858644 c 0
EndSplineSet
Validated: 524289
EndChar

StartChar: uni0062
Encoding: 98 98 8
Width: 371
GlyphClass: 2
Flags: HMW
HStem: -21.6877 42.9282 279.832 42.9282 648.654 20G
VStem: 53.4038 66.3538 63.1827 80.1184 301.615 66.3538
LayerCount: 2
Back
SplineSet
102 252 m 1
 284 357 310 272.004132161 310 151 c 3
 310 40.9954546394 248 0 155 0 c 3
 114 0 64 40.8452405258 64 70 c 7
 64 129.22837158 77 423 87 649 c 5
 56 630 l 5
 84 570 72 282 64 70 c 1029
EndSplineSet
Fore
SplineSet
276.823085464 136.464101615 m 0xe4
 276.823085464 181.666799551 273.194799716 221.844561239 259.161251963 248.96992659 c 0
 247.379183542 267.255155829 229.582521988 278.018692588 203.034425287 278.018692588 c 0
 178.147490961 278.018692588 145.570043813 268.560001979 103.047513652 246.972037135 c 1
 101.630182175 202.547490813 100.881252182 182.700846004 97.1769145362 84.5358983849 c 0
 97.1769145362 79.4964232832 98.6708137914 74.1076605602 101.353909301 68.6409297623 c 0
 117.19880566 44.7068462507 153.248558714 21.4641016151 184.176914536 21.4641016151 c 0
 205.477453475 21.4641016146 225.15178109 23.6146587925 242.827433107 28.2523563309 c 1
 264.585003697 52.3391424407 276.823085464 87.5908244884 276.823085464 136.464101615 c 0xe4
261.388254892 320.946895915 m 0
 300.85342297 320.946895915 313.876498825 298.390266865 323.569526084 281.601451171 c 0
 339.216894617 254.499413868 343.176914536 212.759837741 343.176914536 165.535898385 c 0
 343.176914536 98.9863736872 320.485564009 57.6934532973 281.966663844 35.454555918 c 2
 219.612834772 -0.545444082003 l 2
 194.461045781 -15.0668362261 162.56081215 -21.4641016151 125.823085464 -21.4641016151 c 0
 93.3954244414 -21.4641016151 55.3377938803 4.08672726914 40.8410823502 29.195768182 c 0
 34.2708998567 40.5756580757 30.8230854638 46.5474477794 30.8230854638 55.4641016151 c 0
 30.8230855024 84.9426831647 34.0433899531 172.521318091 38.5113474203 280.927388142 c 0
 39.6385181978 325.443514397 40.3638540474 369.011991736 40.3638540474 409.397722876 c 0
 40.3638540474 507.658228788 36.0700597468 587.077728151 22.8230854638 615.464101615 c 1
 53.1727462459 634.565717191 84.8814578497 652.308281944 116.176914536 670.464101615 c 1
 120.176914536 663.535898385 l 1
 106.110548311 345.636021696 106.110548311 345.636021696 103.37595106 257.413207869 c 1
 159.02214245 289.540551447 213.419526749 320.946895915 261.388254892 320.946895915 c 0
EndSplineSet
Validated: 524289
EndChar

StartChar: uni0063
Encoding: 99 99 9
Width: 396
GlyphClass: 2
Flags: HMW
HStem: -21.4639 42.9277<132.646 216.996> 279.856 42.9277
VStem: 39.1769 66.3545<139.227 150.256>
LayerCount: 2
Back
SplineSet
337 243 m 5
 314 274 284.040810958 299.444335938 204 299.444335938 c 7
 137.999999999 299.444335938 62 204.033324079 62 144 c 7
 62 69 104 0 157 0 c 7
 219.110072597 0 283 46 300 65 c 1037
EndSplineSet
Fore
SplineSet
127.823085464 -21.4641016151 m 0
 85.587595502 -21.4641016151 62.3033521482 18.8653908894 52.8068883063 35.3137487558 c 0
 37.8467462956 61.2254748068 28.8230854638 94.7002410087 28.8230854638 129.464101615 c 0
 28.8230854638 175.195167105 72.9243914193 241.455209343 123.111982027 270.43102829 c 2
 185.465811099 306.43102829 l 2
 201.161835041 315.493131938 217.45316308 320.908437553 233.176914536 320.908437553 c 0
 313.217725494 320.908437553 343.176914536 295.464101615 366.176914536 264.464101615 c 1
 370.176914536 257.535898385 l 1
 307.823085464 221.535898385 l 1
 284.823085464 252.535898385 254.863896422 277.980234323 174.823085464 277.980234323 c 0
 169.319023269 277.980234321 163.74541401 277.316678756 158.152136563 276.065423359 c 0
 122.270401855 242.83606634 95.1769145362 194.380028841 95.1769145362 158.535898385 c 0
 95.1769145713 125.322044746 103.413843131 93.2848951657 117.195324272 67.8960524611 c 0
 134.425724182 39.8237350739 158.837870315 21.4641016151 186.176914536 21.4641016151 c 0
 207.872001209 21.4641016172 229.784249608 27.076603982 249.839427106 35.1904589441 c 0
 257.345652235 41.0460757694 263.168102308 46.3791204406 266.823085464 50.4641016151 c 1
 329.176914536 86.4641016151 l 1
 333.176914536 79.5358983849 l 1
 325.515196353 70.9728015913 308.329156278 56.9254418592 286.074240057 44.0765599879 c 2
 223.720410984 8.07655998788 l 2
 196.595597138 -7.58395858786 161.940812613 -21.4641016151 127.823085464 -21.4641016151 c 0
EndSplineSet
Validated: 524289
EndChar

StartChar: uni0064
Encoding: 100 100 10
Width: 374
GlyphClass: 2
Flags: HMW
HStem: -21.4639 42.9277<132.646 210.881> 279.856 42.9277 648.653 20G<364.782 364.782>
VStem: 39.1769 66.3545<139.227 150.256> 276.506 66.5889<46.0996 53.5039> 287.81 62.873
LayerCount: 2
Back
SplineSet
391 18 m 4
 372 7 350.411728335 0 327 0 c 7
 308.889229724 0 304 29 305 70 c 5
 305 128.228515625 318 423 328 649 c 5
 297 630 l 5
 325 570 313 282 305 70 c 1029
312 270 m 0
 290.3828125 286.688476562 257.292178671 299.444335938 204 299.444335938 c 3
 137.999999999 299.444335938 62 204.033324079 62 144 c 3
 62 69 104 0 157 0 c 3
 219.110072597 0 283 46 300 65 c 1033
EndSplineSet
Fore
SplineSet
271.77605465 53.3236997082 m 2xf0
 271.789903512 54.0334347424 271.805593531 54.7469323725 271.823085464 55.4641016151 c 0
 271.823085464 81.840288139 274.490533228 156.752321963 278.338299037 251.822566528 c 1
 256.698302128 266.870443158 224.558021299 277.980234321 174.823085464 277.980234323 c 0
 169.319023269 277.980234321 163.74541401 277.316678756 158.152136563 276.065423359 c 0
 122.270401855 242.83606634 95.1769145362 194.380028841 95.1769145362 158.535898385 c 0
 95.1769145713 125.322044746 103.413843131 93.2848951657 117.195324272 67.8960524611 c 0
 134.425724182 39.8237350739 158.837870315 21.4641016151 186.176914536 21.4641016151 c 0
 207.872001209 21.4641016172 229.784249608 27.076603982 249.839427106 35.1904589441 c 0
 257.345652235 41.0460757694 263.168102308 46.3791204406 266.823085464 50.4641016151 c 1
 271.77605465 53.3236997082 l 2xf0
127.823085464 -21.4641016151 m 0
 85.587595502 -21.4641016151 62.3033521482 18.8653908894 52.8068883063 35.3137487558 c 0
 37.8467462956 61.2254748068 28.8230854638 94.7002410087 28.8230854638 129.464101615 c 0
 28.8230854638 175.195167105 72.9243914193 241.455209343 123.111982027 270.43102829 c 2
 185.465811099 306.43102829 l 2
 201.161835041 315.493131938 217.45316308 320.908437553 233.176914536 320.908437553 c 0
 251.061100583 320.908437553 266.670210209 319.471886283 280.334108802 316.932244944 c 1
 280.97891558 348.867085324 281.363854064 379.976951544 281.363854064 409.39772229 c 0
 281.363854064 507.658228472 277.070059773 587.077728095 263.823085464 615.464101615 c 1
 294.172746246 634.565717191 325.88145785 652.308281944 357.176914536 670.464101615 c 1
 361.176914536 663.535898385 l 1
 356.144753783 549.809064344 350.352913715 418.667473313 345.840236105 309.016615703 c 0
 344.309699857 248.865887465 338.053728682 77.1807106498 338.053728682 74.8376266002 c 0
 338.053728682 54.6444953341 339.796017369 38.0462318679 344.302394109 27.4118824349 c 0
 347.401340634 23.5565210947 351.312144671 21.4641016151 356.176914536 21.4641016151 c 0
 380.367344085 21.4641016151 401.858676339 28.888061861 420.176914536 39.4641016151 c 1
 424.17696894 32.5358041542 l 1
 361.665723734 -3.55508009296 l 2
 342.70391749 -14.5026840324 321.170204571 -21.4641016151 297.823085464 -21.4641016151 c 0
 289.065415666 -21.4641016151 286.331891727 -16.7294992695 279.823201854 -5.45611771832 c 0
 274.800948153 3.24268086034 272.445464036 17.714853386 271.853500347 35.8662120885 c 1
 223.720410984 8.07655998788 l 2
 196.595597138 -7.58395858786 161.940812613 -21.4641016151 127.823085464 -21.4641016151 c 0
EndSplineSet
Validated: 524289
EndChar

StartChar: uni0065
Encoding: 101 101 11
Width: 387
GlyphClass: 2
Flags: HMW
HStem: -21.4639 42.9277<131.646 209.881> 279.856 42.9277<179.758 289.729>
VStem: 38.1769 66.3535<148.685 150.255>
LayerCount: 2
Back
SplineSet
299 65 m 17
 282 46 218.110351562 0 156 0 c 3
 103 0 61 69 61 144 c 3
 61 204.033203125 137 299.444335938 203 299.444335938 c 3
 283.041015625 299.444335938 313 274 336 243 c 1
 72 102 l 1049
EndSplineSet
Fore
SplineSet
94.1767578125 158.536132812 m 0
 94.1767578125 145.887695312 95.37109375 133.41015625 97.611328125 121.405273438 c 1
 164.985351562 157.75390625 232.803710938 193.657226562 300.344726562 229.837890625 c 1
 277.961914062 256.952148438 246.586914062 277.98046875 173.823242188 277.98046875 c 0
 168.319335938 277.98046875 162.745117188 277.31640625 157.15234375 276.065429688 c 0
 121.270507812 242.8359375 94.1767578125 194.379882812 94.1767578125 158.536132812 c 0
126.823242188 -21.4638671875 m 0
 84.587890625 -21.4638671875 61.3037109375 18.865234375 51.806640625 35.3134765625 c 0
 36.8466796875 61.2255859375 27.8232421875 94.7001953125 27.8232421875 129.463867188 c 0
 27.8232421875 175.1953125 71.9248046875 241.455078125 122.112304688 270.430664062 c 2
 184.465820312 306.430664062 l 2
 200.162109375 315.493164062 216.453125 320.908203125 232.176757812 320.908203125 c 0
 312.217773438 320.908203125 342.176757812 295.463867188 365.176757812 264.463867188 c 1
 369.176757812 257.536132812 l 1
 306.823242188 221.536132812 l 1
 99.8447265625 110.990234375 l 1
 103.630859375 95.3896484375 109.198242188 80.7861328125 116.1953125 67.896484375 c 0
 133.42578125 39.82421875 157.837890625 21.4638671875 185.176757812 21.4638671875 c 0
 206.872070312 21.4638671875 228.784179688 27.076171875 248.83984375 35.1904296875 c 0
 256.345703125 41.0458984375 262.16796875 46.37890625 265.823242188 50.4638671875 c 1
 328.176757812 86.4638671875 l 1
 332.176757812 79.5361328125 l 1
 324.515625 70.97265625 307.329101562 56.92578125 285.07421875 44.076171875 c 2
 222.720703125 8.076171875 l 2
 195.595703125 -7.583984375 160.940429688 -21.4638671875 126.823242188 -21.4638671875 c 0
EndSplineSet
Validated: 524289
EndChar

StartChar: uni0066
Encoding: 102 102 12
Width: 318
GlyphClass: 2
Flags: HMW
HStem: 290.471 42.9467 521.611 42.9282
VStem: 106.087 66.1732
LayerCount: 2
Back
SplineSet
15 296 m 5
 205 312 l 1029
263 479 m 5
 250 500 202 542.875 153 542.875 c 7
 116 542.875 70 538.173828125 70 466 c 7
 70 222.331054688 74 -100 27 -162 c 1029
EndSplineSet
Fore
SplineSet
36.9072265625 341.186523438 m 0
 36.9072265625 344.57421875 36.8232421875 450.361328125 36.8232421875 451.463867188 c 0
 36.8232421875 488.947265625 49.23046875 508.232421875 66.3408203125 518.110351562 c 2
 128.694335938 554.110351562 l 2
 144.529296875 563.252929688 164.392578125 564.338867188 182.176757812 564.338867188 c 0
 231.176757812 564.338867188 279.176757812 521.463867188 292.176757812 500.463867188 c 2
 296.176757812 493.536132812 l 1
 233.823242188 457.536132812 l 1
 220.823242188 478.536132812 172.823242188 521.411132812 123.823242188 521.411132812 c 0
 119.348632812 521.411132812 114.741210938 521.341796875 110.100585938 521.09375 c 1
 105.723632812 510.764648438 103.176757812 497.518554688 103.176757812 480.536132812 c 0
 103.176757812 479.43359375 103.26171875 373.646484375 103.26171875 370.2578125 c 0
 103.26171875 354.401367188 103.247070312 338.43359375 103.204101562 322.434570312 c 1
 234.176757812 333.463867188 l 1
 238.176757812 326.536132812 l 1
 175.823242188 290.536132812 l 1
 103.044921875 284.407226562 l 1
 101.900390625 89.4072265625 95.1923828125 -101.274414062 60.1767578125 -147.463867188 c 1
 -2.1767578125 -183.463867188 l 1
 -6.1767578125 -176.536132812 l 1
 30.244140625 -128.491210938 36.0400390625 75.8759765625 36.8037109375 278.829101562 c 1
 -14.1767578125 274.536132812 l 1
 -18.1767578125 281.463867188 l 1
 36.8896484375 313.256835938 l 1
 36.90234375 322.59375 36.9072265625 331.909179688 36.9072265625 341.186523438 c 0
EndSplineSet
Validated: 524289
EndChar

StartChar: uni0067
Encoding: 103 103 13
Width: 407
GlyphClass: 2
Flags: HMW
HStem: -337.379 42.9287<259.557 334.507> -21.4639 42.9277<251.968 336.663> 279.856 42.9277 281.704 43.4385
VStem: 131.899 66.3535<-257.31 -202.387> 162.367 66.3545<129.513 142.336> 271.281 66.3545<-81.1152 -38.292> 435.108 66.3545<-222.315 -175.673> 442.519 66.3535<180.735 194.568>
LayerCount: 2
Back
SplineSet
296 306 m 0
 328.77734375 294.048828125 342 236.0625 342 204 c 3
 342 145.418945312 335 103 295 65 c 0
 241.28125 13.9677734375 169 -43.40234375 169 -67 c 3
 169 -104.935546875 334 -140.956054688 334 -187 c 3
 334 -249.032226562 218.0078125 -316 157 -316 c 3
 83.3564453125 -316 32.2001953125 -290 32.2001953125 -236 c 3
 32.2001953125 -200.954101562 58.0322265625 -159.220703125 112 -128 c 1033
-24 300 m 1
 11.7431640625 292.739257812 114.192382812 293.708007812 199 299.444335938 c 0
 213.989257812 300.458007812 272.991210938 306 296 306 c 3
 312.00390625 306 379.49609375 303.482421875 399 300 c 1025
199 299.444335938 m 3
 133 299.444335938 62 196 62 130 c 3
 62 55 114 -1 157 -1 c 3
 219.110351562 -1 278 46 295 65 c 1025
EndSplineSet
Fore
SplineSet
96.3466796875 316.311523438 m 0xc2
 212.120117188 316.311523438 287.453125 327.463867188 325.176757812 327.463867188 c 0
 341.180664062 327.463867188 408.672851562 324.946289062 428.176757812 321.463867188 c 1
 432.176757812 314.536132812 l 1
 369.823242188 278.536132812 l 1
 368.09375 278.844726562 365.986328125 279.146484375 363.5703125 279.438476562 c 1
 371.604492188 258.870117188 375.176757812 235.201171875 375.176757812 218.536132812 c 0
 375.176757812 159.955078125 368.176757812 117.536132812 328.176757812 79.5361328125 c 0
 324.325195312 75.2314453125 318.323242188 69.4892578125 310.620117188 63.181640625 c 0
 302.520507812 55.75390625 294.236328125 48.2841796875 286.036132812 40.888671875 c 0
 242.966796875 2.0478515625 202.176757812 -34.7373046875 202.176757812 -52.4638671875 c 0
 202.176757812 -54.0126953125 202.452148438 -55.5576171875 202.978515625 -57.099609375 c 0
 227.55859375 -87.7255859375 338.953125 -117.891601562 359.807617188 -154.012695312 c 0
 365.895507812 -164.556640625 367.176757812 -166.776367188 367.176757812 -172.463867188 c 0
 367.176757812 -207.83984375 329.455078125 -244.8203125 285.719726562 -270.0703125 c 2
 223.366210938 -306.0703125 l 2
 190.41015625 -325.09765625 154.040039062 -337.463867188 127.823242188 -337.463867188 c 0
 72.2099609375 -337.463867188 29.419921875 -322.63671875 11.8017578125 -292.12109375 c 0
 4.55078125 -279.561523438 -0.9765625 -269.98828125 -0.9765625 -250.536132812 c 0
 -0.9765625 -215.489257812 24.85546875 -173.756835938 78.8232421875 -142.536132812 c 2
 141.176757812 -106.536132812 l 1
 145.176757812 -113.463867188 l 1
 91.208984375 -144.685546875 65.376953125 -186.41796875 65.376953125 -221.463867188 c 0
 65.376953125 -233.145507812 67.771484375 -243.516601562 72.2685546875 -252.59765625 c 0
 91.0390625 -280.8125 132.672851562 -294.536132812 186.176757812 -294.536132812 c 0
 203.90625 -294.536132812 226.279296875 -288.879882812 249.099609375 -279.333984375 c 1
 278.8984375 -256.407226562 300.823242188 -228.504882812 300.823242188 -201.536132812 c 0
 300.823242188 -198.809570312 300.244140625 -196.118164062 299.15625 -193.458984375 c 0
 272.483398438 -157.508789062 160.013671875 -127.374023438 142.203125 -96.525390625 c 0
 136.336914062 -86.3642578125 135.823242188 -85.4736328125 135.823242188 -81.5361328125 c 0
 135.823242188 -65.814453125 167.90625 -35.103515625 205.208007812 -1.2626953125 c 1
 182.297851562 -13.2138671875 155.376953125 -22.4638671875 127.823242188 -22.4638671875 c 0
 101.690429688 -22.4638671875 72.232421875 -1.7802734375 53.14453125 31.2822265625 c 0
 44.0009765625 47.1181640625 28.8232421875 73.4072265625 28.8232421875 115.463867188 c 0
 28.8232421875 167.54296875 73.0302734375 242.935546875 124.104492188 272.423828125 c 2
 129.75390625 275.684570312 l 1
 98.50390625 274.201171875 66.66796875 273.3828125 37.9921875 273.3828125 c 0
 -1.849609375 273.3828125 -35.5888671875 274.962890625 -53.1767578125 278.536132812 c 1
 -57.1767578125 285.463867188 l 1
 5.1767578125 321.463867188 l 1
 22.7646484375 317.891601562 56.5048828125 316.311523438 96.3466796875 316.311523438 c 0xc2
95.1767578125 144.536132812 m 0
 95.1767578125 116.704101562 102.337890625 91.4892578125 113.541992188 70.78125 c 0
 132.646484375 39.724609375 160.958984375 20.4638671875 186.176757812 20.4638671875 c 0
 205.084960938 20.4638671875 223.694335938 24.8193359375 240.9140625 31.4150390625 c 0
 245.977539062 35.4111328125 255.603515625 44.5556640625 261.823242188 50.4638671875 c 0
 301.823242188 88.4638671875 308.823242188 130.8828125 308.823242188 189.463867188 c 0
 308.823242188 209.534179688 303.641601562 239.762695312 291.7265625 262.499023438 c 0
 285.15625 272.809570312 276.916992188 280.85546875 266.823242188 284.536132812 c 0
 249.71875 284.536132812 212.725585938 281.473632812 188.70703125 279.485351562 c 0
 188.411132812 279.4609375 160.034179688 277.248046875 159.150390625 277.10546875 c 0
 122.573242188 240.98046875 95.1767578125 185.534179688 95.1767578125 144.536132812 c 0
EndSplineSet
Validated: 524289
EndChar

StartChar: uni0068
Encoding: 104 104 14
Width: 374
GlyphClass: 2
Flags: HMW
HStem: 274.761 42.9282 648.654 20G
VStem: 31.5996 66.3538 44.3631 62.1838 282.127 66.3538
LayerCount: 2
Back
SplineSet
71 194 m 5
 104 247 150 299.444335938 199 299.444335938 c 7
 264 299.444335938 315 221 315 153 c 7
 315 58 262 -25 202 -60 c 1028
64 0 m 0
 65 31 65 29 66 70 c 1
 66 128.228515625 81 423 91 649 c 1
 60 630 l 1
 88 570 74 282 66 70 c 1025
EndSplineSet
Fore
SplineSet
43.482421875 424.850585938 m 0xc8
 43.482421875 515.9296875 39.3681640625 588.581054688 26.8232421875 615.463867188 c 1
 57.1728515625 634.565429688 88.8818359375 652.30859375 120.176757812 670.463867188 c 1
 124.176757812 663.536132812 l 1
 123.999023438 659.505859375 106.454101562 279.456054688 105.809570312 260.52734375 c 1
 114.416992188 267.307617188 114.416992188 267.307617188 185.26953125 308.21484375 c 0
 199.125 316.213867188 213.516601562 320.908203125 228.176757812 320.908203125 c 0
 266.541015625 320.908203125 300.029296875 293.581054688 321.03125 257.203125 c 0
 329.954101562 241.75 348.176757812 210.186523438 348.176757812 167.536132812 c 0
 348.176757812 72.5361328125 295.176757812 -10.4638671875 235.176757812 -45.4638671875 c 2
 172.823242188 -81.4638671875 l 1
 168.823242188 -74.5361328125 l 1
 228.823242188 -39.5361328125 281.823242188 43.4638671875 281.823242188 138.463867188 c 0
 281.823242188 165.053710938 274.025390625 193.240234375 260.641601562 217.708984375 c 0
 239.545898438 252.359375 206.970703125 277.98046875 169.823242188 277.98046875 c 0
 165.749023438 277.98046875 161.696289062 277.618164062 157.669921875 276.922851562 c 0
 126.98046875 247.43359375 104.6953125 208.834960938 103.94140625 208.399414062 c 0
 103.348632812 192.517578125 99.2236328125 85.7744140625 99.1767578125 84.5361328125 c 0
 98.376953125 51.736328125 98.376953125 51.736328125 97.1767578125 14.5361328125 c 1
 34.8232421875 -21.4638671875 l 1
 30.8232421875 -14.5361328125 l 1
 32.0234375 22.6640625 32.0234375 22.6640625 32.8232421875 55.4638671875 c 0
 32.8232421875 81.3515625 35.7880859375 153.995117188 39.9599609375 246.563476562 c 0
 41.99609375 308.69140625 43.482421875 370.100585938 43.482421875 424.850585938 c 0xc8
EndSplineSet
Validated: 524289
EndChar

StartChar: uni006B
Encoding: 107 107 17
Width: 366
GlyphClass: 2
Flags: HMW
HStem: -356.804 21G<57.1769 57.1769> -21.4639 42.9277<302.394 400.65> 279.856 42.9277<304.226 366.383> 648.653 20G<165.744 165.744>
VStem: 88.7736 68.1992
LayerCount: 2
Back
SplineSet
306 276 m 25
 306 276 301 303 288 303 c 3
 187 303 93.9736328125 246.552734375 79 156 c 0
 58 29 272 0 322 0 c 1025
38 -335 m 5
 47 -259 68 29 69 70 c 5
 69 128.228515625 82 423 92 649 c 5
 61 630 l 5
 89 570 77 282 69 70 c 1029
  Spiro
    38 -335 {
    49.8014 -205.5 o
    62.5293 -36.1787 o
    69 70 v
    72.7339 195.586 o
    81.6028 411.622 o
    92 649 v
    61 630 v
    77.2901 505.437 o
    76.6979 295.845 o
    69 70 v
    0 0 z
  EndSpiro
EndSplineSet
Fore
SplineSet
45.3638540645 409.39772229 m 0
 45.3638540645 507.658228472 41.0700597731 587.077728095 27.8230854638 615.464101615 c 1
 58.1727462459 634.565717191 89.8814578497 652.308281944 121.176914536 670.464101615 c 1
 125.176914536 663.535898385 l 1
 120.144753783 549.809064344 114.352913715 418.667473313 109.840236105 309.016615703 c 0
 109.271826686 286.677882747 108.602890718 264.104803049 107.874269036 241.579549631 c 1
 118.366692033 249.664239746 118.366692033 249.664239746 192.579449815 292.510995429 c 0
 228.317333734 313.14427233 271.947615415 324.464101615 317.176914536 324.464101615 c 0
 323.65375494 324.464101615 326.303886997 319.873938247 332.704171698 308.788319961 c 0
 337.25723088 300.902190128 339.176914536 290.535898385 339.176914536 290.535898385 c 1
 276.823085464 254.535898385 l 1
 272.823085464 261.464101615 l 1
 272.823085464 261.464101615 271.451748682 268.869318282 268.278170326 275.923448198 c 0
 265.765072173 279.209964857 262.638661563 281.535898385 258.823085464 281.535898385 c 0
 226.877954095 281.535898385 195.73049199 275.889005957 167.5980705 265.302137353 c 1
 138.729204968 240.911974124 118.498068914 208.762948591 112.176914536 170.535898385 c 0
 111.200039232 164.628128457 110.73168337 158.932421953 110.73168337 153.441833294 c 0
 110.73168337 138.153006693 114.363186752 124.454607812 120.759035649 112.196677051 c 0
 166.584487347 39.9770475525 311.227651523 21.4641016151 351.176914536 21.4641016151 c 1
 355.176914536 14.5358983849 l 1
 292.823085464 -21.4641016151 l 1
 260.728339818 -21.4641016151 161.060825181 -9.51525831775 99.34781015 32.6315048017 c 1
 93.1212494974 -64.9747497625 78.3440536455 -259.941593581 71.1769145362 -320.464101615 c 1
 8.82308546376 -356.464101615 l 1
 4.82308546376 -349.535898385 l 1
 13.8230854638 -273.535898385 34.8230854638 14.4641016151 35.8230854638 55.4641016151 c 0
 35.8230854638 84.3910924849 39.0314110135 171.695533544 43.4864072614 279.944825796 c 0
 44.6278075359 324.802344557 45.3638540645 368.714905554 45.3638540645 409.39772229 c 0
EndSplineSet
Validated: 524289
EndChar

StartChar: uni006C
Encoding: 108 108 18
Width: 137
GlyphClass: 2
Flags: HMW
HStem: -19.7275 42.9287 648.653 20G<134.303 134.303>
VStem: 46.2629 66.3545<14.3486 49.3545> 57.3332 62.8721
LayerCount: 2
Back
SplineSet
150 18 m 4
 131 7 109.412109375 0 86 0 c 7
 67.8896484375 0 63 29 64 70 c 5
 64 128.228515625 77 423 87 649 c 5
 56 630 l 5
 84 570 72 282 64 70 c 1029
EndSplineSet
Fore
SplineSet
40.3642578125 409.397460938 m 0xc0
 40.3642578125 507.658203125 36.0703125 587.078125 22.8232421875 615.463867188 c 1
 53.1728515625 634.565429688 84.8818359375 652.30859375 116.176757812 670.463867188 c 1
 120.176757812 663.536132812 l 1
 115.14453125 549.80859375 109.352539062 418.666992188 104.83984375 309.016601562 c 0
 103.309570312 248.864257812 97.0537109375 77.181640625 97.0537109375 74.837890625 c 0
 97.0537109375 54.64453125 98.7958984375 38.0458984375 103.302734375 27.412109375 c 0
 106.401367188 23.556640625 110.3125 21.4638671875 115.176757812 21.4638671875 c 0
 139.368164062 21.4638671875 160.859375 28.888671875 179.176757812 39.4638671875 c 1
 183.176757812 32.5361328125 l 1
 120.666015625 -3.5546875 l 2
 101.704101562 -14.5029296875 80.1708984375 -21.4638671875 56.8232421875 -21.4638671875 c 0
 48.0654296875 -21.4638671875 45.33203125 -16.7294921875 38.8232421875 -5.4560546875 c 0
 32.91796875 4.771484375 30.7001953125 22.98046875 30.7001953125 45.7666015625 c 0
 30.7001953125 48.9150390625 30.7421875 52.150390625 30.8232421875 55.4638671875 c 0
 30.8232421875 84.390625 34.03125 171.6953125 38.486328125 279.9453125 c 0
 39.6279296875 324.802734375 40.3642578125 368.71484375 40.3642578125 409.397460938 c 0xc0
EndSplineSet
Validated: 524289
EndChar

StartChar: uni006D
Encoding: 109 109 19
Width: 614
GlyphClass: 2
Flags: HMW
HStem: 275.211 42.9282 302.784 20G
VStem: 32.5107 66.3538 43.8502 66.3505 282.259 66.3538 514.071 66.3538
LayerCount: 2
Back
SplineSet
310.47265625 201.053710938 m 1
 343.091796875 251.5546875 387.176757812 299.444335938 434 299.444335938 c 3
 499 299.444335938 550 221 550 153 c 3
 550 58 497 -25 437 -60 c 1024
74 194 m 1
 107 247 153 299.444335938 202 299.444335938 c 3
 267 299.444335938 318 221 318 153 c 3
 318 58 265 -25 205 -60 c 1024
56 300 m 0
 89 249 71 233 65 0 c 1025
EndSplineSet
Fore
SplineSet
40.8232421875 179.463867188 m 2x0c
 41.013671875 179.770507812 42.1318359375 202.400390625 42.1318359375 215.573242188 c 0
 42.1318359375 239.918945312 39.435546875 259.043945312 26.8232421875 278.536132812 c 1
 22.8232421875 285.463867188 l 1
 85.1767578125 321.463867188 l 1
 104.313476562 291.889648438 106.875976562 277.001953125 108.02734375 259.907226562 c 1
 117.03125 267.084960938 117.03125 267.084960938 188.26953125 308.21484375 c 0
 202.125 316.213867188 216.516601562 320.908203125 231.176757812 320.908203125 c 0
 269.541015625 320.908203125 303.029296875 293.581054688 324.03125 257.203125 c 0
 328.1796875 250.017578125 328.1796875 250.017578125 328.328125 249.759765625 c 1
 337.829101562 258.663085938 347.727539062 266.33203125 357.915039062 272.21484375 c 2
 420.26953125 308.21484375 l 2
 434.125 316.213867188 448.516601562 320.908203125 463.176757812 320.908203125 c 0
 501.541015625 320.908203125 535.029296875 293.581054688 556.03125 257.203125 c 0
 564.954101562 241.75 583.176757812 210.186523438 583.176757812 167.536132812 c 0
 583.176757812 72.5361328125 530.176757812 -10.4638671875 470.176757812 -45.4638671875 c 2
 407.823242188 -81.4638671875 l 1
 403.823242188 -74.5361328125 l 1
 463.823242188 -39.5361328125 516.823242188 43.4638671875 516.823242188 138.463867188 c 0
 516.823242188 165.053710938 509.025390625 193.240234375 495.641601562 217.708984375 c 0
 474.545898438 252.359375 441.970703125 277.98046875 404.823242188 277.98046875 c 0
 400.749023438 277.98046875 396.696289062 277.618164062 392.669921875 276.922851562 c 0
 364.149414062 249.517578125 344.373046875 216.0078125 343.40234375 215.446289062 c 1
 348.431640625 199.654296875 351.176757812 183.314453125 351.176757812 167.536132812 c 0
 351.176757812 72.5361328125 298.176757812 -10.4638671875 238.176757812 -45.4638671875 c 2
 175.823242188 -81.4638671875 l 1
 171.823242188 -74.5361328125 l 1
 231.823242188 -39.5361328125 284.823242188 43.4638671875 284.823242188 138.463867188 c 0
 284.823242188 165.053710938 277.025390625 193.240234375 263.641601562 217.708984375 c 0
 242.545898438 252.359375 209.970703125 277.98046875 172.823242188 277.98046875 c 0
 168.749023438 277.98046875 164.696289062 277.618164062 160.669921875 276.922851562 c 0
 140.725585938 257.758789062 122.583007812 233.264648438 107.244140625 208.643554688 c 1
 106.779296875 200.060546875 106.208984375 190.59765625 105.575195312 180.084960938 c 0
 103.260742188 141.68359375 100.1015625 89.2734375 98.1767578125 14.5361328125 c 1
 35.8232421875 -21.4638671875 l 1
 31.8232421875 -14.5361328125 l 1
 33.748046875 60.201171875 36.9072265625 112.612304688 39.2216796875 151.012695312 c 0
 39.8505859375 161.442382812 40.4169921875 170.837890625 40.87890625 179.3671875 c 1
 40.8232421875 179.463867188 l 2x0c
EndSplineSet
Validated: 524289
EndChar

StartChar: uni006E
Encoding: 110 110 20
Width: 382
GlyphClass: 2
Flags: HMW
HStem: 275.211 42.9282 302.784 20G
VStem: 34.5097 66.3538 45.8495 66.3504 284.179 66.3538
LayerCount: 2
Back
SplineSet
76 194 m 1
 109 247 155 299.444335938 204 299.444335938 c 3
 269 299.444335938 320 221 320 153 c 3
 320 58 267 -25 207 -60 c 1024
58 300 m 4
 91 249 73 233 67 0 c 1029
EndSplineSet
Fore
SplineSet
42.8232421875 179.463867188 m 2x08
 43.013671875 179.770507812 44.1318359375 202.400390625 44.1318359375 215.573242188 c 0
 44.1318359375 239.918945312 41.435546875 259.043945312 28.8232421875 278.536132812 c 1
 24.8232421875 285.463867188 l 1
 87.1767578125 321.463867188 l 1
 106.313476562 291.889648438 108.875976562 277.001953125 110.02734375 259.907226562 c 1
 119.03125 267.084960938 119.03125 267.084960938 190.26953125 308.21484375 c 0
 204.125 316.213867188 218.516601562 320.908203125 233.176757812 320.908203125 c 0
 271.541015625 320.908203125 305.029296875 293.581054688 326.03125 257.203125 c 0
 334.954101562 241.75 353.176757812 210.186523438 353.176757812 167.536132812 c 0
 353.176757812 72.5361328125 300.176757812 -10.4638671875 240.176757812 -45.4638671875 c 2
 177.823242188 -81.4638671875 l 1
 173.823242188 -74.5361328125 l 1
 233.823242188 -39.5361328125 286.823242188 43.4638671875 286.823242188 138.463867188 c 0
 286.823242188 165.053710938 279.025390625 193.240234375 265.641601562 217.708984375 c 0
 244.545898438 252.359375 211.970703125 277.98046875 174.823242188 277.98046875 c 0
 170.749023438 277.98046875 166.696289062 277.618164062 162.669921875 276.922851562 c 0
 142.725585938 257.758789062 124.583007812 233.264648438 109.244140625 208.643554688 c 1
 108.779296875 200.060546875 108.208984375 190.59765625 107.575195312 180.084960938 c 0
 105.260742188 141.68359375 102.1015625 89.2734375 100.176757812 14.5361328125 c 1
 37.8232421875 -21.4638671875 l 1
 33.8232421875 -14.5361328125 l 1
 35.748046875 60.201171875 38.9072265625 112.612304688 41.2216796875 151.012695312 c 0
 41.8505859375 161.442382812 42.4169921875 170.837890625 42.87890625 179.3671875 c 1
 42.8232421875 179.463867188 l 2x08
EndSplineSet
Validated: 524289
EndChar

StartChar: uni006F
Encoding: 111 111 21
Width: 421
GlyphClass: 2
Flags: HMW
HStem: -22.0713 42.9277<169.442 263.103> 279.856 42.9277<190.086 283.747>
VStem: 42.1769 66.3545<151.901 163.798> 344.658 66.3545<136.915 148.812>
LayerCount: 2
Back
SplineSet
60 150 m 4
 60 233 130 300 212 300 c 4
 294 300 365 233 365 150 c 4
 365 67 294 0 212 0 c 4
 130 0 60 67 60 150 c 4
EndSplineSet
Fore
SplineSet
26.8230854638 135.464101615 m 0
 26.8230854638 190.795473508 57.931990978 239.016238426 102.966444283 265.016892165 c 2
 165.320273356 301.016892165 l 2
 187.839894647 314.018601579 213.841643394 321.464101615 241.176914536 321.464101615 c 0
 297.113231621 321.464101615 347.930930731 290.287064863 374.584559226 244.121626104 c 0
 383.80699263 228.147902877 398.176914536 203.258468036 398.176914536 164.535898385 c 0
 398.176914536 109.361405791 366.802266701 61.2572563722 321.678088369 35.2047998652 c 2
 259.324259296 -0.795200134833 l 2
 236.567309492 -13.93393123 210.313345793 -21.4641016151 182.823085464 -21.4641016151 c 0
 127.140334468 -21.4641016151 76.9910196866 9.43091724481 50.536506107 55.2514788542 c 0
 41.2996772355 71.2501357604 26.8230854638 96.3243282295 26.8230854638 135.464101615 c 0
241.176914536 21.4641016151 m 0
 256.091899879 21.4641016151 270.642961268 23.680729334 284.469039695 27.8070846138 c 1
 313.393453553 55.0431854822 331.823085464 93.1770653053 331.823085464 135.464101615 c 0
 331.823085464 160.43111376 325.398644997 183.950364674 314.18287742 204.633706117 c 0
 287.028358173 248.901009399 237.358437323 278.535898385 182.823085464 278.535898385 c 0
 168.11756037 278.535898385 153.797970675 276.38109241 140.198840966 272.365631394 c 1
 111.423936789 245.118148295 93.1769145367 206.912397311 93.1769145362 164.535898385 c 0
 93.1769145362 139.316526027 99.639561067 115.574330018 110.937820945 94.7399781499 c 0
 137.879131624 50.8196881811 186.899164319 21.4641016151 241.176914536 21.4641016151 c 0
EndSplineSet
Validated: 524289
EndChar

StartChar: uni0070
Encoding: 112 112 22
Width: 406
GlyphClass: 2
Flags: HMW
HStem: -356.804 21G -22.0715 42.9282 279.856 42.9282
VStem: 38.5127 66.129 50.0331 66.2947 323.795 66.3538
LayerCount: 2
Back
SplineSet
54 300 m 4
 87 249 69 233 63 0 c 13
 63 0 52 -334 52 -335 c 1028
74 240.114257812 m 1
 102.098632812 276.508789062 146.4453125 300 195 300 c 0
 277 300 348 233 348 150 c 0
 348 67 277 0 195 0 c 0
 141.543945312 0 93.1884765625 28.4736328125 66 71.291015625 c 1025
EndSplineSet
Fore
SplineSet
106.486328125 244.645507812 m 0xe4
 106.486328125 215.360351562 101.934570312 164.118164062 98.662109375 87.5107421875 c 1
 126.377929688 47.6279296875 172.934570312 21.4638671875 224.176757812 21.4638671875 c 0
 239.091796875 21.4638671875 253.642578125 23.6806640625 267.46875 27.806640625 c 1
 296.393554688 55.04296875 314.823242188 93.1767578125 314.823242188 135.463867188 c 0
 314.823242188 160.430664062 308.3984375 183.950195312 297.182617188 204.633789062 c 0
 270.028320312 248.901367188 220.358398438 278.536132812 165.823242188 278.536132812 c 0
 151.1171875 278.536132812 136.797851562 276.380859375 123.19921875 272.365234375 c 0
 117.411132812 266.885742188 112.049804688 260.961914062 107.176757812 254.650390625 c 1
 106.323242188 254.157226562 l 1
 106.43359375 251.14453125 106.486328125 247.983398438 106.486328125 244.645507812 c 0xe4
224.176757812 321.463867188 m 0
 280.11328125 321.463867188 330.930664062 290.287109375 357.584960938 244.122070312 c 0
 366.806640625 228.147460938 381.176757812 203.258789062 381.176757812 164.536132812 c 0
 381.176757812 109.361328125 349.802734375 61.2568359375 304.677734375 35.205078125 c 2
 242.32421875 -0.794921875 l 2
 219.567382812 -13.93359375 193.313476562 -21.4638671875 165.823242188 -21.4638671875 c 0
 140.725585938 -21.4638671875 116.751953125 -15.1875 95.5654296875 -4.0966796875 c 1
 85.1767578125 -320.463867188 l 1
 22.8232421875 -356.463867188 l 1
 18.8232421875 -349.536132812 l 1
 29.8232421875 -14.5361328125 l 2
 31.748046875 60.201171875 34.9072265625 112.612304688 37.2216796875 151.012695312 c 0
 38.8984375 178.83203125 40.1318359375 199.297851562 40.1318359375 215.573242188 c 0
 40.1318359375 239.918945312 37.435546875 259.043945312 24.8232421875 278.536132812 c 1
 20.8232421875 285.463867188 l 1
 83.1767578125 321.463867188 l 1
 88.978515625 312.497070312 100.276367188 295.038085938 104.081054688 275.475585938 c 1
 148.3203125 301.016601562 l 2
 170.83984375 314.018554688 196.841796875 321.463867188 224.176757812 321.463867188 c 0
EndSplineSet
Validated: 524289
EndChar

StartChar: uni0071
Encoding: 113 113 23
Width: 382
GlyphClass: 2
Flags: HMW
HStem: -356.804 21G -21.4641 42.9282 279.856 42.9282
VStem: 16.1777 66.3538 255.073 66.3538
LayerCount: 2
Back
SplineSet
301 65 m 17
 284 46 220.110351562 0 158 0 c 3
 105 0 63 69 63 144 c 3
 63 204.033203125 139 299.444335938 205 299.444335938 c 3
 269.14453125 299.444335938 301.125 283.103515625 323.134765625 260.657226562 c 1
 326 201 304 -220 306 -335 c 1024
EndSplineSet
Fore
SplineSet
290.215820312 231.229492188 m 0
 290.215820312 235.826171875 290.170898438 239.765625 290.076171875 242.985351562 c 1
 268.181640625 263.456054688 236.295898438 277.98046875 175.823242188 277.98046875 c 0
 170.319335938 277.98046875 164.745117188 277.31640625 159.15234375 276.065429688 c 0
 123.270507812 242.8359375 96.1767578125 194.379882812 96.1767578125 158.536132812 c 0
 96.1767578125 125.322265625 104.4140625 93.28515625 118.1953125 67.896484375 c 0
 135.42578125 39.82421875 159.837890625 21.4638671875 187.176757812 21.4638671875 c 0
 208.872070312 21.4638671875 230.784179688 27.076171875 250.83984375 35.1904296875 c 0
 258.345703125 41.0458984375 264.16796875 46.37890625 267.823242188 50.4638671875 c 1
 285.220703125 60.5087890625 l 1
 288.040039062 135.3359375 290.215820312 199.225585938 290.215820312 231.229492188 c 0
128.823242188 -21.4638671875 m 0
 86.587890625 -21.4638671875 63.3037109375 18.865234375 53.806640625 35.3134765625 c 0
 38.8466796875 61.2255859375 29.8232421875 94.7001953125 29.8232421875 129.463867188 c 0
 29.8232421875 175.1953125 73.9248046875 241.455078125 124.112304688 270.430664062 c 2
 186.465820312 306.430664062 l 2
 202.162109375 315.493164062 218.453125 320.908203125 234.176757812 320.908203125 c 0
 298.321289062 320.908203125 330.301757812 304.567382812 352.311523438 282.12109375 c 1
 356.311523438 275.193359375 l 1
 356.487304688 271.536132812 356.569335938 266.520507812 356.569335938 260.30078125 c 0
 356.569335938 218.577148438 352.87109375 122.657226562 348.872070312 18.9599609375 c 0
 344.16796875 -103.03515625 339.047851562 -235.793945312 339.047851562 -303.731445312 c 0
 339.047851562 -309.853515625 339.08984375 -315.450195312 339.176757812 -320.463867188 c 1
 276.823242188 -356.463867188 l 1
 272.823242188 -349.536132812 l 1
 272.736328125 -344.521484375 272.694335938 -338.92578125 272.694335938 -332.803710938 c 0
 272.694335938 -282.87890625 272.814453125 -265.366210938 284.54296875 42.615234375 c 1
 224.720703125 8.076171875 l 2
 197.595703125 -7.583984375 162.940429688 -21.4638671875 128.823242188 -21.4638671875 c 0
EndSplineSet
Validated: 524289
EndChar

StartChar: uni0072
Encoding: 114 114 24
Width: 309
GlyphClass: 2
Flags: HMW
HStem: 279.856 42.9282 302.784 20G
VStem: 30.5107 66.3538 42.0311 66.3538 217.246 66.3538
LayerCount: 2
Back
SplineSet
47 300 m 0
 80 249 62 233 56 0 c 0
 54.3662109375 -63.447265625 49 -162.1796875 49 -162.58984375 c 1024
79 269 m 0
 110.728515625 287.130859375 133.000976562 299.578125 175 300 c 0
 204 300.291015625 247 272.012695312 247 233 c 3
 247 173.032226562 201 159 143 125 c 1
 219 110 242 34 308 0 c 1025
EndSplineSet
Fore
SplineSet
204.622070312 321.466796875 m 0x08
 225.999023438 321.466796875 254.75390625 306.141601562 268.384765625 282.532226562 c 0
 275.3515625 270.46484375 280.176757812 262.106445312 280.176757812 247.536132812 c 0
 280.176757812 204.583007812 256.577148438 185.197265625 221.872070312 165.159179688 c 2
 184.266601562 143.448242188 l 1
 250.842773438 123.220703125 274.80859375 53.59375 337.176757812 21.4638671875 c 1
 341.176757812 14.5361328125 l 1
 278.823242188 -21.4638671875 l 1
 212.821289062 12.537109375 189.82421875 88.5361328125 113.823242188 103.536132812 c 1
 109.823242188 110.463867188 l 1
 111.619140625 111.516601562 112.459960938 110.178710938 173.405273438 147.189453125 c 0
 198.922851562 162.685546875 213.823242188 183.383789062 213.823242188 218.463867188 c 0
 213.823242188 227.26953125 211.6328125 235.528320312 207.907226562 243.034179688 c 0
 193.58203125 264.6875 166.590820312 278.538085938 146.267578125 278.538085938 c 0
 133.258789062 278.538085938 115.767578125 277.047851562 97.8447265625 271.038085938 c 1
 99.00390625 263.364257812 99.486328125 254.82421875 99.486328125 244.645507812 c 0
 99.486328125 210.3828125 92.2890625 135.384765625 89.1767578125 14.5361328125 c 0
 87.474609375 -51.5673828125 82.1767578125 -146.426757812 82.1767578125 -148.053710938 c 1
 19.8232421875 -184.053710938 l 1
 15.8232421875 -177.125976562 l 1
 15.8232421875 -170.322265625 20.837890625 -91.6123046875 22.8232421875 -14.5361328125 c 0
 24.748046875 60.201171875 27.9072265625 112.612304688 30.2216796875 151.012695312 c 0
 31.8984375 178.83203125 33.1318359375 199.297851562 33.1318359375 215.573242188 c 0
 33.1318359375 239.918945312 30.435546875 259.043945312 17.8232421875 278.536132812 c 1
 13.8232421875 285.463867188 l 1
 76.1767578125 321.463867188 l 1
 86.2734375 305.861328125 92.37109375 293.401367188 95.29296875 283.025390625 c 1
 140.166992188 308.93359375 161.874023438 321.466796875 204.622070312 321.466796875 c 0x08
EndSplineSet
Validated: 524289
EndChar

StartChar: uni0073
Encoding: 115 115 25
Width: 383
GlyphClass: 2
Flags: HMW
HStem: -18.2248 42.9282 279.856 42.9282
VStem: 2.17771 66.3538 267.663 66.3538
LayerCount: 2
Back
SplineSet
323 221 m 17
 305 281 251.544921875 300 193 300 c 3
 128 300 55 284 55 219 c 3
 55 180.291992188 113.751953125 154.484375 186 137 c 0
 246 122.479492188 322 110.673828125 322 88 c 3
 322 27.9912109375 243 0 200 0 c 3
 161 0 94 23 76 65 c 1025
EndSplineSet
Fore
SplineSet
163.823242188 278.536132812 m 0
 142.272460938 278.536132812 119.842773438 276.77734375 99.4853515625 272.056640625 c 1
 92.3095703125 261.694335938 88.1767578125 249.001953125 88.1767578125 233.536132812 c 0
 88.1767578125 227.846679688 89.4462890625 222.435546875 91.8408203125 217.2890625 c 0
 135.90234375 153.678710938 329.766601562 149.34765625 349.62890625 114.944335938 c 0
 355.176757812 105.3359375 355.176757812 105.3359375 355.176757812 102.536132812 c 0
 355.176757812 72.5419921875 335.439453125 50.5458984375 310.327148438 36.046875 c 2
 247.97265625 0.046875 l 2
 222.842773438 -14.4619140625 192.330078125 -21.4638671875 170.823242188 -21.4638671875 c 0
 133.92578125 -21.4638671875 71.9658203125 -0.876953125 50.1494140625 36.91015625 c 0
 44.26171875 47.107421875 44.228515625 47.1845703125 42.8232421875 50.4638671875 c 1
 105.176757812 86.4638671875 l 1
 108.390625 80.8984375 108.390625 80.8984375 110.62890625 76.3994140625 c 0
 134.107421875 40.8037109375 193.4140625 21.4638671875 229.176757812 21.4638671875 c 0
 241.032226562 21.4638671875 255.625 23.591796875 270.543945312 27.931640625 c 1
 281.689453125 40.291015625 288.823242188 55.4326171875 288.823242188 73.4638671875 c 0
 288.823242188 74.1298828125 288.7578125 74.787109375 288.62890625 75.4345703125 c 0
 275.4921875 88.8916015625 233.486328125 98.248046875 191.044921875 107.701171875 c 0
 140.1953125 119.026367188 54.1767578125 138.184570312 31.3046875 177.799804688 c 0
 24.75390625 189.146484375 21.8232421875 194.22265625 21.8232421875 204.463867188 c 0
 21.8232421875 233.200195312 36.08984375 252.358398438 57.6259765625 264.79296875 c 2
 119.979492188 300.79296875 l 2
 147.158203125 316.483398438 185.912109375 321.463867188 222.176757812 321.463867188 c 0
 272.010742188 321.463867188 318.157226562 307.697265625 341.887695312 266.595703125 c 0
 348.629882812 254.916992188 352.236328125 248.670898438 356.176757812 235.536132812 c 1
 293.823242188 199.536132812 l 1
 284.591796875 215.525390625 290.188476562 210.533203125 281.474609375 227.078125 c 0
 257.19921875 265.534179688 212.252929688 278.536132812 163.823242188 278.536132812 c 0
EndSplineSet
Validated: 524289
EndChar

StartChar: uni0074
Encoding: 116 116 26
Width: 396
GlyphClass: 2
Flags: HMW
HStem: -21.4639 42.9277<267.968 352.662> 273.438 42.9287<170.735 270.296> 282.215 40.4932
VStem: 178.367 66.3535<129.513 142.498>
LayerCount: 2
Back
SplineSet
-9 300 m 5
 26.7431640625 292.739257812 129.192607418 293.70817016 214 299.444335938 c 4
 228.989453105 300.45818609 265.990773878 304.651526443 288.999997862 304.651526443 c 7
 305.003794356 304.651526443 325.496059733 303.482846476 345 300 c 1029
214 299.444335938 m 7
 148 299.444335938 72 204.033203125 72 144 c 7
 72 69 114 0 167 0 c 7
 229.110351562 0 293 46 310 65 c 1037
EndSplineSet
Fore
SplineSet
243.176914536 320.908437553 m 0x90
 258.306317507 321.931753574 295.140490937 326.115628058 318.176912398 326.115628058 c 0
 334.180708892 326.115628058 354.672974269 324.946948091 374.176914536 321.464101615 c 1
 378.176914536 314.535898385 l 1
 315.823085464 278.535898385 l 1
 296.319145197 282.018744861 275.82687982 283.187424828 259.823083326 283.187424828 c 0
 235.937592839 283.187424828 205.078037282 279.22711179 175.59759122 277.379322317 c 0
 173.122601044 277.062011 170.63933627 276.621824065 168.152182478 276.065431076 c 0
 132.270425062 242.836049645 105.176914536 194.379971973 105.176914536 158.535898385 c 0
 105.176914571 125.322044746 113.413843131 93.2848951657 127.195324272 67.8960524612 c 0
 144.425724182 39.8237350739 168.837870315 21.4641016151 196.176914536 21.4641016151 c 0
 217.87202868 21.4641016156 239.784235073 27.0765677765 259.839356829 35.1903804338 c 0
 267.345613085 41.0460280991 273.168085972 46.3791021835 276.823085464 50.4641016151 c 1
 339.176914536 86.4641016151 l 1
 343.176914536 79.5358983849 l 1
 335.515176667 70.97277959 318.329124629 56.9253696749 296.074161895 44.0764609493 c 2
 233.720332822 8.0764609493 l 2
 206.595589157 -7.58401710736 171.94089393 -21.4641016151 137.823085464 -21.4641016151 c 0
 95.587595502 -21.4641016151 72.3033521482 18.8653908894 62.8068883063 35.3137487558 c 0
 47.8467462956 61.2254748068 38.8230854638 94.7002410087 38.8230854638 129.464101615 c 0
 38.8230854638 175.195090779 82.9244219173 241.455211262 133.112034086 270.431042658 c 2
 141.987421751 275.555250115 l 1
 111.628566576 274.153943668 80.8219570928 273.382995763 52.9925222872 273.382995763 c 0
 13.1508435756 273.382995763 -20.5888548268 274.96312103 -38.1769145362 278.535898385 c 1
 -42.1769145362 285.464101615 l 1
 20.1769145362 321.464101615 l 1
 37.764974246 317.891324261 71.5046726497 316.311198993 111.346351362 316.311198993 c 0
 179.777398013 316.311198993 242.912684142 320.909363678 243.176914536 320.908437553 c 0x90
EndSplineSet
Validated: 524321
EndChar

StartChar: uni0075
Encoding: 117 117 27
Width: 365
GlyphClass: 2
Flags: HMW
HStem: -21.4639 42.9277<113.099 200.844> 303.677 20G<119.996 127.528>
VStem: 57.6173 66.3535<110.035 125.799> 78.2618 66.3535<239.822 292.377> 288.354 66.1855<34.1211 101.526> 296.967 66.3535<230.399 238.122>
LayerCount: 2
Back
SplineSet
37 292 m 5
 44 296 54.9892578125 299.444335938 69 299.444335938 c 7
 101.717773438 299.444335938 63 174 62.611328125 93 c 28
 63 49 76.580078125 0 127 0 c 7
 225 0 259 46 285 83 c 1029
254 288 m 5
 272 298 276.977539062 300.444335938 284 300.444335938 c 7
 331 300.444335938 247.991210938 0 305 0 c 7
 326 0 354 18 354 18 c 1029
EndSplineSet
Fore
SplineSet
115.30078125 285.310546875 m 0xc0
 115.30078125 243.528320312 96.0615234375 164.463867188 95.7880859375 107.536132812 c 0
 95.974609375 86.4228515625 99.1982421875 64.1591796875 108.072265625 46.7099609375 c 0
 117.989257812 31.5634765625 133.286132812 21.4638671875 156.176757812 21.4638671875 c 0
 181.499023438 21.4638671875 202.548828125 24.53515625 220.291015625 29.728515625 c 1
 233.161132812 42.2001953125 242.916015625 55.7900390625 251.743164062 68.349609375 c 1
 254.8828125 125.045898438 265.930664062 196.23828125 265.930664062 241.919921875 c 0
 265.930664062 256.3671875 264.810546875 268.12890625 261.958007812 275.84375 c 0
 260.01171875 277.890625 257.653320312 278.98046875 254.823242188 278.98046875 c 0
 247.80078125 278.98046875 242.823242188 276.536132812 224.823242188 266.536132812 c 1
 220.823242188 273.463867188 l 1
 304.731445312 321.908203125 304.731445312 321.908203125 313.176757812 321.908203125 c 0
 318.962890625 321.908203125 320.362304688 319.484375 326.48828125 308.874023438 c 0
 330.697265625 301.584960938 332.284179688 288.19140625 332.284179688 270.9921875 c 0
 332.284179688 224.634765625 321.356445312 155.918945312 318.109375 97.65234375 c 1
 318.176757812 97.5361328125 l 2
 318.026367188 97.3212890625 317.29296875 83.634765625 317.29296875 71.361328125 c 0
 317.29296875 52.5498046875 318.870117188 36.9775390625 323.047851562 26.9208984375 c 0
 325.954101562 23.3857421875 329.618164062 21.4638671875 334.176757812 21.4638671875 c 0
 340.315429688 21.4638671875 352 21.4638671875 383.176757812 39.4638671875 c 1
 387.176757812 32.5361328125 l 1
 385.666015625 31.564453125 385.666015625 31.564453125 320.729492188 -5.9267578125 c 0
 312.193359375 -10.85546875 291.9453125 -21.4638671875 275.823242188 -21.4638671875 c 0
 267.506835938 -21.4638671875 265.004882812 -17.1298828125 258.559570312 -5.966796875 c 0
 253.805664062 2.267578125 251.622070312 15.9677734375 251.079101562 33.06640625 c 1
 195.65234375 1.06640625 l 2
 172.4453125 -12.33203125 141.486328125 -21.4638671875 97.8232421875 -21.4638671875 c 0
 64.16796875 -21.4638671875 52.5107421875 -1.2734375 43.650390625 14.072265625 c 0
 33.3076171875 31.9873046875 29.6337890625 55.8837890625 29.4345703125 78.4638671875 c 0
 29.70703125 135.352539062 48.9462890625 214.495117188 48.9462890625 256.23828125 c 0
 48.9462890625 264.021484375 48.2802734375 270.51953125 46.7021484375 275.349609375 c 0
 44.8828125 277.068359375 42.6123046875 277.98046875 39.8232421875 277.98046875 c 0
 25.8125 277.98046875 14.8232421875 274.536132812 7.8232421875 270.536132812 c 1
 3.8232421875 277.463867188 l 1
 66.1767578125 313.463867188 l 2
 73.1767578125 317.463867188 84.166015625 320.908203125 98.1767578125 320.908203125 c 0
 104.108398438 320.908203125 105.252929688 318.92578125 111.3125 308.431640625 c 0
 114.155273438 303.505859375 115.30078125 295.512695312 115.30078125 285.310546875 c 0xc0
EndSplineSet
Validated: 524289
EndChar

StartChar: uni0076
Encoding: 118 118 28
Width: 390
GlyphClass: 2
Flags: HMW
HStem: -21.4639 42.9277<114.1 198.922> 303.677 20G<120.996 128.529>
VStem: 58.6173 66.3535<110.035 125.799> 79.2628 66.3535<239.822 292.377> 318.14 66.3535<232.445 235.97>
LayerCount: 2
Back
SplineSet
38 292 m 5
 45 296 55.9892578125 299.444335938 70 299.444335938 c 7
 102.717773438 299.444335938 64 174 63.611328125 93 c 28
 64 49 77.580078125 0 128 0 c 7
 226 0 327 95.5361328125 327 216 c 7
 327 248.873046875 328 300 300 300 c 5
 292.977539062 300 291 299 273 289 c 1029
EndSplineSet
Fore
SplineSet
30.4345703125 78.4638671875 m 0xc8
 30.70703125 135.352539062 49.9462890625 214.495117188 49.9462890625 256.23828125 c 0
 49.9462890625 264.021484375 49.2802734375 270.51953125 47.7021484375 275.349609375 c 0
 45.8828125 277.068359375 43.6123046875 277.98046875 40.8232421875 277.98046875 c 0
 26.8125 277.98046875 15.8232421875 274.536132812 8.8232421875 270.536132812 c 1
 4.8232421875 277.463867188 l 1
 67.1767578125 313.463867188 l 2
 74.1767578125 317.463867188 85.166015625 320.908203125 99.1767578125 320.908203125 c 0
 105.108398438 320.908203125 106.252929688 318.92578125 112.3125 308.431640625 c 0
 115.155273438 303.505859375 116.30078125 295.512695312 116.30078125 285.310546875 c 0
 116.30078125 243.528320312 97.0615234375 164.463867188 96.7880859375 107.536132812 c 0
 96.974609375 86.4228515625 100.198242188 64.1591796875 109.072265625 46.7099609375 c 0
 118.989257812 31.5634765625 134.286132812 21.4638671875 157.176757812 21.4638671875 c 0
 160.421875 22.0439453125 194.74609375 24.9541015625 212.969726562 31.4404296875 c 1
 260.21875 70.787109375 293.823242188 131.978515625 293.823242188 201.463867188 c 0
 293.823242188 201.532226562 293.827148438 208.051757812 293.827148438 208.26171875 c 0
 293.827148438 229.07421875 293.473632812 254.706054688 286.458007812 270.567382812 c 0
 282.65625 275.553710938 277.584960938 278.536132812 270.823242188 278.536132812 c 0
 263.80078125 278.536132812 261.823242188 277.536132812 243.823242188 267.536132812 c 1
 239.823242188 274.463867188 l 1
 302.176757812 310.463867188 l 2
 320.176757812 320.463867188 322.154296875 321.463867188 329.176757812 321.463867188 c 0
 340.481445312 321.463867188 344.145507812 315.118164062 350.92578125 303.374023438 c 0
 359.766601562 288.061523438 360.181640625 259.87109375 360.181640625 237.333007812 c 0
 360.181640625 237.124023438 360.176757812 230.603515625 360.176757812 230.536132812 c 0
 360.176757812 147.041015625 311.65625 75.5224609375 249.244140625 39.48828125 c 2
 186.890625 3.48828125 l 2
 159.255859375 -12.4658203125 128.8984375 -21.4638671875 98.8232421875 -21.4638671875 c 0
 65.16796875 -21.4638671875 53.5107421875 -1.2734375 44.650390625 14.072265625 c 0
 34.3076171875 31.9873046875 30.6337890625 55.8837890625 30.4345703125 78.4638671875 c 0xc8
EndSplineSet
Validated: 524289
EndChar

StartChar: uni0077
Encoding: 119 119 29
Width: 613
GlyphClass: 2
Flags: HMW
HStem: -21.4639 42.9277<121.099 207.02> 303.677 20G<127.996 135.529 359.657 367.189>
VStem: 65.6164 66.3535<110.036 125.8> 86.2619 66.3545<239.823 292.378> 297.277 66.3535<110.036 125.8> 317.922 66.3545<239.823 292.378> 556.8 66.3535<232.446 235.97>
LayerCount: 2
Back
SplineSet
35 292.555664062 m 1
 42 296.555664062 52.9892578125 300 67 300 c 3
 99.7177734375 300 61 174.555664062 60.611328125 93.5556640625 c 24
 61 49.5556640625 74.580078125 0.5556640625 125 0.5556640625 c 3
 223 0.5556640625 264.611328125 56 290.611328125 93 c 1025
265 292 m 1
 272 296 282.989257812 299.444335938 297 299.444335938 c 3
 329.717773438 299.444335938 291 174 290.611328125 93 c 24
 291 49 304.580078125 0 355 0 c 3
 453 0 554 95.5361328125 554 216 c 3
 554 248.873046875 555 300 527 300 c 1
 519.977539062 300 518 299 500 289 c 1025
EndSplineSet
Fore
SplineSet
113.30078125 285.866210938 m 0xc2
 113.30078125 243.984375 94.0615234375 165.123046875 93.7880859375 108.091796875 c 0
 93.974609375 86.978515625 97.1982421875 64.71484375 106.072265625 47.265625 c 0
 115.989257812 32.119140625 131.286132812 22.01953125 154.176757812 22.01953125 c 0
 178.58203125 22.01953125 199.490234375 25.4580078125 217.530273438 31.1943359375 c 1
 234.80859375 46.837890625 247.305664062 64.05078125 257.434570312 78.4638671875 c 1
 257.708007812 135.470703125 276.946289062 214.380859375 276.946289062 256.23828125 c 0
 276.946289062 264.021484375 276.280273438 270.51953125 274.702148438 275.349609375 c 0
 272.8828125 277.068359375 270.612304688 277.98046875 267.823242188 277.98046875 c 0
 253.8125 277.98046875 242.823242188 274.536132812 235.823242188 270.536132812 c 1
 231.823242188 277.463867188 l 1
 294.176757812 313.463867188 l 2
 301.176757812 317.463867188 312.166015625 320.908203125 326.176757812 320.908203125 c 0
 332.108398438 320.908203125 333.252929688 318.92578125 339.311523438 308.431640625 c 0
 342.155273438 303.505859375 343.30078125 295.512695312 343.30078125 285.310546875 c 0
 343.30078125 243.428710938 324.061523438 164.567382812 323.788085938 107.536132812 c 0
 323.974609375 86.4228515625 327.198242188 64.1591796875 336.072265625 46.7099609375 c 0
 345.989257812 31.5634765625 361.286132812 21.4638671875 384.176757812 21.4638671875 c 0
 387.421875 22.0439453125 421.74609375 24.9541015625 439.969726562 31.4404296875 c 1
 487.21875 70.787109375 520.823242188 131.978515625 520.823242188 201.463867188 c 0
 520.823242188 201.532226562 520.827148438 208.051757812 520.827148438 208.26171875 c 0
 520.827148438 229.07421875 520.473632812 254.706054688 513.458007812 270.567382812 c 0
 509.65625 275.553710938 504.584960938 278.536132812 497.823242188 278.536132812 c 0
 490.80078125 278.536132812 488.823242188 277.536132812 470.823242188 267.536132812 c 1
 466.823242188 274.463867188 l 1
 529.176757812 310.463867188 l 2
 547.176757812 320.463867188 549.154296875 321.463867188 556.176757812 321.463867188 c 0
 567.481445312 321.463867188 571.145507812 315.118164062 577.92578125 303.374023438 c 0
 586.766601562 288.061523438 587.181640625 259.87109375 587.181640625 237.333007812 c 0
 587.181640625 237.124023438 587.176757812 230.603515625 587.176757812 230.536132812 c 0
 587.176757812 147.041015625 538.65625 75.5224609375 476.244140625 39.48828125 c 2
 413.890625 3.48828125 l 2
 386.255859375 -12.4658203125 355.8984375 -21.4638671875 325.823242188 -21.4638671875 c 0
 292.16796875 -21.4638671875 280.510742188 -1.2734375 271.650390625 14.072265625 c 0
 266.750976562 22.55859375 263.348632812 32.38671875 261.102539062 42.78125 c 1
 257.870117188 40.708984375 257.870117188 40.708984375 192.201171875 2.794921875 c 0
 167.955078125 -11.203125 136.82421875 -20.908203125 95.8232421875 -20.908203125 c 0
 62.16796875 -20.908203125 50.5107421875 -0.7177734375 41.650390625 14.6279296875 c 0
 31.3076171875 32.54296875 27.6337890625 56.439453125 27.4345703125 79.01953125 c 0
 27.7080078125 136.026367188 46.9462890625 214.936523438 46.9462890625 256.793945312 c 0
 46.9462890625 264.577148438 46.2802734375 271.075195312 44.7021484375 275.905273438 c 0
 42.8828125 277.624023438 40.6123046875 278.536132812 37.8232421875 278.536132812 c 0
 23.8125 278.536132812 12.8232421875 275.091796875 5.8232421875 271.091796875 c 1
 1.8232421875 278.01953125 l 1
 64.1767578125 314.01953125 l 2
 71.1767578125 318.01953125 82.166015625 321.463867188 96.1767578125 321.463867188 c 0
 102.108398438 321.463867188 103.252929688 319.481445312 109.311523438 308.987304688 c 0
 112.155273438 304.061523438 113.30078125 296.068359375 113.30078125 285.866210938 c 0xc2
EndSplineSet
Validated: 524289
EndChar

StartChar: uni0078
Encoding: 120 120 30
Width: 550
GlyphClass: 2
Flags: HMW
HStem: -181.317 42.9287<229.469 304.382> -21.4639 42.9277<704.054 779.842> 279.856 42.9277
VStem: 317.62 66.3535<237.509 269.749>
LayerCount: 2
Back
SplineSet
53 246 m 1
 40 269 81.0046284392 299.500085712 108 300 c 0
 162 301 226.409801403 223.974296137 282 161 c 0
 335 100.959960938 409.900110865 0 455 0 c 3
 471.037325517 0 494 15 511 25 c 1025
-89 -142 m 0
 -73.2898402315 -156.064333507 -60.0049046637 -162.45389414 -39.0000040603 -162.45389414 c 3
 84.0000750301 -162.45389414 192 26 282 161 c 0
 330.804779771 234.207169656 379 301 432 300 c 0
 450.997070312 299.641601562 471.142529094 290.063008158 486 270 c 1025
EndSplineSet
Fore
SplineSet
456.823085464 248.535898385 m 1
 442.015651161 268.531338867 421.59658864 278.546986246 401.647240777 278.546986246 c 0
 398.998036496 278.546986246 396.360768712 278.378290289 393.734758533 278.048594577 c 0
 367.475521342 252.255482853 341.853950006 215.513937616 316.071448759 176.877067867 c 1
 324.497939577 167.19113421 333.414253782 156.62315423 342.627010228 145.70381879 c 0
 390.958778635 88.4190316846 447.449346853 21.4641016151 484.176914536 21.4641016151 c 0
 492.729081596 21.4641016151 503.250631385 25.7296976305 513.787138893 31.2279575435 c 2
 540.176914536 46.4641016151 l 1
 544.176914536 39.5358983849 l 1
 521.393676347 26.1339935678 521.393676347 26.1339935678 465.404480191 -6.19138390462 c 0
 451.771613172 -14.0623233482 437.088686069 -21.4641016151 425.823085464 -21.4641016151 c 0
 389.09551778 -21.4641016151 332.604949563 45.4908284543 284.273181155 102.77561556 c 0
 281.073066606 106.568522104 277.908719834 110.319035216 274.788245633 114.004913123 c 1
 213.058365246 19.6757803217 143.939210095 -82.3447774131 68.2493655034 -126.044329563 c 2
 5.89553643089 -162.044329563 l 2
 -18.1413584057 -175.922037267 -42.8409158127 -183.917995755 -68.1769185965 -183.917995755 c 0
 -89.1818191999 -183.917995755 -102.466754768 -177.528435122 -118.176914536 -163.464101615 c 1
 -122.176914536 -156.535898385 l 1
 -59.8230854638 -120.535898385 l 1
 -44.1129256953 -134.600231892 -30.8279901275 -140.989792525 -9.82308952406 -140.989792525 c 0
 4.81716190803 -140.989792271 19.2449022454 -138.319914267 33.4550728345 -133.388082302 c 1
 101.023043468 -79.5659944503 162.990347328 15.3295700819 218.729379753 100.687276791 c 0
 228.657131471 115.890449192 238.38729977 130.791046059 247.916338473 145.103096233 c 1
 189.927742771 210.977921746 134.725827179 273.687089187 85.3643306892 278.286103765 c 1
 84.2856323147 275.491499522 83.6953280453 272.674490037 83.6953280453 269.891264679 c 0
 83.6953280453 266.700167905 84.4713234134 263.553482679 86.1769145362 260.535898385 c 1
 23.8230854638 224.535898385 l 1
 18.048414548 234.537921808 17.3414989728 235.762335501 17.3414989728 240.819467909 c 0
 17.3414989728 253.691259065 29.9672478946 267.285643528 45.1380771256 276.044525868 c 2
 107.491906198 312.044525868 l 2
 114.062417154 315.838012137 125.898026233 321.4737382 138.220276246 321.4737382 c 0
 185.397679336 321.4737382 240.387633415 262.661159694 290.461599362 205.984698976 c 1
 313.06406675 235.840331605 335.865485083 260.593448344 359.400647608 274.181480764 c 2
 421.754476681 310.181480764 l 2
 434.269074568 317.406787223 446.991137089 321.475189481 460.001069605 321.475189481 c 0
 479.922014387 321.475189481 500.351170465 311.484266968 515.176914536 291.464101615 c 1
 519.176914536 284.535898385 l 1
 456.823085464 248.535898385 l 1
EndSplineSet
Validated: 524289
EndChar

StartChar: uni0079
Encoding: 121 121 31
Width: 362
GlyphClass: 2
Flags: HMW
HStem: -356.804 21G -21.4641 42.9282 303.677 20G
VStem: 60.6202 66.3538 81.2654 66.3538 279.333 66.3538 300.081 66.3538
LayerCount: 2
Back
SplineSet
42 292 m 1
 49 296 59.9892578125 299.444335938 74 299.444335938 c 3
 106.717773438 299.444335938 68 174 67.611328125 93 c 24
 68 49 81.580078125 0 132 0 c 3
 230 0 264 46 290 83 c 1025
259 288 m 1
 277 298 281.977539062 300.444335938 289 300.444335938 c 3
 320.086914062 300.444335938 298.184570312 168.754882812 290.21484375 80 c 0
 285.249023438 24.7080078125 276 -207 287 -335 c 1033
EndSplineSet
Fore
SplineSet
120.30078125 285.310546875 m 0xe0
 120.30078125 243.528320312 101.061523438 164.463867188 100.788085938 107.536132812 c 0
 100.974609375 86.4228515625 104.198242188 64.1591796875 113.072265625 46.7099609375 c 0
 122.989257812 31.5634765625 138.286132812 21.4638671875 161.176757812 21.4638671875 c 0
 186.499023438 21.4638671875 207.548828125 24.53515625 225.291015625 29.728515625 c 1
 238.19921875 42.2373046875 247.974609375 55.8720703125 256.823242188 68.4638671875 c 1
 257.337890625 68.76171875 l 1
 258.838867188 84.9892578125 260.767578125 102.548828125 262.729492188 120.409179688 c 0
 267.26953125 161.735351562 271.985351562 204.673828125 271.985351562 236.456054688 c 0
 271.985351562 253.192382812 270.677734375 266.834960938 267.34765625 275.518554688 c 0
 265.28515625 277.775390625 260.952148438 278.4609375 259.823242188 278.98046875 c 0
 252.80078125 278.98046875 247.823242188 276.536132812 229.823242188 266.536132812 c 1
 225.823242188 273.463867188 l 1
 309.731445312 321.908203125 309.731445312 321.908203125 318.176757812 321.908203125 c 0
 324.12890625 321.908203125 325.690429688 319.204101562 331.858398438 308.521484375 c 0
 336.557617188 300.380859375 338.33984375 285.061523438 338.33984375 265.528320312 c 0
 338.33984375 233.74609375 333.623046875 190.807617188 329.083984375 149.481445312 c 0
 326.98828125 130.403320312 324.930664062 111.669921875 323.391601562 94.5361328125 c 0
 320.12890625 58.1982421875 315.014648438 -54.3369140625 315.014648438 -163.552734375 c 0
 315.014648438 -220.520507812 316.40625 -276.5859375 320.176757812 -320.463867188 c 1
 257.823242188 -356.463867188 l 1
 253.823242188 -349.536132812 l 1
 250.052734375 -305.657226562 248.661132812 -249.592773438 248.661132812 -192.625 c 0
 248.661132812 -106.86328125 251.814453125 -19.0546875 254.748046875 32.2978515625 c 1
 200.65234375 1.06640625 l 2
 177.4453125 -12.33203125 146.486328125 -21.4638671875 102.823242188 -21.4638671875 c 0
 69.16796875 -21.4638671875 57.5107421875 -1.2734375 48.650390625 14.072265625 c 0
 38.3076171875 31.9873046875 34.6337890625 55.8837890625 34.4345703125 78.4638671875 c 0
 34.70703125 135.352539062 53.9462890625 214.495117188 53.9462890625 256.23828125 c 0
 53.9462890625 264.021484375 53.2802734375 270.51953125 51.7021484375 275.349609375 c 0
 49.8828125 277.068359375 47.6123046875 277.98046875 44.8232421875 277.98046875 c 0
 30.8125 277.98046875 19.8232421875 274.536132812 12.8232421875 270.536132812 c 1
 8.8232421875 277.463867188 l 1
 71.1767578125 313.463867188 l 2
 78.1767578125 317.463867188 89.166015625 320.908203125 103.176757812 320.908203125 c 0
 109.108398438 320.908203125 110.252929688 318.92578125 116.3125 308.431640625 c 0
 119.155273438 303.505859375 120.30078125 295.512695312 120.30078125 285.310546875 c 0xe0
EndSplineSet
Validated: 524289
EndChar

StartChar: uni007A
Encoding: 122 122 32
Width: 409
GlyphClass: 2
Flags: HMW
HStem: -19.6572 42.9287<253.862 324.131> 273.721 42.9287<134.885 267.957>
VStem: 347.735 66.3535<77.916 127.548>
LayerCount: 2
Back
SplineSet
289 177 m 1
 328 184 351 157.01666204 351 127 c 3
 351 67.0747259824 341.05078125 33 310 15 c 0
 297.546875 7.78125 280.412585302 0 270 0 c 3
 238 0 218 14 202 40 c 1025
49 300 m 0
 55 287 286 292 324 300 c 1
 257.21447715 171.402483309 166 48 82 0 c 1033
EndSplineSet
Fore
SplineSet
182.209311717 313.480471809 m 0
 250.912206538 313.480471809 332.003778918 317.00659938 353.176914536 321.464101615 c 1
 357.176914536 314.535898385 l 1
 331.098447716 264.321032512 301.295169162 214.898280828 269.651086895 170.447701964 c 1
 318.176914536 198.464101615 l 1
 322.402026737 199.222455087 326.439351187 199.581955145 330.279987291 199.581955145 c 0
 350.310097403 199.581955145 364.990389877 189.803746091 373.058283023 175.829745253 c 0
 379.725836904 164.281203168 384.176914536 156.57171056 384.176914536 141.535898385 c 0
 384.176914536 81.6106243673 374.259403905 47.4810891321 343.177041347 29.5356787423 c 0
 280.570601277 -6.61016628525 280.570601277 -6.61016628525 280.570601277 -6.61016628525 c 2
 268.139252326 -13.7874089485 251.16547676 -21.4641016151 240.823085464 -21.4641016151 c 0
 196.875128955 -21.4641016151 180.105505971 5.92237606479 168.823085464 25.4641016151 c 1
 231.176914536 61.4641016151 l 1
 247.176914536 35.4641016151 267.176914536 21.4641016151 299.176914536 21.4641016151 c 0
 299.286174573 21.4641016151 299.396174701 21.46666223 299.506901746 21.46666223 c 0
 312.980164891 41.4293247156 317.823085464 70.655156308 317.823085464 112.464101615 c 0
 317.823085464 120.862572203 316.02254387 129.02358 312.57478321 136.269212329 c 0
 304.179488608 148.421451884 290.304836216 156.653751912 271.92615816 156.653751912 c 0
 268.085522076 156.653751912 264.048197645 156.294251853 259.823085464 155.535898385 c 1
 259.386264092 156.292495194 l 1
 213.135846178 93.6967750469 163.46690635 42.4135309567 116.05811094 15.0420501649 c 2
 52.8242144149 -21.4660570158 l 1
 48.8230854638 -14.5358983849 l 1
 139.253422343 37.6740809553 228.377394216 167.219237898 286.491691357 277.196074387 c 1
 257.140116503 273.391943351 185.509350561 270.552268579 123.855482624 270.552268579 c 0
 69.6508994176 270.552268579 23.1579588414 272.747195 19.8877464053 278.41136909 c 0
 15.8519230179 285.401620248 15.8519230179 285.401620248 15.8230854638 285.464101615 c 2
 78.1769145362 321.464101615 l 1
 82.2787078789 314.359587144 148.347781613 313.480471809 182.209311717 313.480471809 c 0
EndSplineSet
Validated: 524289
EndChar

StartChar: uni00FE
Encoding: 254 254 33
Width: 367
GlyphClass: 2
Flags: HMW
HStem: -356.804 21G 279.052 42.9282 648.654 20G
VStem: 88.774 62.6707 317.116 66.3538
LayerCount: 2
Back
SplineSet
77 234.422158475 m 5
 163.656369077 283.74873007 200.202549574 300 253 300 c 7
 285 300 306 264.036132812 306 209 c 7
 306 98.1198635776 147.146411892 23.8335917169 64.6563805746 -22.3744777017 c 1029
38 -335 m 5
 47 -259 68.5 28.9939033456 69 70 c 4
 69.7098927286 128.219859684 82 423 92 649 c 5
 61 630 l 5
 89 570 77 282 69 70 c 1028
  Spiro
    38 -335 {
    49.8014 -205.5 o
    62.5293 -36.1787 o
    69 70 v
    72.7339 195.586 o
    81.6028 411.622 o
    92 649 v
    61 630 v
    77.2901 505.437 o
    76.6979 295.845 o
    69 70 v
    0 0 z
  EndSpiro
EndSplineSet
Fore
SplineSet
45.363854061 409.397722409 m 0
 45.363854061 507.658228536 41.0700597678 587.077728107 27.8230854638 615.464101615 c 1
 58.1727462459 634.565717191 89.8814578497 652.308281944 121.176914536 670.464101615 c 1
 125.176914536 663.535898385 l 1
 118.672033837 516.525595233 110.692156152 332.076813778 108.367232273 257.132042013 c 1
 193.453292177 305.486852632 229.826478909 321.464101613 282.176914536 321.464101615 c 0
 306.323864485 321.464101615 316.831053335 303.265116683 324.828276286 289.413520211 c 0
 333.98416542 273.555055044 339.176914536 250.903512202 339.176914536 223.535898385 c 0
 339.176914536 141.451106041 252.117662142 79.4214759936 173.431554056 33.9920303082 c 0
 104.25682439 -5.94601848534 104.25682439 -5.94601848534 96.7211535077 -10.1775485875 c 1
 89.6231478348 -113.707914248 77.406044753 -267.862557155 71.1769145362 -320.464101615 c 1
 8.82308546376 -356.464101615 l 1
 4.82308546376 -349.535898385 l 1
 13.8230854638 -273.535898385 35.3230854638 14.4580049607 35.8230854638 55.4641016151 c 0
 36.7952322731 135.191993522 45.363854061 260.536789695 45.363854061 409.397722409 c 0
223.823085464 278.535898385 m 0
 185.185232742 278.535898385 155.250748426 269.832529979 108.011089888 245.832078137 c 1
 104.425365821 133.775698478 101.838905234 65.7352981355 97.4894681871 1.12874682866 c 1
 105.776805606 5.73199365474 134.781860632 21.5156136065 135.158408776 21.7218023473 c 0
 205.11879031 65.2856898157 272.823085464 122.076639986 272.823085464 194.464101615 c 0
 272.823084347 219.838637814 268.359130195 241.158997633 260.411277335 256.769709732 c 0
 251.286094913 270.708827301 238.751594135 278.535898385 223.823085464 278.535898385 c 0
EndSplineSet
Validated: 524289
EndChar

StartChar: uni0131
Encoding: 305 305 34
Width: 132
GlyphClass: 2
Flags: HMW
HStem: -20.6535 42.9282 302.784 20G
VStem: -22.8898 66.3538 -10.7663 66.3538
AnchorPoint: "dot-over" 56.1768 300 basechar 0
LayerCount: 2
Back
SplineSet
12 283 m 5
 30 293 43.7841796875 299.444335938 59 299.444335938 c 7
 106 299.444335938 22.9912109375 -1 80 -1 c 7
 101 -1 129 17 129 17 c 1029
EndSplineSet
Fore
SplineSet
25.939453125 41.2900390625 m 0xc0
 25.939453125 99.2861328125 40.9306640625 188.069335938 40.9306640625 240.919921875 c 0
 40.9306640625 255.3671875 39.810546875 267.12890625 36.9580078125 274.84375 c 0
 35.01171875 276.890625 32.6533203125 277.98046875 29.8232421875 277.98046875 c 0
 14.607421875 277.98046875 0.8232421875 271.536132812 -17.1767578125 261.536132812 c 1
 -21.1767578125 268.463867188 l 1
 41.1767578125 304.463867188 l 2
 59.1767578125 314.463867188 72.9609375 320.908203125 88.1767578125 320.908203125 c 0
 93.962890625 320.908203125 95.3623046875 318.484375 101.48828125 307.874023438 c 0
 105.697265625 300.584960938 107.284179688 287.19140625 107.284179688 269.9921875 c 0
 107.284179688 217.141601562 92.29296875 128.358398438 92.29296875 70.361328125 c 0
 92.29296875 51.5498046875 93.8701171875 35.9775390625 98.0478515625 25.9208984375 c 0
 100.954101562 22.3857421875 104.618164062 20.4638671875 109.176757812 20.4638671875 c 0
 115.315429688 20.4638671875 127 20.4638671875 158.176757812 38.4638671875 c 1
 162.176757812 31.5361328125 l 1
 160.666015625 30.564453125 160.666015625 30.564453125 95.7294921875 -6.9267578125 c 0
 87.193359375 -11.85546875 66.9453125 -22.4638671875 50.8232421875 -22.4638671875 c 0
 42.5068359375 -22.4638671875 40.0048828125 -18.1298828125 33.5595703125 -6.966796875 c 0
 27.978515625 2.7001953125 25.939453125 19.9013671875 25.939453125 41.2900390625 c 0xc0
EndSplineSet
Validated: 524289
EndChar

StartChar: uni017F
Encoding: 383 383 35
Width: 334
GlyphClass: 2
Flags: HMW
HStem: 521.611 42.9282
VStem: 118.306 66.1949
LayerCount: 2
Back
SplineSet
27 296 m 1
 81 300.547368421 l 1025
275 479 m 1
 262 500 214 542.875 165 542.875 c 3
 128 542.875 82 538.173828125 82 466 c 3
 82 222.331054688 86 -100 39 -162 c 1025
EndSplineSet
Fore
SplineSet
48.9077135629 341.186278597 m 0
 48.9077135629 344.574356926 48.8230854638 450.36132306 48.8230854638 451.464101615 c 0
 48.8230854638 488.947556651 61.2303939366 508.232010392 78.3405489834 518.110563014 c 2
 140.694378056 554.110563014 l 2
 156.529568852 563.253014682 176.39285295 564.339101615 194.176914536 564.339101615 c 0
 243.176914536 564.339101615 291.176914536 521.464101615 304.176914536 500.464101615 c 2
 308.176914536 493.535898385 l 1
 245.823085464 457.535898385 l 1
 232.823085464 478.535898385 184.823085464 521.410898385 135.823085464 521.410898385 c 0
 131.348167643 521.410898385 126.74160336 521.342132536 122.100692587 521.093552409 c 1
 117.723668518 510.764756606 115.176914536 497.518112886 115.176914536 480.535898385 c 0
 115.176914536 479.43311983 115.261542635 373.646153696 115.261542635 370.258075367 c 0
 115.261542635 148.60574956 112.3405509 -94.4822834333 72.1769145362 -147.464101615 c 1
 9.82308546376 -183.464101615 l 1
 5.82308546376 -176.535898385 l 1
 42.2437135888 -128.491665539 48.0398193942 75.8763750481 48.8038261757 278.829013392 c 1
 -2.17691453624 274.535898385 l 1
 -6.17691453624 281.464101615 l 1
 48.8898450328 313.256910076 l 1
 48.9025962856 322.593911606 48.9077135629 331.908871679 48.9077135629 341.186278597 c 0
EndSplineSet
Validated: 524289
EndChar

StartChar: uni01BF
Encoding: 447 447 36
Width: 362
GlyphClass: 2
Flags: HMW
HStem: -356.804 21G 279.052 42.9282
VStem: 35.5098 66.0305 47.0306 66.3538 278.02 66.3538
LayerCount: 2
Back
SplineSet
51 300 m 0
 84 249 66 233 60 0 c 9
 60 0 49 -334 49 -335 c 1024
72.34375 234.422851562 m 1
 159 283.749023438 195.545898438 300 248.34375 300 c 3
 280.34375 300 301.34375 264.036132812 301.34375 209 c 3
 301.34375 98.1201171875 142.490234375 23.833984375 60 -22.3740234375 c 1025
EndSplineSet
Fore
SplineSet
334.520507812 223.536132812 m 0xc8
 334.520507812 141.452148438 247.461914062 79.4228515625 168.776367188 33.9931640625 c 0
 99.73828125 -5.8662109375 99.73828125 -5.8662109375 92.37109375 -10.0048828125 c 1
 82.1767578125 -320.463867188 l 1
 19.8232421875 -356.463867188 l 1
 15.8232421875 -349.536132812 l 1
 26.8232421875 -14.5361328125 l 2
 28.748046875 60.201171875 31.9072265625 112.612304688 34.2216796875 151.012695312 c 0
 35.8984375 178.83203125 37.1318359375 199.297851562 37.1318359375 215.573242188 c 0
 37.1318359375 239.918945312 34.435546875 259.043945312 21.8232421875 278.536132812 c 1
 17.8232421875 285.463867188 l 1
 80.1767578125 321.463867188 l 1
 99.4013671875 291.75390625 102.217773438 276.583984375 103.20703125 256.846679688 c 1
 188.653320312 305.423828125 225.06640625 321.463867188 277.520507812 321.463867188 c 0
 301.66796875 321.463867188 312.174804688 303.264648438 320.171875 289.413085938 c 0
 329.328125 273.5546875 334.520507812 250.903320312 334.520507812 223.536132812 c 0xc8
219.166992188 278.536132812 m 0
 180.563476562 278.536132812 150.6484375 269.848632812 103.483398438 245.897460938 c 0
 103.485351562 245.483398438 103.486328125 245.065429688 103.486328125 244.645507812 c 0
 103.486328125 210.3828125 96.2890625 135.384765625 93.1767578125 14.5361328125 c 2
 92.7353515625 1.07421875 l 1
 101.079101562 5.7099609375 130.125976562 21.5166015625 130.502929688 21.72265625 c 0
 200.462890625 65.287109375 268.166992188 122.077148438 268.166992188 194.463867188 c 0
 268.166992188 219.838867188 263.703125 241.159179688 255.754882812 256.76953125 c 0
 246.629882812 270.708984375 234.095703125 278.536132812 219.166992188 278.536132812 c 0
EndSplineSet
Validated: 524289
EndChar

StartChar: uni0237
Encoding: 567 567 37
Width: 121
GlyphClass: 2
Flags: HMW
HStem: 302.784 20G
VStem: 30.3039 66.3538
AnchorPoint: "dot-over" 45.1768 300 basechar 0
LayerCount: 2
Back
SplineSet
1 283 m 1
 19 293 32.7841796875 299.444335938 48 299.444335938 c 3
 66.9638671875 299.444335938 61 210 60.9609375 148 c 0
 60.8330078125 -57.2421875 13.65234375 -132.384765625 -46 -164 c 1024
EndSplineSet
Fore
SplineSet
77.1767578125 320.908203125 m 0
 80.9130859375 320.908203125 81.6611328125 319.612304688 87.595703125 309.333984375 c 0
 93.685546875 298.78515625 95.056640625 271.491210938 95.056640625 240.141601562 c 0
 95.056640625 225.493164062 94.1455078125 175.288085938 94.1376953125 162.536132812 c 0
 94.013671875 -37.1494140625 49.349609375 -113.684570312 -8.005859375 -146.798828125 c 0
 -72.7314453125 -184.16796875 -72.7314453125 -184.16796875 -75.1767578125 -185.463867188 c 1
 -79.1767578125 -178.536132812 l 1
 -69.6845703125 -173.055664062 l 1
 -14.595703125 -138.479492188 27.6630859375 -60.76171875 27.7841796875 133.463867188 c 0
 27.7890625 140.711914062 28.703125 201.673828125 28.703125 211.069335938 c 0
 28.703125 238.94140625 27.619140625 263.606445312 23.0986328125 276.150390625 c 0
 21.837890625 277.346679688 20.4189453125 277.98046875 18.8232421875 277.98046875 c 0
 3.607421875 277.98046875 -10.1767578125 271.536132812 -28.1767578125 261.536132812 c 1
 -32.1767578125 268.463867188 l 1
 30.1767578125 304.463867188 l 2
 48.1767578125 314.463867188 61.9609375 320.908203125 77.1767578125 320.908203125 c 0
EndSplineSet
Validated: 524289
EndChar

StartChar: uni25CC
Encoding: 775 775 38
Width: 213
GlyphClass: 4
Flags: HMW
HStem: 351.346 89.9077
VStem: 54.6844 100.374
AnchorPoint: "dot-over" 106 300 mark 0
LayerCount: 2
Back
SplineSet
90 421 m 29
 123 373 l 1053
EndSplineSet
Fore
SplineSet
60.8230854638 399.535898385 m 1
 56.8230854638 406.464101615 l 1
 119.176914536 442.464101615 l 1
 152.176914536 394.464101615 l 1
 156.176914536 387.535898385 l 1
 93.8230854638 351.535898385 l 1
 60.8230854638 399.535898385 l 1
EndSplineSet
Validated: 524289
EndChar

StartChar: uni0323
Encoding: 803 803 39
Width: 213
GlyphClass: 4
Flags: HMW
HStem: -124.654 89.9077
VStem: 57.1141 100.374
AnchorPoint: "dot-under" 106 0 mark 0
LayerCount: 2
Back
SplineSet
90 -56 m 25
 123 -104 l 1049
EndSplineSet
Fore
SplineSet
61.1142578125 -77.673828125 m 1
 57.1142578125 -70.74609375 l 1
 119.467773438 -34.74609375 l 1
 153.48828125 -81.7255859375 l 1
 157.48828125 -88.6533203125 l 1
 95.134765625 -124.653320312 l 1
 61.1142578125 -77.673828125 l 1
EndSplineSet
Validated: 524289
EndChar

StartChar: runeFeoh
Encoding: 5792 5792 40
Width: 454
GlyphClass: 2
Flags: HMW
VStem: 59.9735 65.2696 195.501 66.3538 331.455 66.3538
LayerCount: 2
Back
SplineSet
361 478 m 5
 400 428 294 358 94 243 c 1037
225 523 m 1
 255 484 162 430 91 389 c 1033
89 542.875 m 8
 89 542 93 0 89 0 c 1024
EndSplineSet
Fore
SplineSet
57.6008632415 126.015027541 m 0
 57.6008632415 290.112381634 55.8230854638 524.315821597 55.8230854638 528.339101615 c 1
 118.176914536 564.339101615 l 1
 122.176914536 557.410898385 l 2
 122.176914536 555.973602456 122.594554249 502.019782952 123.080091534 413.684143291 c 1
 163.773023036 440.087164231 197.6071471 468.017790116 197.6071471 492.266994326 c 0
 197.6071471 498.452912506 196.687003715 500.04551819 191.823085464 508.464101615 c 1
 254.176914536 544.464101615 l 1
 255.150178115 543.198858963 263.960975332 531.464960482 263.960975332 521.338790758 c 0
 263.960975332 484.360336621 185.386863951 438.875479156 123.138499285 402.93636906 c 1
 123.369549406 359.924519769 123.59400493 312.067894751 123.748861566 265.053287559 c 1
 257.916278349 344.206686034 335.81899045 399.515114815 335.81899045 441.585440498 c 0
 335.81899045 449.614787926 335.217563524 450.65648992 327.823085464 463.464101615 c 1
 390.176914536 499.464101615 l 1
 392.44982999 496.550107444 402.172819131 483.343757617 402.172819131 470.657237091 c 0
 402.172819131 418.950478282 281.648273892 346.702905394 123.77921503 255.557161764 c 1
 123.887489157 220.599274567 123.954692314 186.322928023 123.954692314 155.086824311 c 0
 123.954692314 75.2682665873 123.515875038 15.3016195693 122.202210022 14.5431747185 c 0
 122.202210022 14.5431747185 59.8483809497 -21.4568252815 59.8230854638 -21.4641016151 c 2
 59.8230854638 -21.4641016151 55.8230854638 -14.5358983849 55.8734973573 -14.5067930646 c 0
 57.1676451714 -13.0017471155 57.6008632415 46.707337721 57.6008632415 126.015027541 c 0
EndSplineSet
Validated: 524289
EndChar

StartChar: runeUr
Encoding: 5794 5794 41
Width: 503
GlyphClass: 2
Flags: HMW
VStem: 59.9735 66.3538 379.935 66.3538
LayerCount: 2
Back
SplineSet
90 0 m 4
 91 18 89.259663873 543.341398348 90 542.875 c 4
 366 369 346 352 416 0 c 1037
EndSplineSet
Fore
SplineSet
123.000097831 481.504506763 m 1
 123.003057624 477.668911539 123.495667011 155.582359263 123.495667011 97.945190342 c 0
 123.495667011 51.0475913698 123.412037533 18.7681123311 123.176914536 14.5358983849 c 1
 60.8230854638 -21.4641016151 l 1
 56.8230854638 -14.5358983849 l 1
 57.0582084608 -10.3036844387 57.1418379387 21.9757946001 57.1418379387 68.8733935723 c 0
 57.1418379387 184.458073079 56.6338437843 388.838230647 56.6338437843 480.966975143 c 0
 56.6338437843 510.305710322 56.6853608577 528.260723395 56.8212066048 528.339153974 c 2
 119.176914536 564.339101615 l 1
 280.188628455 462.904638725 322.033459438 424.621704391 360.177347984 358.554551431 c 0
 394.044203321 299.895437293 408.214596374 226.290321122 432.600536559 99.6227012802 c 0
 437.608754565 73.6085697873 443.047845367 45.3563604916 449.176914536 14.5358983849 c 1
 386.823085464 -21.4641016151 l 1
 382.823085464 -14.5358983849 l 1
 376.694016295 16.2845637219 371.254925493 44.5367730176 366.246707486 70.5509045105 c 0
 342.341214319 194.722952675 328.252703867 267.902746955 295.80252116 325.997999867 c 0
 263.642632313 379.904947092 214.011883101 421.584722851 123.000097831 481.504506763 c 1
EndSplineSet
Validated: 524289
EndChar

StartChar: runeYr
Encoding: 5795 5795 42
Width: 503
GlyphClass: 2
Flags: HMW
VStem: 59.9735 65.4942 211.443 66.3538 379.935 66.3538
LayerCount: 2
Back
SplineSet
241 206 m 1
 247 0 l 1025
94 242 m 1
 379 174 l 1025
90 0 m 0
 91 18 89.259663873 543.341398348 90 542.875 c 0
 366 369 346 352 416 0 c 1033
EndSplineSet
Fore
SplineSet
57.1418379387 68.8733935723 m 0
 57.1418379387 184.458073079 56.6338437843 388.838230647 56.6338437843 480.966975143 c 0
 56.6338437843 510.305710322 56.6853608577 528.260723395 56.8212066048 528.339153974 c 2
 119.176914536 564.339101615 l 1
 280.188628455 462.904638725 322.033459438 424.621704391 360.177347984 358.554551431 c 0
 394.044203321 299.895437293 408.214596374 226.290321122 432.600536559 99.6227012802 c 0
 437.608754565 73.6085697873 443.047845367 45.3563604916 449.176914536 14.5358983849 c 1
 386.823085464 -21.4641016151 l 1
 382.823085464 -14.5358983849 l 2
 382.490707189 -12.8645104899 353.623363481 135.627872258 350.122674275 152.708866066 c 1
 349.823085464 152.535898385 l 1
 275.641981983 170.235249391 l 1
 280.176914536 14.5358983849 l 1
 217.823085464 -21.4641016151 l 1
 213.823085464 -14.5358983849 l 1
 207.971128885 186.381277498 l 1
 123.405201619 206.558411022 l 1
 123.458924087 166.538703989 123.495667011 129.030684323 123.495667011 97.945190342 c 0
 123.495667011 51.0475913698 123.412037533 18.7681123311 123.176914536 14.5358983849 c 1
 60.8230854638 -21.4641016151 l 1
 56.8230854638 -14.5358983849 l 1
 57.0582084608 -10.3036844387 57.1418379387 21.9757946001 57.1418379387 68.8733935723 c 0
336.883253905 212.474518889 m 1
 325.593251956 258.56572958 313.39681728 294.499099164 295.80252116 325.997999867 c 0
 263.642632313 379.904947092 214.011883101 421.584722851 123.000097831 481.504506763 c 1
 123.020557135 454.991295198 123.020557135 454.991295198 123.321533952 263.42959593 c 1
 336.883253905 212.474518889 l 1
EndSplineSet
Validated: 524289
EndChar

StartChar: runeThorn
Encoding: 5798 5798 43
Width: 391
GlyphClass: 2
Flags: HMW
VStem: 57.5428 66.5622
LayerCount: 2
Back
SplineSet
92 416 m 5
 301 273 l 5
 93 123 l 1029
89 542.875 m 12
 89 542 93 0 89 0 c 1028
EndSplineSet
Fore
SplineSet
57.6008632415 126.015027541 m 0
 57.6008632415 290.112381634 55.8230854638 524.315821597 55.8230854638 528.339101615 c 1
 118.176914536 564.339101615 l 1
 122.176914536 557.410898385 l 2
 122.176914536 556.199252069 122.51178454 513.025074918 122.953192432 436.248753581 c 1
 330.176914536 294.464101615 l 1
 334.176914536 287.535898385 l 1
 126.176914536 137.535898385 l 1
 123.945963475 136.247858189 l 1
 123.878510175 66.0121382722 123.410301311 15.2406665493 122.202210022 14.5431747185 c 0
 122.202210022 14.5431747185 59.8483809497 -21.4568252815 59.8230854638 -21.4641016151 c 2
 59.8230854638 -21.4641016151 55.8230854638 -14.5358983849 55.8734973573 -14.5067930646 c 0
 57.1676451714 -13.0017471155 57.6008632415 46.707337721 57.6008632415 126.015027541 c 0
123.954692314 155.086824311 m 0
 123.954692314 154.962119112 123.954691243 154.83746237 123.954689099 154.712854237 c 1
 264.840683741 256.313331142 l 1
 123.390948041 353.094729253 l 1
 123.704028437 287.079688178 123.954692314 215.413291577 123.954692314 155.086824311 c 0
EndSplineSet
Validated: 524289
EndChar

StartChar: runeOs
Encoding: 5801 5801 44
Width: 531
GlyphClass: 2
Flags: HMW
VStem: 57.5428 66.3538
LayerCount: 2
Back
SplineSet
92 339 m 28
 353 158 l 5
 353 158 441 341.75 441 340.875 c 1028
89 0 m 4
 93 0 89 542 89 542.875 c 28
 353 360 l 29
 353 360 441 543.75 441 542.875 c 1028
EndSplineSet
Fore
SplineSet
57.6008632415 126.015027541 m 0
 57.6008632415 290.112381634 55.8230854638 524.315821597 55.8230854638 528.339101615 c 1
 118.176914536 564.339101615 l 1
 348.319128523 404.917672134 l 1
 373.887825474 458.228859342 407.465537386 528.136971541 407.820251309 528.34176572 c 2
 470.176468947 564.341578557 l 1
 470.176468947 564.341578557 474.176468947 557.413375327 474.176914536 557.410898385 c 0
 473.024850655 555.880310451 386.176914536 374.535898385 386.176914536 374.535898385 c 1
 323.823085464 338.535898385 l 1
 122.704676293 477.852296404 l 1
 122.911674599 444.437314324 123.150153331 403.082923195 123.362955782 358.948111326 c 1
 348.328612062 202.937445476 l 1
 373.89612739 256.246143752 407.46558124 326.13699686 407.820251309 326.34176572 c 2
 470.176468947 362.341578557 l 1
 474.176914536 355.410898385 l 1
 473.024850655 353.880310451 386.176914536 172.535898385 386.176914536 172.535898385 c 1
 323.823085464 136.535898385 l 1
 123.714041201 275.308837126 l 1
 123.859877605 233.580638706 123.954692314 192.189042547 123.954692314 155.086824311 c 0
 123.954692314 75.2682665873 123.515875038 15.3016195693 122.202210022 14.5431747185 c 2
 59.8483809497 -21.4568252815 l 2
 59.8230854638 -21.4641016151 55.8230854638 -14.5358983849 55.8230854638 -14.5358983849 c 1
 57.0403895529 -13.8330875413 57.6008632415 34.6555180667 57.6008632415 126.015027541 c 0
EndSplineSet
Validated: 524289
EndChar

StartChar: runeAs
Encoding: 5802 5802 45
Width: 531
GlyphClass: 2
Flags: HMW
VStem: 57.5428 66.3538
LayerCount: 2
Back
SplineSet
92 339 m 24
 353 158 l 1025
89 0 m 0
 93 0 89 542 89 542.875 c 24
 353 360 l 25
 353 360 441 543.75 441 542.875 c 1024
EndSplineSet
Fore
SplineSet
57.6008632415 126.015027541 m 0
 57.6008632415 290.112381634 55.8230854638 524.315821597 55.8230854638 528.339101615 c 1
 118.176914536 564.339101615 l 1
 348.319128523 404.917672134 l 1
 373.887825474 458.228859342 407.465537386 528.136971541 407.820251309 528.34176572 c 2
 470.176468947 564.341578557 l 1
 470.176468947 564.341578557 474.176468947 557.413375327 474.176914536 557.410898385 c 0
 473.024850655 555.880310451 386.176914536 374.535898385 386.176914536 374.535898385 c 1
 323.823085464 338.535898385 l 1
 122.704676293 477.852296404 l 1
 122.911674599 444.437314324 123.150153331 403.082923195 123.362955782 358.948111326 c 1
 382.176914536 179.464101615 l 1
 386.176914536 172.535898385 l 1
 323.823085464 136.535898385 l 1
 123.714041201 275.308837126 l 1
 123.859877605 233.580638706 123.954692314 192.189042547 123.954692314 155.086824311 c 0
 123.954692314 75.2682665873 123.515875038 15.3016195693 122.202210022 14.5431747185 c 2
 59.8483809497 -21.4568252815 l 2
 59.8230854638 -21.4641016151 55.8230854638 -14.5358983849 55.8230854638 -14.5358983849 c 1
 57.0403895529 -13.8330875413 57.6008632415 34.6555180667 57.6008632415 126.015027541 c 0
EndSplineSet
Validated: 524289
EndChar

StartChar: uni0105
Encoding: 5803 5803 46
Width: 449
GlyphClass: 2
Flags: HMW
VStem: 57.5428 66.3538
LayerCount: 2
Back
SplineSet
92 339 m 24
 353 158 l 1025
89 0 m 4
 93 0 89 542 89 542.875 c 28
 353 360 l 1053
EndSplineSet
Fore
SplineSet
57.6008632415 126.015027541 m 0
 57.6008632415 290.112381634 55.8230854638 524.315821597 55.8230854638 528.339101615 c 1
 118.176914536 564.339101615 l 1
 382.176914536 381.464101615 l 1
 386.176914536 374.535898385 l 1
 323.823085464 338.535898385 l 1
 122.704676293 477.852296404 l 1
 122.911674599 444.437314324 123.150153331 403.082923195 123.362955782 358.948111326 c 1
 382.176914536 179.464101615 l 1
 386.176914536 172.535898385 l 1
 323.823085464 136.535898385 l 1
 123.714041201 275.308837126 l 1
 123.859877605 233.580638706 123.954692314 192.189042547 123.954692314 155.086824311 c 0
 123.954692314 75.2682665873 123.515875038 15.3016195693 122.202210022 14.5431747185 c 2
 59.8483809497 -21.4568252815 l 2
 59.8230854638 -21.4641016151 55.8230854638 -14.5358983849 55.8230854638 -14.5358983849 c 1
 57.0403895529 -13.8330875413 57.6008632415 34.6555180667 57.6008632415 126.015027541 c 0
EndSplineSet
Validated: 524289
EndChar

StartChar: runeRad
Encoding: 5809 5809 47
Width: 427
GlyphClass: 2
Flags: HMW
VStem: 57.9031 66.3538
LayerCount: 2
Back
SplineSet
89 0 m 4
 93 0 89 542 89 542.875 c 28
 335 386 l 29
 149 258 l 29
 333 65 l 1053
EndSplineSet
Fore
SplineSet
298.521575708 369.192094901 m 1
 122.683100795 481.324862185 l 1
 123.060837188 420.70746231 123.552537102 332.449020203 123.799200365 248.953040902 c 1
 298.521575708 369.192094901 l 1
57.6008632415 126.015027541 m 0
 57.6008632415 290.112381634 55.8230854638 524.315821597 55.8230854638 528.339101615 c 1
 118.176914536 564.339101615 l 1
 364.176914536 407.464101615 l 1
 368.176914536 400.535898385 l 1
 183.749981439 273.618439049 l 1
 362.176914536 86.4641016151 l 1
 366.176914536 79.5358983849 l 1
 303.823085464 43.5358983849 l 1
 123.845184859 232.317065867 l 1
 123.91410077 205.47546779 123.954692314 179.362973783 123.954692314 155.086824311 c 0
 123.954692314 75.2682665873 123.515875038 15.3016195693 122.202210022 14.5431747185 c 2
 122.202210022 14.5431747185 59.8483809497 -21.4568252815 59.8230854638 -21.4641016151 c 2
 59.8230854638 -21.4641016151 55.8230854638 -14.5358983849 55.8734973573 -14.5067930646 c 0
 57.1676451714 -13.0017471155 57.6008632415 46.707337721 57.6008632415 126.015027541 c 0
EndSplineSet
Validated: 524289
EndChar

StartChar: runeKauna
Encoding: 5810 5810 48
Width: 549
GlyphClass: 2
Flags: W
HStem: -21.4668 21G<425.15 460.461>
LayerCount: 2
Back
SplineSet
455 0 m 12
 455 -1 85 274 85 274 c 29
 85 274 471 542.75 471 542.875 c 12
 471 543 491 525 491 525 c 1053
EndSplineSet
Fore
SplineSet
446.53225393 517.257509471 m 1
 120.92432095 290.44965201 l 1
 170.990133225 253.244469389 482.786056692 21.57765615 484.172277967 21.4614246908 c 1
 488.175755394 14.5336963089 l 1
 425.819433773 -21.4668222913 l 2
 424.481291464 -21.4668222913 55.8230854638 252.535898385 55.8230854638 252.535898385 c 2
 51.8230854638 259.464101615 l 1
 437.823352418 528.33965124 l 1
 500.177631261 564.339749656 l 2
 500.31508338 564.339749656 520.176914536 546.464101615 520.176914536 546.464101615 c 1
 524.176914536 539.535898385 l 1
 461.823085464 503.535898385 l 1
 461.823085464 503.535898385 452.444830258 511.97632807 446.53225393 517.257509471 c 1
EndSplineSet
Validated: 524289
EndChar

StartChar: runeCen
Encoding: 5811 5811 49
Width: 449
GlyphClass: 2
Flags: HMW
VStem: 59.9735 66.3538
LayerCount: 2
Back
SplineSet
357 0 m 0
 357 -1 93 165 93 165 c 1049
89 0 m 0
 93 0 89 542 89 542.875 c 1048
EndSplineSet
Fore
SplineSet
57.6008632415 126.015027541 m 0
 57.6008632415 290.112381634 55.8230854638 524.315821597 55.8230854638 528.339101615 c 1
 118.176914536 564.339101615 l 1
 122.176914536 557.410898385 l 1
 122.176914536 553.69033156 123.739271941 348.322183247 123.935598259 185.358372487 c 1
 146.783650541 170.993970902 384.602144896 21.5018912861 386.169135853 21.45961059 c 1
 390.174969865 14.5324251738 l 1
 327.816808701 -21.4700759601 l 2
 326.729302258 -21.4700759601 201.451613878 57.0919795428 123.886611683 105.798202126 c 1
 123.719817724 51.7893636879 123.227438712 15.1350907784 122.202210022 14.5431747185 c 2
 59.8483809497 -21.4568252815 l 2
 59.8230854638 -21.4641016151 55.8230854638 -14.5358983849 55.8230854638 -14.5358983849 c 1
 57.0403895529 -13.8330875413 57.6008632415 34.6555180667 57.6008632415 126.015027541 c 0
EndSplineSet
Validated: 524289
EndChar

StartChar: runeKaun
Encoding: 5812 5812 50
Width: 454
GlyphClass: 2
Flags: HMW
VStem: 57.5428 67.4 331.455 66.3538
LayerCount: 2
Back
SplineSet
361 542.875 m 1
 400 492.875 294 422.875 94 307.875 c 1033
89 0 m 0
 93 0 89 542 89 542.875 c 1048
EndSplineSet
Fore
SplineSet
57.6008632415 126.015027541 m 0
 57.6008632415 290.112381634 55.8230854638 524.315821597 55.8230854638 528.339101615 c 1
 118.176914536 564.339101615 l 1
 122.176914536 557.410898385 l 1
 122.176914536 555.134552333 122.943629635 455.408876571 123.497703071 329.780125014 c 1
 257.819051999 409.012674804 335.818990454 464.363870091 335.818990454 506.460440489 c 0
 335.818990454 514.489787919 335.217563527 515.531489915 327.823085464 528.339101615 c 1
 390.176914536 564.339101615 l 1
 392.44982999 561.425107444 402.172819131 548.218757617 402.172819131 535.532237091 c 0
 402.172819131 483.753684348 281.232874851 411.338074646 123.538864799 320.293395493 c 1
 123.7793818 263.918920731 123.954692314 205.53738522 123.954692314 155.086824311 c 0
 123.954692314 75.2682665873 123.515875038 15.3016195693 122.202210022 14.5431747185 c 2
 59.8483809497 -21.4568252815 l 2
 59.8230854638 -21.4641016151 55.8230854638 -14.5358983849 55.8230854638 -14.5358983849 c 1
 57.0403895529 -13.8330875413 57.6008632415 34.6555180667 57.6008632415 126.015027541 c 0
EndSplineSet
Validated: 524289
EndChar

StartChar: runeGyfu
Encoding: 5815 5815 51
Width: 640
GlyphClass: 2
Flags: W
HStem: -21.4641 21G<44.8231 98.4641 503.913 555.464>
LayerCount: 2
Back
SplineSet
91 542.875 m 12
 91 543 550 1 550 0 c 1028
570 528 m 29
 570 528 553 543 553 542.875 c 4
 553 542.75 93 0 93 0 c 5
 93 -8.32667268469e-17 74 15 74 15 c 1053
EndSplineSet
Fore
SplineSet
599.176914536 549.464101615 m 1
 603.176914536 542.535898385 l 1
 545.218999195 509.073880361 l 1
 355.855457858 285.594027093 l 1
 579.176914536 21.4641016151 l 1
 583.176914536 14.5358983849 l 1
 520.823085464 -21.4641016151 l 1
 308.479181578 229.68229669 l 1
 126.176914536 14.5358983849 l 1
 63.8230854638 -21.4641016151 l 1
 44.8230854638 -6.46410161514 l 1
 40.8230854638 0.464101615138 l 1
 102.903840029 36.3064419746 l 1
 287.641763747 254.327423498 l 1
 61.8230854638 521.410898385 l 1
 57.8230854638 528.339101615 l 1
 120.176914536 564.339101615 l 1
 335.018027955 310.239168178 l 1
 519.823406823 528.339757816 l 1
 582.177790191 564.339878547 l 2
 582.31770068 564.339878547 599.176914536 549.464101615 599.176914536 549.464101615 c 1
EndSplineSet
Validated: 524289
EndChar

StartChar: runeGar
Encoding: 5816 5816 52
Width: 636
GlyphClass: 2
Flags: W
HStem: -21.4641 21G<44.8231 98.4641 503.913 555.464>
LayerCount: 2
Back
SplineSet
321.098632812 501.299804688 m 1
 551.46875 270.931640625 l 1
 321.098632812 40.5634765625 l 1
 90.732421875 270.931640625 l 1
 321.098632812 501.299804688 l 1
91 542.875 m 8
 91 543 550 1 550 0 c 1024
570 528 m 25
 570 528 553 543 553 542.875 c 0
 553 542.75 93 0 93 0 c 1
 93 -8.32667268469e-17 74 15 74 15 c 1049
EndSplineSet
Fore
SplineSet
599.176914536 549.464101615 m 1
 603.176914536 542.535898385 l 1
 545.218999195 509.073880361 l 1
 462.081878542 410.958523026 l 1
 580.645664536 292.39574224 l 1
 584.645664536 285.46753901 l 1
 460.731096717 161.554021764 l 1
 579.176914536 21.4641016151 l 1
 583.176914536 14.5358983849 l 1
 520.823085464 -21.4641016151 l 1
 409.444179863 110.267539731 l 1
 354.275547349 55.0993749474 l 1
 291.921718276 19.0993749474 l 1
 204.294477232 106.727358925 l 1
 126.176914536 14.5358983849 l 1
 63.8230854638 -21.4641016151 l 1
 44.8230854638 -6.46410161514 l 1
 40.8230854638 0.464101615138 l 1
 102.903840029 36.3064419746 l 1
 181.710651609 129.311376022 l 1
 61.5555073388 249.46753901 l 1
 57.5555073388 256.39574224 l 1
 181.281757277 380.123041172 l 1
 61.8230854638 521.410898385 l 1
 57.8230854638 528.339101615 l 1
 120.176914536 564.339101615 l 1
 232.56827571 431.409994431 l 1
 287.921718276 486.763906303 l 1
 350.275547349 522.763906303 l 1
 439.497806081 433.542404015 l 1
 519.823406823 528.339757816 l 1
 582.177790191 564.339878547 l 2
 582.31770068 564.339878547 599.176914536 549.464101615 599.176914536 549.464101615 c 1
308.479181578 229.68229669 m 1
 250.750696861 161.553272471 l 1
 337.098897138 75.2043401049 l 1
 392.363944226 130.468918645 l 1
 308.479181578 229.68229669 l 1
287.641763747 254.327423498 m 1
 198.362375694 359.921209531 l 1
 125.373408657 286.931623668 l 1
 228.166858409 184.137302397 l 1
 287.641763747 254.327423498 l 1
355.855457858 285.594027093 m 1
 443.65086108 181.755400678 l 1
 516.827704479 254.931623669 l 1
 415.625751449 356.132718687 l 1
 355.855457858 285.594027093 l 1
335.018027955 310.239168178 m 1
 393.041691817 378.716586848 l 1
 305.09889714 466.658635927 l 1
 249.648894128 411.20816279 l 1
 335.018027955 310.239168178 l 1
EndSplineSet
Validated: 524289
EndChar

StartChar: runeWynn
Encoding: 5817 5817 53
Width: 391
GlyphClass: 2
Flags: HMW
VStem: 57.9031 66.3538
LayerCount: 2
Back
SplineSet
92 251 m 5
 298 399.875 l 5
 89 542.875 l 13
 89 542 93 0 89 0 c 1024
EndSplineSet
Fore
SplineSet
261.843948979 383.186097032 m 1
 122.701350461 478.388927597 l 1
 123.024472283 426.276264763 123.425302829 354.686636677 123.685367024 283.33969466 c 1
 261.843948979 383.186097032 l 1
57.6008632415 126.015027541 m 0
 57.6008632415 290.112381634 55.8230854638 524.315821597 55.8230854638 528.339101615 c 1
 118.176914536 564.339101615 l 1
 327.176914536 421.339101615 l 1
 331.176914536 414.410898385 l 1
 261.994831921 364.551058083 193.132583997 314.371383091 123.749984327 264.712059844 c 1
 123.875263576 226.597514791 123.954692314 189.045508049 123.954692314 155.086824311 c 0
 123.954692314 75.2682665873 123.515875038 15.3016195693 122.202210022 14.5431747185 c 0
 122.202210022 14.5431747185 59.8483809497 -21.4568252815 59.8230854638 -21.4641016151 c 2
 59.8230854638 -21.4641016151 55.8230854638 -14.5358983849 55.8734973573 -14.5067930646 c 0
 57.1676451714 -13.0017471155 57.6008632415 46.707337721 57.6008632415 126.015027541 c 0
EndSplineSet
Validated: 524289
EndChar

StartChar: runeHaegl
Encoding: 5819 5819 54
Width: 544
GlyphClass: 2
Flags: HMW
VStem: 55.1136 66.3538 423.314 66.3538
LayerCount: 2
Back
SplineSet
92 291 m 1
 453 83 l 1025
92 462 m 1
 453 254 l 1025
455 542.875 m 9
 455 542 459 0 455 0 c 1024
89 542.875 m 13
 89 542 93 0 89 0 c 1028
EndSplineSet
Fore
SplineSet
488.176914536 557.410898385 m 1
 488.176914536 553.387618366 489.954692314 319.184178405 489.954692314 155.086824311 c 0
 489.954692314 75.2682665873 489.515875038 15.3016195693 488.202210022 14.5431747185 c 2
 488.202210022 14.5431747185 425.84838095 -21.4568252815 425.823085464 -21.4641016151 c 2
 425.823085464 -21.4641016151 421.823085464 -14.5358983849 421.873497357 -14.5067930646 c 0
 422.784533801 -13.4472914424 423.268920542 16.4563011028 423.475870597 61.735955704 c 1
 123.839837901 234.379431606 l 1
 123.911996381 206.81331698 123.954692314 179.984297527 123.954692314 155.086824311 c 0
 123.954692314 75.2682665873 123.515875038 15.3016195693 122.202210022 14.5431747185 c 0
 122.202210022 14.5431747185 59.8483809497 -21.4568252815 59.8230854638 -21.4641016151 c 2
 59.8230854638 -21.4641016151 55.8230854638 -14.5358983849 55.8734973573 -14.5067930646 c 0
 57.1676451714 -13.0017471155 57.6008632415 46.707337721 57.6008632415 126.015027541 c 0
 57.6008632415 290.112381634 55.8230854638 524.315821597 55.8230854638 528.339101615 c 1
 118.176914536 564.339101615 l 1
 122.176914536 557.410898385 l 2
 122.176914536 556.662781387 122.356916801 533.557638682 122.67514084 482.600857651 c 1
 423.104529119 309.500268282 l 1
 422.550025653 431.66222271 421.823085464 526.150675764 421.823085464 528.339101615 c 1
 484.176914536 564.339101615 l 1
 488.176914536 557.410898385 l 1
423.405484928 232.776510328 m 1
 123.123109522 405.792394218 l 1
 123.284185882 375.992316255 123.442742337 343.78172944 123.577503749 311.080936639 c 1
 423.597582267 138.216182258 l 1
 423.581882444 167.997747988 423.510814574 200.152877617 423.405484928 232.776510328 c 1
EndSplineSet
Validated: 524289
EndChar

StartChar: runeNyd
Encoding: 5822 5822 55
Width: 449
GlyphClass: 2
Flags: HMW
VStem: 191.193 66.3538
LayerCount: 2
Back
SplineSet
94 345 m 1
 357 176 l 1025
224 542.875 m 9
 224 542 228 0 224 0 c 1024
EndSplineSet
Fore
SplineSet
192.045694347 322.210018771 m 1
 191.493911383 439.169203149 190.823085464 526.277774529 190.823085464 528.339101615 c 1
 253.176914536 564.339101615 l 1
 257.176914536 557.410898385 l 1
 257.176914536 554.630539144 258.188031011 422.620783668 258.699658848 279.379144244 c 1
 386.176914536 197.464101615 l 1
 390.176914536 190.535898385 l 1
 327.823085464 154.535898385 l 1
 258.91636825 198.814359256 l 1
 258.941127711 183.767453478 258.954692314 169.120310391 258.954692314 155.086824311 c 0
 258.954692314 75.2682665873 258.515875038 15.3016195693 257.202210022 14.5431747185 c 2
 257.202210022 14.5431747185 194.84838095 -21.4568252815 194.823085464 -21.4641016151 c 2
 194.823085464 -21.4641016151 190.823085464 -14.5358983849 190.873497357 -14.5067930646 c 0
 192.167645171 -13.0017471155 192.600863242 46.707337721 192.600863242 126.015027541 c 0
 192.600863242 161.734156534 192.512985743 201.428826934 192.376306538 241.572041497 c 1
 64.8230854638 323.535898385 l 1
 60.8230854638 330.464101615 l 1
 123.176914536 366.464101615 l 1
 192.045694347 322.210018771 l 1
EndSplineSet
Validated: 524289
EndChar

StartChar: runeIs
Encoding: 5825 5825 56
Width: 181
GlyphClass: 2
Flags: HMW
VStem: 57.5433 66.3538
LayerCount: 2
Back
SplineSet
90 542.875 m 12
 90 542 94 0 90 0 c 1028
EndSplineSet
Fore
SplineSet
123.176914536 557.410898385 m 1
 123.176914536 553.387618366 124.954692314 319.184178404 124.954692314 155.086824311 c 0
 124.954692314 75.2682665873 124.515875038 15.3016195693 123.202210022 14.5431747185 c 0
 123.202210022 14.5431747185 60.8483809497 -21.4568252815 60.8230854638 -21.4641016151 c 2
 60.8230854638 -21.4641016151 56.8230854638 -14.5358983849 56.8734973573 -14.5067930646 c 0
 58.1676451714 -13.0017471155 58.6008632415 46.707337721 58.6008632415 126.015027541 c 0
 58.6008632415 290.112381634 56.8230854638 524.315821597 56.8230854638 528.339101615 c 1
 119.176914536 564.339101615 l 1
 123.176914536 557.410898385 l 1
EndSplineSet
Validated: 524289
EndChar

StartChar: runeGer
Encoding: 5828 5828 57
Width: 602
GlyphClass: 2
Flags: HMW
VStem: 268.503 66.3538
LayerCount: 2
Back
SplineSet
301 542.875 m 5
 509 396 l 5
 302 244 l 5
 91 396 l 5
 301 542.875 l 5
301 542.875 m 12
 301 542 305 0 301 0 c 1028
EndSplineSet
Fore
SplineSet
334.709923614 477.004627455 m 1
 335.038762385 423.844497641 335.445433042 350.858924558 335.702529843 278.573645314 c 1
 472.974154295 379.372132834 l 1
 334.709923614 477.004627455 l 1
269.101431407 310.181985196 m 1
 268.704188472 397.509580967 268.177597852 477.178438996 267.943787284 511.087133789 c 1
 127.027127599 412.529350973 l 1
 269.101431407 310.181985196 l 1
335.954692314 155.086824311 m 0
 335.954692314 75.2682665873 335.515875038 15.3016195693 334.202210022 14.5431747185 c 0
 334.202210022 14.5431747185 271.84838095 -21.4568252815 271.823085464 -21.4641016151 c 2
 271.823085464 -21.4641016151 267.823085464 -14.5358983849 267.873497357 -14.5067930646 c 0
 269.167645171 -13.0017471155 269.600863242 46.707337721 269.600863242 126.015027541 c 0
 269.600863242 156.802694487 269.535575819 190.543937231 269.430023753 224.980189286 c 1
 61.8230854638 374.535898385 l 1
 57.8230854638 381.464101615 l 1
 267.823085464 528.339101615 l 1
 330.176914536 564.339101615 l 1
 538.176914536 417.464101615 l 1
 542.176914536 410.535898385 l 1
 335.768520563 258.970314405 l 1
 335.883046426 222.832203121 335.954692314 187.338898658 335.954692314 155.086824311 c 0
EndSplineSet
Validated: 524289
EndChar

StartChar: runeEoh
Encoding: 5831 5831 58
Width: 718
GlyphClass: 2
Flags: HMW
VStem: 325.765 66.2415
LayerCount: 2
Back
SplineSet
626 373.875 m 1
 626 373.875 463 476.875 358 542.875 c 25
 358 542 358 0 358 0 c 1
 358 0 195 103 90 169 c 1049
EndSplineSet
Fore
SplineSet
655.176914536 395.339101615 m 1
 659.176914536 388.410898385 l 1
 596.823085464 352.410898385 l 1
 391.176914536 482.090759903 l 1
 391.176914536 14.5358983849 l 1
 328.823085464 -21.4641016151 l 1
 60.8230854638 147.535898385 l 1
 56.8230854638 154.464101615 l 1
 119.176914536 190.464101615 l 1
 324.823085464 60.7842400974 l 1
 324.823085464 528.339101615 l 1
 387.176914536 564.339101615 l 1
 655.176914536 395.339101615 l 1
EndSplineSet
Validated: 524289
EndChar

StartChar: runePeorth
Encoding: 5832 5832 59
Width: 550
GlyphClass: 2
Flags: HMW
VStem: 59.9735 66.3538
LayerCount: 2
Back
SplineSet
456 542.875 m 5
 360 371.875 l 29
 93 542.875 l 12
 93 542.875 97 10 93 0 c 4
 360 171 l 29
 456 0 l 1029
EndSplineSet
Fore
SplineSet
127.954692314 159.7257132 m 0
 127.954692314 100.461449309 127.713362415 51.5115247629 127.052871417 28.5213802593 c 1
 326.823085464 156.464101615 l 1
 389.176914536 192.464101615 l 1
 422.654427333 133.298880002 455.817527399 73.819245658 489.176914536 14.5358983849 c 1
 426.823085464 -21.4641016151 l 1
 395.19352329 34.4098664899 363.877964363 90.5978378423 332.366496661 146.58990042 c 1
 126.176914536 14.5358983849 l 1
 63.8230854638 -21.4641016151 l 1
 59.8230854638 -14.5358983849 l 1
 61.1564187971 -11.2025650515 61.6008632415 50.227990504 61.6008632415 130.65391643 c 0
 61.6008632415 291.505768282 59.8230854638 528.339101615 59.8230854638 528.339101615 c 1
 122.176914536 564.339101615 l 1
 358.178948046 413.191731839 l 1
 422.823085464 528.339101615 l 1
 485.176914536 564.339101615 l 1
 489.176914536 557.410898385 l 1
 393.176914536 386.410898385 l 1
 330.823085464 350.410898385 l 1
 126.694528222 481.144918191 l 1
 127.219355234 398.053745297 127.954692314 263.175729054 127.954692314 159.7257132 c 0
EndSplineSet
Validated: 524289
EndChar

StartChar: runeEolhx
Encoding: 5833 5833 60
Width: 615
GlyphClass: 2
Flags: HMW
VStem: 275.02 66.3538
LayerCount: 2
Back
SplineSet
84.33984375 542.875 m 5
 308 371.8515625 l 5
 527.419921875 542.875 l 5
 511 560 l 1053
301 542.875 m 12
 301 542 305 0 301 0 c 1028
EndSplineSet
Fore
SplineSet
268.368458955 445.930572375 m 1
 268.026981468 501.323402781 267.823085464 527.514998277 267.823085464 528.339101615 c 2
 330.176914536 564.339101615 l 1
 334.176914536 557.410898385 l 2
 334.176914536 555.879977306 334.630254632 497.266836499 335.131045984 404.321763783 c 1
 492.730452635 527.160164431 l 1
 481.823085464 538.535898385 l 1
 477.823085464 545.464101615 l 1
 540.176914536 581.464101615 l 1
 556.596836411 564.339101615 l 1
 560.596836411 557.410898385 l 1
 341.176914536 386.387460885 l 1
 335.243412661 382.96175198 l 1
 335.621385561 309.293331745 335.954692314 224.650748704 335.954692314 155.086824311 c 0
 335.954692314 75.2682665873 335.515875038 15.3016195693 334.202210022 14.5431747185 c 0
 334.202210022 14.5431747185 271.84838095 -21.4568252815 271.823085464 -21.4641016151 c 2
 271.823085464 -21.4641016151 267.823085464 -14.5358983849 267.873497357 -14.5067930646 c 0
 269.167645171 -13.0017471155 269.600863242 46.707337721 269.600863242 126.015027541 c 0
 269.600863242 196.876099919 269.255010354 283.383412808 268.868394857 357.999390678 c 1
 55.1629292138 521.410898385 l 1
 51.1629292138 528.339101615 l 1
 113.516758286 564.339101615 l 1
 268.368458955 445.930572375 l 1
EndSplineSet
Validated: 524289
EndChar

StartChar: runeSowilo
Encoding: 5834 5834 61
Width: 486
GlyphClass: 2
Flags: HMW
HStem: -17.3627 42.9282 519.404 42.9282
LayerCount: 2
Back
SplineSet
411 522 m 25
 396 542.875 l 16
 396 542 92 364 92 364 c 1
 383 186 l 1
 87 -2 l 9
 76 14 l 1049
EndSplineSet
Fore
SplineSet
425.176914536 564.339101615 m 1
 431.515931172 555.077050507 438.69880336 546.658854952 444.176914536 536.535898385 c 1
 381.823085464 500.535898385 l 1
 367.364979253 520.656762861 l 1
 286.689353799 473.134590612 152.914460828 394.779628454 128.919968147 380.727800781 c 1
 412.176914536 207.464101615 l 1
 416.176914536 200.535898385 l 1
 120.176914536 12.5358983849 l 1
 57.8230854638 -23.4641016151 l 1
 52.7605308598 -15.883921809 47.2366942572 -8.76502400154 42.8230854638 -0.535898384862 c 1
 105.176914536 35.4641016151 l 1
 114.45267607 21.9720848382 l 1
 346.228764321 169.18122197 l 1
 62.8230854638 342.535898385 l 1
 58.8230854638 349.464101615 l 1
 58.8230854638 349.464101615 362.823085464 527.464101615 362.823085464 528.339101615 c 2
 425.176914536 564.339101615 l 1
EndSplineSet
Validated: 524289
EndChar

StartChar: runeSigel
Encoding: 5835 5835 62
Width: 468
GlyphClass: 2
Flags: HMW
VStem: 57.5433 66.3538 345.318 66.3517
LayerCount: 2
Back
SplineSet
90 542.875 m 4
 90 544 89 194 89 194 c 29
 378 346 l 5
 378 0 l 1053
EndSplineSet
Fore
SplineSet
56.8230854638 528.339101615 m 1
 119.176914536 564.339101615 l 1
 123.176914536 557.410898385 l 1
 122.20284258 217.581544739 l 1
 407.176914536 367.464101615 l 1
 411.176914536 360.535898385 l 1
 411.176914536 14.5358983849 l 1
 348.823085464 -21.4641016151 l 1
 344.823085464 -14.5358983849 l 1
 344.823085464 322.432092156 l 1
 59.8230854638 172.535898385 l 1
 55.8230854638 179.464101615 l 1
 56.8230854638 528.339101615 l 1
EndSplineSet
Validated: 524289
EndChar

StartChar: runeTir
Encoding: 5839 5839 63
Width: 596
GlyphClass: 2
Flags: HMW
VStem: 263.283 66.3538
LayerCount: 2
Back
SplineSet
510 379 m 1
 301 542.875 l 1
 86 376 l 1
 102.419921875 358.875 l 1049
301 542.875 m 8
 301 542 305 0 301 0 c 1024
EndSplineSet
Fore
SplineSet
335.954692314 155.086824311 m 0
 335.954692314 75.2682665873 335.515875038 15.3016195693 334.202210022 14.5431747185 c 0
 334.202210022 14.5431747185 271.84838095 -21.4568252815 271.823085464 -21.4641016151 c 2
 271.823085464 -21.4641016151 267.823085464 -14.5358983849 267.873497357 -14.5067930646 c 0
 269.167645171 -13.0017471155 269.600863242 46.707337721 269.600863242 126.015027541 c 0
 269.600863242 257.414676427 268.4116373 442.614411379 267.978490943 506.030145189 c 1
 120.692189539 391.71199846 l 1
 131.596836411 380.339101615 l 1
 135.596836411 373.410898385 l 1
 73.2430073388 337.410898385 l 1
 56.8230854638 354.535898385 l 1
 52.8230854638 361.464101615 l 1
 267.823085464 528.339101615 l 1
 330.176914536 564.339101615 l 1
 539.176914536 400.464101615 l 1
 543.176914536 393.535898385 l 1
 480.823085464 357.535898385 l 1
 334.740269883 472.078106056 l 1
 335.261007831 387.180666318 335.954692314 255.442746833 335.954692314 155.086824311 c 0
EndSplineSet
Validated: 524289
EndChar

StartChar: runeBeorc
Encoding: 5842 5842 64
Width: 388
GlyphClass: 2
Flags: HMW
VStem: 55.9227 66.381
LayerCount: 2
Back
SplineSet
87 542.875 m 1
 298 396 l 1
 94 271 l 1
 296 150 l 1
 87 0 l 1
 91 0 87 542 87 542.875 c 1024
89.0029296875 270.861328125 m 1032
EndSplineSet
Fore
SplineSet
121.646508621 293.733356001 m 1
 261.65703124 379.524117409 l 1
 120.70599906 477.63872808 l 1
 121.012581742 428.130162435 121.387864729 361.252101258 121.646508621 293.733356001 c 1
121.954692314 155.086824311 m 0
 121.954692314 102.077054078 121.761144706 57.823296983 121.246325355 33.8539867044 c 1
 259.381057653 132.993746727 l 1
 121.885078328 215.355199689 l 1
 121.929486809 194.486648602 121.954692314 174.216593175 121.954692314 155.086824311 c 0
55.6008632415 126.015027541 m 0
 55.6008632415 290.112381634 53.8230854638 524.315821597 53.8230854638 528.339101615 c 1
 116.176914536 564.339101615 l 1
 327.176914536 417.464101615 l 1
 331.176914536 410.535898385 l 1
 130.917079528 287.82766615 l 1
 325.176914536 171.464101615 l 1
 329.176914536 164.535898385 l 1
 329.176914536 164.535898385 120.239367098 14.5807207979 120.202210022 14.5431747185 c 2
 120.202210022 14.5431747185 57.8483809497 -21.4568252815 57.8230854638 -21.4641016151 c 2
 57.8230854638 -21.4641016151 53.8230854638 -14.5358983849 53.8855380259 -14.4910759719 c 0
 55.1703336402 -12.6304379612 55.6008632415 46.9538049017 55.6008632415 126.015027541 c 0
EndSplineSet
Validated: 524289
EndChar

StartChar: runeOpenP
Encoding: 5845 5845 65
Width: 462
GlyphClass: 2
Flags: HMW
HStem: 185.442 56.5835
VStem: 58.4783 66.3538
LayerCount: 2
Back
SplineSet
94 322.875 m 0
 254 334.875 345 448.875 370 542.875 c 1024
94 220 m 0
 254 208 345 94 370 0 c 1024
90 542.875 m 12
 90 542 94 0 90 0 c 1028
EndSplineSet
Fore
SplineSet
123.176914536 557.410898385 m 1
 123.176914536 555.281106396 123.877767158 464.224867306 124.431498494 344.435394696 c 1
 162.651126175 347.435949251 196.916222622 356.264699733 227.267956147 369.247463609 c 1
 286.088741658 413.35341913 322.415721842 474.167414397 336.823085464 528.339101615 c 1
 399.176914536 564.339101615 l 1
 403.176914536 557.410898385 l 1
 386.456381227 494.541693141 340.21259759 422.726048403 263.548028189 378.463738622 c 2
 201.194199116 342.463738622 l 2
 178.361383948 329.281206639 152.830208419 318.542688672 124.576961748 311.21242321 c 1
 124.672919868 287.939466192 124.756839075 264.416891989 124.821049203 241.337012956 c 1
 246.732187854 231.632858998 328.352644629 162.60409227 371.021330539 88.6997603849 c 0
 380.230527611 72.7489631585 394.069804339 48.778632726 403.176914536 14.5358983849 c 1
 340.823085464 -21.4641016151 l 1
 336.823085464 -14.5358983849 l 1
 331.313116648 6.18158709638 322.597156204 27.8705846284 310.643086735 49.2249616644 c 0
 274.87360814 109.329364384 213.211420519 165.630455936 124.931457362 188.642184147 c 1
 124.946582143 177.156087277 124.954692314 165.938005425 124.954692314 155.086824311 c 0
 124.954692314 75.2682665873 124.515875038 15.3016195693 123.202210022 14.5431747185 c 0
 123.202210022 14.5431747185 60.8483809497 -21.4568252815 60.8230854638 -21.4641016151 c 2
 60.8230854638 -21.4641016151 56.8230854638 -14.5358983849 56.8734973573 -14.5067930646 c 0
 58.1676451714 -13.0017471155 58.6008632415 46.707337721 58.6008632415 126.015027541 c 0
 58.6008632415 290.112381634 56.8230854638 524.315821597 56.8230854638 528.339101615 c 1
 119.176914536 564.339101615 l 1
 123.176914536 557.410898385 l 1
EndSplineSet
Validated: 524289
EndChar

StartChar: runeEh
Encoding: 5846 5846 66
Width: 596
GlyphClass: 2
Flags: HMW
VStem: 57.5428 66.3538 473.073 66.3538
LayerCount: 2
Back
SplineSet
90 0 m 4
 94 0 90 542 90 542.875 c 4
 296 377 l 25
 380 442 507 542.875 507 542.875 c 5
 507 542.875 511 0 507 0 c 1028
EndSplineSet
Fore
SplineSet
58.6008632415 126.015027541 m 0
 58.6008632415 290.112381634 56.8230854638 524.315821597 56.8230854638 528.339101615 c 1
 119.176914536 564.339101615 l 1
 317.246413743 404.849887144 l 1
 392.703235707 463.906307566 473.823085464 528.339101615 473.823085464 528.339101615 c 1
 536.176914536 564.339101615 l 1
 540.176914536 557.410898385 l 1
 540.176914536 557.410898385 541.954692314 316.133120607 541.954692314 155.281268755 c 0
 541.954692314 75.3652890863 541.515866064 15.3016261079 540.202169724 14.5431631722 c 0
 477.835757671 -21.4641016151 477.835757671 -21.4641016151 477.823085464 -21.4641016151 c 2
 473.823085464 -14.5358983849 l 1
 475.042073357 -13.8321153967 475.600863242 34.8737196142 475.600863242 126.209471987 c 0
 475.600863242 256.902696298 474.42723247 440.690487703 473.987136905 505.0140578 c 1
 430.577112918 470.734649636 373.807597151 426.071545646 329.176914536 391.535898385 c 1
 266.823085464 355.535898385 l 1
 123.748454342 470.742230605 l 1
 124.268244808 385.803543867 124.954692314 254.917884519 124.954692314 155.086824311 c 0
 124.954692314 75.2682665873 124.515875038 15.3016195693 123.202210022 14.5431747185 c 2
 60.8483809497 -21.4568252815 l 2
 60.8230854638 -21.4641016151 56.8230854638 -14.5358983849 56.8230854638 -14.5358983849 c 1
 58.0403895529 -13.8330875413 58.6008632415 34.6555180667 58.6008632415 126.015027541 c 0
EndSplineSet
Validated: 524289
EndChar

StartChar: runeMan
Encoding: 5847 5847 67
Width: 596
GlyphClass: 2
Flags: HMW
VStem: 57.5428 66.3538 473.073 66.3538
LayerCount: 2
Back
SplineSet
90 0 m 4
 94 0 90 542 90 542.875 c 4
 506 295 l 1049
507 0 m 4
 511 0 507 542.875 507 542.875 c 5
 93 296 l 1049
EndSplineSet
Fore
SplineSet
58.6008632415 126.015027541 m 0
 58.6008632415 290.112381634 56.8230854638 524.315821597 56.8230854638 528.339101615 c 1
 119.176914536 564.339101615 l 1
 326.765916372 440.646496254 l 1
 396.455645077 481.991302058 465.432014677 524.049466966 536.176914536 564.339101615 c 1
 540.176914536 557.410898385 l 1
 540.176914536 557.410898385 541.954692314 316.133120607 541.954692314 155.281268755 c 0
 541.954692314 75.3652890863 541.515866064 15.3016261079 540.202169724 14.5431631722 c 2
 477.848340652 -21.4568368278 l 2
 477.823085464 -21.4641016151 473.823085464 -14.5358983849 473.823085464 -14.5358983849 c 1
 475.042073357 -13.8321153967 475.600863242 34.8737196142 475.600863242 126.209471986 c 0
 475.600863242 171.631081968 475.459104323 223.465806346 475.255646719 274.469862036 c 1
 270.396053769 396.536139926 l 1
 221.785537099 367.569084518 173.225600277 338.55144926 124.583523701 309.615953757 c 1
 124.800777542 256.593470923 124.954692314 202.358627542 124.954692314 155.086824311 c 0
 124.954692314 75.2682665873 124.515875038 15.3016195693 123.202210022 14.5431747185 c 0
 60.8399853155 -21.4616725031 60.8399853155 -21.4616725031 60.8230854638 -21.4641016151 c 2
 56.8230854638 -14.5358983849 l 1
 58.0403895529 -13.8330875413 58.6008632415 34.6555180667 58.6008632415 126.015027541 c 0
124.539878095 320.055788042 m 1
 261.591870456 401.782142183 l 1
 123.666609621 483.965373023 l 1
 123.940765926 440.166348922 124.278867749 381.286467905 124.539878095 320.055788042 c 1
474.899271491 352.380738081 m 1
 474.509795451 428.663887834 474.070063454 493.417007266 473.897855717 517.887606969 c 1
 335.570099685 435.400493998 l 1
 474.899271491 352.380738081 l 1
EndSplineSet
Validated: 524289
EndChar

StartChar: runeLagu
Encoding: 5850 5850 68
Width: 449
GlyphClass: 2
Flags: HMW
VStem: 57.5428 66.3538
LayerCount: 2
Back
SplineSet
89 0 m 4
 93 0 89 542 89 542.875 c 28
 353 360 l 1053
EndSplineSet
Fore
SplineSet
57.6008632415 126.015027541 m 0
 57.6008632415 290.112381634 55.8230854638 524.315821597 55.8230854638 528.339101615 c 1
 118.176914536 564.339101615 l 1
 382.176914536 381.464101615 l 1
 386.176914536 374.535898385 l 1
 323.823085464 338.535898385 l 1
 122.704676293 477.852296404 l 1
 123.228779696 393.248194101 123.954692314 257.747517023 123.954692314 155.086824311 c 0
 123.954692314 75.2682665873 123.515875038 15.3016195693 122.202210022 14.5431747185 c 2
 59.8483809497 -21.4568252815 l 2
 59.8230854638 -21.4641016151 55.8230854638 -14.5358983849 55.8230854638 -14.5358983849 c 1
 57.0403895529 -13.8330875413 57.6008632415 34.6555180667 57.6008632415 126.015027541 c 0
EndSplineSet
Validated: 524289
EndChar

StartChar: runeIng
Encoding: 5853 5853 69
Width: 470
GlyphClass: 2
Flags: W
HStem: -38.5891 38.1223G<64.8231 99.4641 351.566 386.462>
LayerCount: 2
Back
SplineSet
93 542.875 m 12
 93 543.875 389 268.875 389 268.875 c 5
 389 268.875 77 0.125 77 0 c 4
 77 -0.125 94 -17.125 94 -17.125 c 1053
381 0 m 12
 381 -1 85 274 85 274 c 5
 85 274 397 542.75 397 542.875 c 4
 397 543 380 560 380 560 c 1053
EndSplineSet
Fore
SplineSet
362.299246541 527.030096458 m 1
 357.335909552 532.023074296 350.823085464 538.535898385 350.823085464 538.535898385 c 1
 346.823085464 545.464101615 l 1
 409.176914536 581.464101615 l 2
 409.176914536 581.464101615 426.007439124 564.633577028 426.17564528 564.342235419 c 2
 426.17564528 564.342235419 430.17564528 557.414032189 430.176914536 557.410898385 c 2
 274.753216238 423.470043001 l 1
 347.196760499 356.283501481 418.176914536 290.339101615 418.176914536 290.339101615 c 2
 422.176914536 283.410898385 l 1
 269.19998086 151.576540137 l 1
 340.455077239 85.5049343069 409.534522562 21.5744321511 410.172461579 21.4615306991 c 2
 414.175801297 14.5335761593 l 1
 351.820164111 -21.4668222913 l 2
 351.31280497 -21.4668222913 284.799806903 40.0793823445 214.960533858 104.833397131 c 1
 111.700753459 15.8449035419 l 1
 116.664090448 10.8519257037 123.176914536 4.33910161514 123.176914536 4.33910161514 c 1
 127.176914536 -2.58910161514 l 1
 64.8230854638 -38.5891016151 l 1
 64.8230854638 -38.5891016151 47.9925608763 -21.7585770277 47.8243547204 -21.4672354195 c 2
 47.8243547204 -21.4672354195 43.8243547204 -14.5390321892 43.8230854638 -14.5358983849 c 2
 199.246783762 119.404956999 l 1
 126.803239501 186.591498519 55.8230854638 252.535898385 55.8230854638 252.535898385 c 1
 51.8230854638 259.464101615 l 1
 204.80001914 391.298459863 l 1
 133.544922761 457.370065693 64.4654774382 521.300567849 63.827538421 521.413469301 c 2
 59.8241987032 528.341423841 l 1
 122.179835889 564.341822291 l 2
 122.68719503 564.341822291 189.200193097 502.795617655 259.039466142 438.041602869 c 1
 362.299246541 527.030096458 l 1
220.512801467 376.726800944 m 1
 119.970806691 290.081836696 l 1
 137.894285543 273.432700359 194.775805535 220.60255727 253.487198533 166.148199056 c 1
 354.029193309 252.793163304 l 1
 336.105714457 269.442299641 279.224194465 322.27244273 220.512801467 376.726800944 c 1
EndSplineSet
Validated: 524289
EndChar

StartChar: runeDaeg
Encoding: 5854 5854 70
Width: 596
GlyphClass: 2
Flags: HMW
VStem: 57.5428 66.3538 473.073 66.3538
LayerCount: 2
Back
SplineSet
90 0 m 5
 90 0 90 542 90 542.875 c 4
 507 0 l 5
 507 542.875 l 5
 90 0 l 5
EndSplineSet
Fore
SplineSet
123.176914536 440.235035177 m 1
 123.176914536 71.8473988759 l 1
 264.662195989 256.041217026 l 1
 123.176914536 440.235035177 l 1
286.67361271 227.385466781 m 1
 123.176914536 14.5358983849 l 1
 60.8230854638 -21.4641016151 l 1
 56.8230854638 -14.5358983849 l 1
 56.8230854638 528.339101615 l 1
 119.176914536 564.339101615 l 1
 310.32638729 315.489533219 l 1
 473.823085464 528.339101615 l 1
 536.176914536 564.339101615 l 1
 540.176914536 557.410898385 l 1
 540.176914536 14.5358983849 l 1
 477.823085464 -21.4641016151 l 1
 286.67361271 227.385466781 l 1
473.823085464 471.027601124 m 1
 332.337804011 286.833782974 l 1
 473.823085464 102.639964823 l 1
 473.823085464 471.027601124 l 1
EndSplineSet
Validated: 524289
EndChar

StartChar: runeEthel
Encoding: 5855 5855 71
Width: 567
GlyphClass: 2
Flags: W
HStem: -38.4641 37.9964G<64.8231 99.4641 452.937 487.921>
LayerCount: 2
Back
SplineSet
94 -17 m 25
 94 -17 77 -0.1669921875 77 0 c 0
 77 0.1669921875 493.129882812 358.612304688 493.129882812 358.612304688 c 1
 493.129882812 358.612304688 393.47265625 450.754882812 294 543 c 1
 190.212890625 453.579101562 87.669921875 365.447265625 87.669921875 365.447265625 c 1
 87.669921875 365.447265625 482.459960938 -1.333984375 482.459960938 0 c 1040
EndSplineSet
Fore
SplineSet
511.630934258 21.4606714524 m 2
 515.635390169 14.5328000289 l 1
 453.279148681 -21.4677315908 l 2
 452.594327526 -21.4677315908 361.777803757 62.5745911486 267.432502864 150.05413115 c 1
 190.021722638 83.3421374063 122.606113363 25.243154741 111.7139823 15.8539255712 c 1
 116.675654578 10.9014992425 123.176914536 4.46410161514 123.176914536 4.46410161514 c 1
 127.176914536 -2.46410161514 l 1
 64.8230854638 -38.4641016151 l 1
 64.8230854638 -38.4641016151 48.0459648064 -21.851783786 47.8252818292 -21.469549657 c 2
 47.8252818292 -21.469549657 43.8252818292 -14.5413464268 43.8230854638 -14.5358983849 c 2
 251.719560424 164.625072988 l 1
 154.430920007 254.851666127 58.4930073388 343.98316401 58.4930073388 343.98316401 c 1
 54.4930073388 350.91136724 l 1
 260.823085464 528.464101615 l 1
 323.176914536 564.464101615 l 1
 522.306797349 380.076406303 l 1
 526.306797349 373.148203072 l 1
 526.306797349 373.148203072 424.548500492 285.45496386 321.672093527 196.797272323 c 1
 417.389557766 108.040623101 510.77415485 21.6123030654 511.630934258 21.4606714524 c 2
458.149393256 342.52212188 m 1
 274.706794609 512.383910121 l 1
 122.641936874 381.527897567 l 1
 144.411807643 361.30535298 224.237769182 287.161982881 305.959881696 211.368283273 c 1
 458.149393256 342.52212188 l 1
EndSplineSet
Validated: 524289
EndChar

StartChar: uni0148
Encoding: 5856 5856 72
Width: 713
GlyphClass: 2
Flags: HMW
VStem: 354 8.77312e-60
LayerCount: 2
Back
SplineSet
70.43359375 542.875 m 1
 145.426757812 409.293945312 l 25
 354 542.875 l 1032
637.56640625 542.875 m 1
 562.573242188 409.293945312 l 25
 354 542.875 l 4
 354 542.875 357.125 5.8125 354 -2 c 1028
EndSplineSet
Fore
SplineSet
388.565803425 157.272009496 m 0
 388.565803425 76.5497872738 388.218581203 15.1400650515 387.176914536 12.5358983849 c 1
 324.823085464 -23.4641016151 l 1
 320.823085464 -16.5358983849 l 1
 321.86475213 -13.9317317182 322.211974353 47.477990504 322.211974353 128.200212726 c 0
 322.211974353 266.858367564 321.187473965 462.499233968 320.898277733 514.962643208 c 1
 178.603672349 423.829843697 l 1
 116.249843276 387.829843697 l 1
 89.7755000314 434.522974446 63.613108103 481.528056511 37.2566792138 528.339101615 c 1
 99.6105082862 564.339101615 l 1
 124.236594289 520.936968641 148.551919437 477.224074812 173.060192475 433.704128873 c 1
 320.823085464 528.339101615 l 1
 383.176914536 564.339101615 l 1
 560.752306742 450.610667763 l 1
 604.389491714 528.339101615 l 1
 666.743320786 564.339101615 l 1
 670.743320786 557.410898385 l 1
 595.750156724 423.829843697 l 1
 533.396327651 387.829843697 l 1
 387.578147129 481.21932234 l 1
 387.98836929 397.58403038 388.565803425 261.369576649 388.565803425 157.272009496 c 0
EndSplineSet
Validated: 524289
EndChar

StartChar: runeIor
Encoding: 5857 5857 73
Width: 453
GlyphClass: 2
Flags: HMW
VStem: 194.433 66.3538
LayerCount: 2
Back
SplineSet
115 149 m 25
 104 162 l 1
 355 358 l 1
 344 372 l 1053
99 360 m 25
 350 164 l 1049
227 542.875 m 0
 227 542.875 230.125 5.8125 227 -2 c 1024
EndSplineSet
Fore
SplineSet
261.565803425 157.272009496 m 0
 261.565803425 76.5497872738 261.218581203 15.1400650515 260.176914536 12.5358983849 c 1
 197.823085464 -23.4641016151 l 1
 193.823085464 -16.5358983849 l 1
 194.86475213 -13.9317317182 195.211974353 47.477990504 195.211974353 128.200212726 c 0
 195.211974353 157.474738804 195.166307504 189.289254985 195.091535237 221.76006435 c 1
 138.298296547 177.411559238 l 1
 142.062752551 173.257922294 145.550078184 168.82715498 148.176914536 163.535898385 c 1
 85.8230854638 127.535898385 l 1
 80.6309955867 133.986542918 74.6053015053 139.603583247 70.8230854638 147.464101615 c 1
 192.667526763 242.609561753 l 1
 69.8230854638 338.535898385 l 1
 65.8230854638 345.464101615 l 1
 128.176914536 381.464101615 l 1
 194.75861019 329.472020547 l 1
 194.353370499 437.204315504 193.823085464 528.339101615 193.823085464 528.339101615 c 2
 256.176914536 564.339101615 l 1
 260.176914536 557.410898385 l 1
 260.176914536 557.410898385 260.926446887 428.596268554 261.324271995 296.222000261 c 1
 320.928417189 342.765476189 l 1
 317.200944832 347.305989549 313.608085365 351.9811158 310.823085464 357.464101615 c 1
 373.176914536 393.464101615 l 1
 378.316430593 386.627549929 384.17795695 380.513008542 388.176914536 372.535898385 c 1
 263.893697727 275.486055777 l 1
 379.176914536 185.464101615 l 1
 383.176914536 178.535898385 l 1
 320.823085464 142.535898385 l 1
 261.549771613 188.821035894 l 1
 261.560223716 178.047983759 261.565803425 167.504824911 261.565803425 157.272009496 c 0
EndSplineSet
Validated: 524289
EndChar

StartChar: runeCalc
Encoding: 5859 5859 74
Width: 629
GlyphClass: 2
Flags: HMW
VStem: 283.845 66.3538
LayerCount: 2
Back
SplineSet
517.66015625 -0.0234375 m 1
 294 171 l 1
 74.580078125 -0.0234375 l 1
 91 -17.1484375 l 1049
301 542.875 m 8
 301 542 305 0 301 0 c 1024
EndSplineSet
Fore
SplineSet
269.575001539 161.517022717 m 1
 269.350526807 323.968361572 267.823085464 524.670838991 267.823085464 528.339101615 c 1
 330.176914536 564.339101615 l 1
 334.176914536 557.410898385 l 1
 334.176914536 553.663805258 335.757218728 345.896607535 335.938671351 182.705727323 c 1
 546.837070786 21.4406641151 l 1
 550.837070786 14.5124608849 l 1
 488.483241714 -21.4875391151 l 1
 335.848818274 95.2255322484 l 1
 335.651745509 47.058936243 335.159038223 15.0955997379 334.202210022 14.5431747185 c 0
 334.202210022 14.5431747185 271.84838095 -21.4568252815 271.823085464 -21.4641016151 c 2
 271.823085464 -21.4641016151 267.823085464 -14.5358983849 267.873497357 -14.5067930646 c 0
 269.167645171 -13.0017471155 269.600863242 46.707337721 269.600863242 126.015027541 c 0
 269.600863242 130.825935248 269.599269088 135.708961776 269.596176257 140.655489577 c 1
 109.269547365 15.6913980694 l 1
 120.176914536 4.31566411514 l 1
 124.176914536 -2.61253911514 l 1
 61.8230854638 -38.6125391151 l 1
 45.4031635888 -21.4875391151 l 1
 41.4031635888 -14.5593358849 l 1
 260.823085464 156.464101615 l 1
 269.575001539 161.517022717 l 1
EndSplineSet
Validated: 524289
EndChar

StartChar: runeEar
Encoding: 5861 5861 75
Width: 596
GlyphClass: 2
Flags: HMW
VStem: 57.5428 66.3538 473.073 66.3538
LayerCount: 2
Back
SplineSet
507 0 m 1
 507 542.875 l 1
 297 414 l 25
 90 542.875 l 0
 90 542 90 0 90 0 c 0
 297 128.875 l 25
 507 0 l 1
EndSplineSet
Fore
SplineSet
123.176914536 26.774969836 m 1
 263.823085464 114.339101615 l 1
 326.176914536 150.339101615 l 1
 473.823085464 59.7300526709 l 1
 473.823085464 516.690185424 l 1
 330.176914536 428.535898385 l 1
 267.823085464 392.535898385 l 1
 123.176914536 482.590368328 l 1
 123.176914536 26.774969836 l 1
540.176914536 557.410898385 m 1
 540.176914536 14.5358983849 l 1
 477.823085464 -21.4641016151 l 1
 270.104560069 106.010779148 l 1
 123.176914536 14.5358983849 l 1
 60.8230854638 -21.4641016151 l 1
 56.8230854638 -14.5358983849 l 1
 56.8230854638 528.339101615 l 1
 119.176914536 564.339101615 l 1
 324.34402863 436.605228046 l 1
 473.823085464 528.339101615 l 1
 536.176914536 564.339101615 l 1
 540.176914536 557.410898385 l 1
EndSplineSet
Validated: 524289
EndChar

StartChar: runeSinglePunct
Encoding: 5867 5867 76
Width: 264
GlyphClass: 2
Flags: HMW
HStem: 222 136<87 125>
VStem: 31 151<277 303>
LayerCount: 2
Fore
SplineSet
36 274 m 1
 31 285 l 1
 125 340 l 1
 176 269 l 1
 182 259 l 1
 87 204 l 1
 36 274 l 1
EndSplineSet
Validated: 1
EndChar

StartChar: runeMultiPunct
Encoding: 5868 5868 77
Width: 262
GlyphClass: 2
Flags: HMW
HStem: 128 136<100 138> 333 136<101 139>
VStem: 44 151<183 209> 45 151<388 414>
LayerCount: 2
Fore
SplineSet
49 169 m 5xa0
 44 180 l 5
 138 235 l 5
 189 164 l 5
 195 154 l 5
 100 99 l 5
 49 169 l 5xa0
50 374 m 5x50
 45 385 l 5
 139 440 l 5
 190 369 l 5
 196 359 l 5
 101 304 l 5
 50 374 l 5x50
EndSplineSet
Validated: 1
EndChar

StartChar: uni16ED
Encoding: 5869 5869 78
Width: 365
GlyphClass: 2
Flags: HMW
HStem: 269.47 43.1818
VStem: 147.835 66.3538
LayerCount: 2
Back
SplineSet
91 271 m 1
 274 271 l 1025
181 355 m 1
 181 183 l 1049
EndSplineSet
Fore
SplineSet
214.176914536 292.464101615 m 1
 303.176914536 292.464101615 l 1
 307.176914536 285.535898385 l 1
 244.823085464 249.535898385 l 1
 214.176914536 249.535898385 l 1
 214.176914536 197.535898385 l 1
 151.823085464 161.535898385 l 1
 147.823085464 168.464101615 l 1
 147.823085464 249.535898385 l 1
 61.8230854638 249.535898385 l 1
 57.8230854638 256.464101615 l 1
 120.176914536 292.464101615 l 1
 147.823085464 292.464101615 l 1
 147.823085464 340.464101615 l 1
 210.176914536 376.464101615 l 1
 214.176914536 369.535898385 l 1
 214.176914536 292.464101615 l 1
EndSplineSet
Validated: 524289
EndChar

StartChar: runeTolK
Encoding: 5873 5873 79
Width: 461
GlyphClass: 2
Flags: HMW
VStem: 58.4783 66.3538
LayerCount: 2
Back
SplineSet
94 176 m 25
 295 262 l 1
 295 262 371 -1 371 0 c 1024
90 542.875 m 8
 90 542 94 0 90 0 c 1024
EndSplineSet
Fore
SplineSet
58.6008632415 126.015027541 m 0
 58.6008632415 290.112381634 56.8230854638 524.315821597 56.8230854638 528.339101615 c 1
 119.176914536 564.339101615 l 1
 123.176914536 557.410898385 l 1
 123.176914536 553.81883493 124.654561678 359.766036405 124.917359041 198.208769413 c 1
 324.176914536 283.464101615 l 1
 328.176914536 276.535898385 l 1
 328.176914536 276.535898385 403.273053426 16.663733542 404.16883633 14.5460670107 c 1
 341.819815656 -21.4641186253 l 1
 337.819815656 -14.535915395 l 2
 337.306548452 -13.6469105201 276.52059461 196.613404352 264.045270578 239.77524127 c 1
 124.94128611 180.258113587 l 1
 124.950066258 171.686802691 124.954692314 163.282173088 124.954692314 155.086824311 c 0
 124.954692314 75.2682665873 124.515875038 15.3016195693 123.202210022 14.5431747185 c 0
 123.202210022 14.5431747185 60.8483809497 -21.4568252815 60.8230854638 -21.4641016151 c 2
 60.8230854638 -21.4641016151 56.8230854638 -14.5358983849 56.8734973573 -14.5067930646 c 0
 58.1676451714 -13.0017471155 58.6008632415 46.707337721 58.6008632415 126.015027541 c 0
EndSplineSet
Validated: 524289
EndChar

StartChar: runeTolSH
Encoding: 5874 5874 80
Width: 468
GlyphClass: 2
Flags: HMW
VStem: 57.5428 66.3538 345.287 66.3865
LayerCount: 2
Back
SplineSet
377 542.875 m 0
 377 544 378 194 378 194 c 25
 89 346 l 1
 89 0 l 1049
EndSplineSet
Fore
SplineSet
122.176914536 291.740804893 m 1
 122.176914536 14.5358983849 l 1
 59.8230854638 -21.4641016151 l 1
 55.8230854638 -14.5358983849 l 1
 55.8230854638 331.464101615 l 1
 118.176914536 367.464101615 l 1
 344.625596497 248.363064736 l 1
 343.823085464 528.339101615 l 1
 406.176914536 564.339101615 l 1
 410.176914536 557.410898385 l 1
 411.176914536 208.535898385 l 1
 348.823085464 172.535898385 l 1
 122.176914536 291.740804893 l 1
EndSplineSet
Validated: 524289
EndChar

StartChar: runeTolOO
Encoding: 5875 5875 81
Width: 602
GlyphClass: 2
Flags: HMW
VStem: 268.503 66.3538
LayerCount: 2
Back
SplineSet
301 542.875 m 5
 509 396 l 5
 302 244 l 5
 91 396 l 5
 301 542.875 l 5
301 542.875 m 12
 301 542 305 0 301 0 c 1028
EndSplineSet
Fore
SplineSet
334.709923614 477.004627455 m 1
 335.038762385 423.844497641 335.445433042 350.858924558 335.702529843 278.573645314 c 1
 472.974154295 379.372132834 l 1
 334.709923614 477.004627455 l 1
269.101431407 310.181985196 m 1
 268.704188472 397.509580967 268.177597852 477.178438996 267.943787284 511.087133789 c 1
 127.027127599 412.529350973 l 1
 269.101431407 310.181985196 l 1
335.954692314 155.086824311 m 0
 335.954692314 75.2682665873 335.515875038 15.3016195693 334.202210022 14.5431747185 c 0
 334.202210022 14.5431747185 271.84838095 -21.4568252815 271.823085464 -21.4641016151 c 2
 271.823085464 -21.4641016151 267.823085464 -14.5358983849 267.873497357 -14.5067930646 c 0
 269.167645171 -13.0017471155 269.600863242 46.707337721 269.600863242 126.015027541 c 0
 269.600863242 156.802694487 269.535575819 190.543937231 269.430023753 224.980189286 c 1
 61.8230854638 374.535898385 l 1
 57.8230854638 381.464101615 l 1
 267.823085464 528.339101615 l 1
 330.176914536 564.339101615 l 1
 538.176914536 417.464101615 l 1
 542.176914536 410.535898385 l 1
 335.768520563 258.970314405 l 1
 335.883046426 222.832203121 335.954692314 187.338898658 335.954692314 155.086824311 c 0
EndSplineSet
Validated: 524289
EndChar

StartChar: uni25C7
Encoding: 9671 9671 87
Width: 681
GlyphClass: 2
InSpiro: 1
Flags: HMW
HStem: 0.631607 21G
LayerCount: 2
Back
SplineSet
68.0869140625 271.6796875 m 1
 339.04296875 542.634765625 l 1
 611 270.677734375 l 1
 340.044921875 -0.2783203125 l 1
 68.0869140625 271.6796875 l 1
  Spiro
    68.0867 271.679 v
    339.043 542.635 v
    611 270.677 v
    340.044 -0.278372 v
    0 0 z
  EndSpiro
EndSplineSet
Fore
SplineSet
323.04288013 507.993838094 m 1
 102.727932852 287.679684862 l 1
 356.044833255 34.3627844592 l 1
 576.358986487 254.677731737 l 1
 323.04288013 507.993838094 l 1
  Spiro
    323.043 507.994 v
    102.728 287.68 v
    356.045 34.3628 v
    576.359 254.678 v
    0 0 z
  EndSpiro
34.9099995263 257.143789115 m 1
 305.866054214 528.09886724 l 1
 368.219883286 564.09886724 l 1
 640.176914536 292.14183599 l 1
 644.176914536 285.21363276 l 1
 373.221836411 14.2575780724 l 1
 310.868007339 -21.7424219276 l 1
 38.9099995263 250.215585885 l 1
 34.9099995263 257.143789115 l 1
  Spiro
    34.91 257.144 v
    305.866 528.099 v
    368.22 564.099 v
    640.177 292.142 v
    644.177 285.214 v
    373.222 14.2576 v
    310.868 -21.7424 v
    38.91 250.216 v
    0 0 z
  EndSpiro
EndSplineSet
Validated: 524289
EndChar

StartChar: uniA75B
Encoding: 42843 42843 89
Width: 392
GlyphClass: 2
Flags: HMW
HStem: 279.856 42.9282
VStem: 216.239 66.3538
LayerCount: 2
Back
SplineSet
-30 269 m 4
 1.7284846353 287.130562649 24.0009724074 299.578538853 66 300 c 4
 95 300.291015625 138 272.012695312 138 233 c 7
 138 173.032226562 92 159 34 125 c 5
 110 110 133 34 199 0 c 1029
EndSplineSet
Fore
SplineSet
216.239257812 208.213867188 m 0
 216.239257812 220.465820312 213.358398438 231.470703125 208.481445312 241.09375 c 0
 192.276367188 265.966796875 162.28125 279.856445312 137.619140625 279.856445312 c 0
 124.883789062 279.856445312 110.5546875 277.541992188 94.6748046875 271.172851562 c 2
 55 248.266601562 l 1
 51 255.194335938 l 1
 61.021484375 262.7109375 61.021484375 262.7109375 133.293945312 304.4375 c 0
 157.2265625 318.254882812 178.158203125 322.784179688 195.971679688 322.784179688 c 0
 221.743164062 322.784179688 253.336914062 307.6171875 268.934570312 280.600585938 c 0
 276.303710938 267.837890625 282.592773438 256.9453125 282.592773438 237.28515625 c 0
 282.592773438 203.130859375 253.807617188 178.432617188 226.572265625 162.708007812 c 2
 193.9765625 143.888671875 l 1
 255.139648438 122.0390625 278.30859375 45.8173828125 341.774414062 21.4638671875 c 1
 345.774414062 14.5361328125 l 1
 283.420898438 -21.4638671875 l 1
 213.758789062 5.267578125 192.65234375 94.4794921875 116.560546875 105.706054688 c 1
 112.560546875 112.633789062 l 1
 174.9140625 148.633789062 l 1
 174.9140625 148.633789062 179.8984375 150.112304688 187.680664062 153.104492188 c 0
 203.872070312 167.501953125 216.239257812 185.826171875 216.239257812 208.213867188 c 0
EndSplineSet
Validated: 524289
EndChar

StartChar: gargF
Encoding: 58819 58819 93
Width: 503
GlyphClass: 2
Flags: HMW
HStem: -21.4641 42.9282 310.907 42.9282 321.536 42.9282
VStem: 51.8231 66.3538 403.823 66.3538
AnchorPoint: "dot-over" 241 400 basechar 0
LayerCount: 2
Back
SplineSet
413 131 m 17
 413 216 413 267 397 290 c 1
 413 300 l 17
 413 38 l 3
 413 -21.4296875 427.969726562 -34 439 -34 c 3
 446.81640625 -34 452.612304688 -32.169921875 458 -29 c 1024
413 38 m 1
 401 26 326.02734375 0 252 0 c 3
 171 0 61 12.947265625 61 51 c 3
 61 300 l 5
 61 325 96 341 116 341 c 5
 116 341 485 334 497 346 c 1028
EndSplineSet
Fore
SplineSet
446.176914536 52.5358983849 m 2x98
 446.176915352 23.7792488963 449.681879342 5.9941032782 454.549522416 -4.70426170075 c 0
 458.939708397 -10.6105124965 463.860013093 -12.5358983849 468.176914536 -12.5358983849 c 0
 477.622624878 -12.5358983849 483.244467842 -9.80629754262 487.176914536 -7.53589838486 c 1
 491.177636172 -14.4653515257 l 1
 428.520836392 -50.6402717453 l 2
 423.218233259 -53.7017310916 417.493536793 -55.4641016151 409.823085464 -55.4641016151 c 0
 400.473464354 -55.4641016151 396.657484383 -48.8546304255 390.102953077 -37.5018491822 c 0
 384.899835223 -28.4897847028 380.799180692 -12.8178526502 379.974644426 13.4555558359 c 1
 377.469392586 12.0091480117 l 2
 354.958904903 -0.987288111712 288.518745419 -21.4641016151 222.823085464 -21.4641016151 c 0
 149.384089227 -21.4641016151 52.1064557582 -10.8211647744 34.5854583679 19.5260929049 c 0
 28.6396839085 29.824476359 27.8230854638 31.2388663546 27.8230854638 36.4641016151 c 2
 27.8230854638 285.464101615 l 2
 27.8230854638 298.844286632 37.848729124 309.646448993 50.2345897539 316.797428961 c 2
 112.588418826 352.797428961 l 2
 123.344728157 359.007587049 135.881062549 362.464101615 145.176914536 362.464101615 c 2
 145.176914536 362.464101615 252.165080217 360.434515816 352.796850813 360.434515816 c 0
 396.993360377 360.434515816 514.001314777 360.434515816 526.176914536 367.464101615 c 1
 530.176914536 360.535898385 l 2
 529.972614078 360.331597927 529.972614078 360.331597927 467.274977098 324.133100339 c 0
 464.627778741 322.604739655 455.895866894 321.402727745 442.752510373 320.467140381 c 1
 446.176914536 314.535898385 l 1
 446.176914536 52.5358983849 l 2x98
294.443021741 317.506312586 m 0
 209.965653738 317.506312586 121.008869665 318.936582279 94.6253995683 319.395784225 c 0
 94.3312918166 317.816886328 94.1769145362 316.196240864 94.1769145362 314.535898385 c 2
 94.1769145362 65.5358983849 l 2
 94.1769145362 63.2869299205 94.5611410271 61.1256543266 95.3008994633 59.0495614623 c 0
 117.885774786 31.3064464606 210.554058213 21.4641016151 281.176914536 21.4641016151 c 0
 316.082402676 21.4641016151 351.198064579 27.2447485804 379.823085464 34.6126584519 c 1
 379.823085464 116.464101615 l 2
 379.823085464 194.193050077 379.823085464 243.490048285 367.587871092 268.943301628 c 1
 363.823085464 275.464101615 l 1
 388.507548207 291.160310037 414.71704706 305.331482348 440.140705052 320.288495521 c 1
 408.022252171 318.176794285 352.282567089 317.506312586 294.443021741 317.506312586 c 0
EndSplineSet
Validated: 8912897
EndChar

StartChar: gargV
Encoding: 58820 58820 94
Width: 481
GlyphClass: 2
Flags: HMW
HStem: -21.4641 42.9282 257.683 42.9282 302.801 20G 333.435 42.9282
VStem: 28.8231 66.3538 380.823 66.3538
AnchorPoint: "dot-over" 241 400 basechar 0
LayerCount: 2
Back
SplineSet
413 131 m 17
 413 216 413 267 397 290 c 1
 413 300 l 17
 413 38 l 3
 413 -21.4296875 427.969726562 -34 439 -34 c 3
 446.81640625 -34 452.612304688 -32.169921875 458 -29 c 1024
433 331 m 4
 396 310 296 241 243 314 c 4
 198.187013762 375.723547082 61 359.612470645 61 300 c 6
 61 51 l 3
 61 12.947265625 171 0 252 0 c 3
 326.02734375 0 401 26 413 38 c 1025
EndSplineSet
Fore
SplineSet
277.655407113 259.829260432 m 0
 253.896338422 259.829260432 231.303396539 268.459243508 213.823085464 292.535898385 c 0
 194.149655451 319.633264252 156.672852962 331.729456832 120.816146431 331.729456832 c 0
 112.911021834 331.729456832 105.084641221 331.141527216 97.5451379796 329.996796485 c 1
 95.3610164928 325.236991556 94.1769145362 320.074181713 94.1769145362 314.535898385 c 0
 94.1769145362 65.5358983849 94.1769145362 65.5358983849 94.1769145362 65.5358983849 c 2
 94.1769145362 63.2869299205 94.5611410271 61.1256543267 95.3008994632 59.0495614623 c 0
 117.885774786 31.3064464606 210.554058213 21.4641016151 281.176914536 21.4641016151 c 0
 316.082402676 21.4641016151 351.198064579 27.2447485804 379.823085464 34.6126584519 c 1
 379.823085464 116.464101615 l 2
 379.823085464 194.193050077 379.823085464 243.490048285 367.587871092 268.943301628 c 1
 363.823085464 275.464101615 l 1
 389.176209072 291.562254365 416.08121636 306.108523434 442.176914536 321.464101615 c 1
 446.176914536 314.535898385 l 1
 446.176914536 52.5358983849 l 2
 446.176915352 23.7792488963 449.681879342 5.9941032782 454.549522416 -4.70426170075 c 0
 458.939708397 -10.6105124965 463.860013093 -12.5358983849 468.176914536 -12.5358983849 c 0
 477.622624878 -12.5358983849 483.244467842 -9.80629754262 487.176914536 -7.53589838486 c 1
 491.177636172 -14.4653515257 l 1
 428.520836392 -50.6402717453 l 2
 423.218233259 -53.7017310916 417.493536793 -55.4641016151 409.823085464 -55.4641016151 c 0
 400.473464354 -55.4641016151 396.657484383 -48.8546304255 390.102953077 -37.5018491822 c 0
 384.899835223 -28.4897847028 380.799180692 -12.8178526502 379.974644426 13.4555558359 c 1
 377.469392586 12.0091480117 l 2
 354.958904903 -0.987288111712 288.518745419 -21.4641016151 222.823085464 -21.4641016151 c 0
 149.384089227 -21.4641016151 52.1064557582 -10.8211647744 34.5854583679 19.5260929049 c 0
 28.6396839085 29.824476359 27.8230854638 31.2388663546 27.8230854638 36.4641016151 c 2
 27.8230854638 285.464101615 l 2
 27.8230854638 301.717746156 38.0216788005 314.737461937 53.7658007415 323.827334978 c 2
 116.119629814 359.827334978 l 2
 132.769056798 369.439886129 155.620096513 374.657660062 179.169975504 374.657660062 c 0
 215.026682034 374.657660062 252.503484523 362.561467482 272.176914536 335.464101615 c 0
 289.657225611 311.387446738 312.250167494 302.757463662 336.009236185 302.757463662 c 0
 366.896199193 302.757463662 399.753938674 317.342299111 425.911839051 331.535452193 c 0
 461.256752487 351.941847479 461.256752487 351.941847479 462.176914536 352.464101615 c 1
 466.176914536 345.535898385 l 2
 465.320088586 345.041209692 483.289964195 355.213799764 380.582062026 295.915364799 c 0
 352.916664356 279.942740007 313.927118369 259.829260432 277.655407113 259.829260432 c 0
EndSplineSet
Validated: 524321
EndChar

StartChar: gargU
Encoding: 58821 58821 95
Width: 481
GlyphClass: 2
Flags: HMW
HStem: -21.4641 42.9282 302.801 20G
VStem: 28.8231 66.3538 380.823 66.3538
AnchorPoint: "dot-over" 239 300 basechar 0
LayerCount: 2
Back
SplineSet
61 131 m 17
 61 216 61 267 45 290 c 1
 61 300 l 1
 61 51 l 3
 61 12.947265625 171 0 252 0 c 3
 326.02734375 0 401 26 413 38 c 1025
413 131 m 21
 413 216 413 267 397 290 c 5
 413 300 l 21
 413 38 l 7
 413 -21.4296875 427.969726562 -34 439 -34 c 7
 446.81640625 -34 452.612304688 -32.169921875 458 -29 c 1028
EndSplineSet
Fore
SplineSet
446.176914536 52.5358983849 m 2
 446.176915352 23.7792488963 449.681879342 5.9941032782 454.549522416 -4.70426170075 c 0
 458.939708397 -10.6105124965 463.860013093 -12.5358983849 468.176914536 -12.5358983849 c 0
 477.622624878 -12.5358983849 483.244467842 -9.80629754262 487.176914536 -7.53589838486 c 1
 491.177636172 -14.4653515257 l 1
 428.520836392 -50.6402717453 l 2
 423.218233259 -53.7017310916 417.493536793 -55.4641016151 409.823085464 -55.4641016151 c 0
 400.473464354 -55.4641016151 396.657484383 -48.8546304255 390.102953077 -37.5018491822 c 0
 384.899835223 -28.4897847028 380.799180692 -12.8178526502 379.974644426 13.4555558359 c 1
 377.469392586 12.0091480117 l 2
 354.958904903 -0.987288111712 288.518745419 -21.4641016151 222.823085464 -21.4641016151 c 0
 149.384089227 -21.4641016151 52.1064557582 -10.8211647744 34.5854583679 19.5260929049 c 0
 28.6396839085 29.824476359 27.8230854638 31.2388663546 27.8230854638 36.4641016151 c 2
 27.8230854638 116.464101615 l 2
 27.8230854638 194.193050077 27.8230854638 243.490048285 15.5878710917 268.943301628 c 1
 11.8230854638 275.464101615 l 1
 27.8230854638 285.464101615 27.8230854638 285.464101615 90.1769145362 321.464101615 c 1
 94.1769145362 314.535898385 l 1
 94.1769145362 65.5358983849 l 2
 94.1769145362 63.2869299205 94.5611410271 61.1256543267 95.3008994632 59.0495614623 c 0
 117.885774786 31.3064464606 210.554058213 21.4641016151 281.176914536 21.4641016151 c 0
 316.082402676 21.4641016151 351.198064579 27.2447485804 379.823085464 34.6126584519 c 1
 379.823085464 116.464101615 l 2
 379.823085464 194.193050077 379.823085464 243.490048285 367.587871092 268.943301628 c 1
 363.823085464 275.464101615 l 1
 389.176209072 291.562254365 416.08121636 306.108523434 442.176914536 321.464101615 c 1
 446.176914536 314.535898385 l 1
 446.176914536 52.5358983849 l 2
EndSplineSet
Validated: 524289
EndChar

StartChar: gargS
Encoding: 58825 58825 99
Width: 481
GlyphClass: 2
Flags: HMW
HStem: -21.4641 42.9282 322.895 42.9282
VStem: 28.8231 66.3538 380.823 66.3538
AnchorPoint: "dot-over" 241 400 basechar 0
LayerCount: 2
Back
SplineSet
97 -162.589752197 m 0
 87 -150 63 -129.071337695 63 -101 c 3
 63 -27.9931510062 94.9977121748 11.1660311233 246.999997353 11.1660311233 c 3
 346.000139224 11.1660311233 381.366245749 -16.5289642018 413 -90.58984375 c 1025
458 -157.58984375 m 0
 452.612304688 -160.759765625 446.81640625 -162.58984375 439 -162.58984375 c 3
 427.969726562 -162.58984375 413 -150.01953125 413 -90.58984375 c 3
 413 -90.58984375 413 147.669960937 413 300 c 0
 413 377 362 335 49 341 c 1024
EndSplineSet
Fore
SplineSet
320.279389046 325.662211602 m 0
 275.916695259 325.662211602 202.466755509 318.924017377 82.9025161412 318.924017377 c 0
 63.1590174157 318.924017377 42.1580961585 319.107751215 19.8230854638 319.535898385 c 1
 15.8230854638 326.464101615 l 1
 78.1769145362 362.464101615 l 1
 100.511925231 362.035954445 121.512846488 361.852220607 141.256345214 361.852220607 c 0
 215.560108872 361.852220607 272.054253446 364.454551631 314.825434409 366.424751763 c 0
 340.878542664 367.624855108 361.839930884 368.590414836 378.633218228 368.590414836 c 0
 411.988318158 368.590414836 428.900031194 364.781228676 436.605589652 351.434809927 c 0
 443.534488592 339.433604922 446.176914536 334.856788932 446.176914536 314.535898385 c 2
 446.176914536 -76.0539453651 l 2
 446.176915352 -104.810594854 449.681879342 -122.595740472 454.549522416 -133.294105451 c 0
 458.939708397 -139.200356246 463.860013093 -141.125742135 468.176914536 -141.125742135 c 0
 477.622624878 -141.125742135 483.244467842 -138.396141293 487.176914536 -136.125742135 c 1
 491.177636172 -143.055195276 l 1
 428.520836392 -179.230115495 l 2
 423.218233259 -182.291574842 417.493536793 -184.053945365 409.823085464 -184.053945365 c 0
 400.473464354 -184.053945365 396.657484383 -177.444474176 390.102953077 -166.091692932 c 0
 384.270337967 -155.989307222 379.823085464 -137.51808845 379.823085464 -105.125742135 c 1
 375.333017685 -94.613604956 370.767755308 -85.035588148 365.956002965 -76.3383003228 c 0
 337.330770053 -28.888675931 298.934489954 -10.2980704918 217.823082817 -10.2980704918 c 0
 173.552180825 -10.2980704918 139.460962976 -13.6198447827 113.375120136 -20.1321663663 c 1
 100.468644704 -37.5290147971 96.1769145362 -59.7266294657 96.1769145362 -86.4641016151 c 0
 96.1769145362 -95.9379761099 98.9105462525 -104.598289259 102.917058348 -112.399057538 c 0
 110.519310764 -124.285452866 120.981896413 -134.585251499 126.176914536 -141.125650582 c 1
 130.176914536 -148.053853812 l 1
 67.8230854638 -184.053853812 l 1
 66.037326055 -181.805626968 63.805115513 -179.291477562 61.3428514366 -176.518217761 c 0
 48.0347560492 -161.529246298 46.2869657913 -158.50198477 38.442072655 -144.914231278 c 0
 33.4358720059 -136.243237401 29.8230854638 -126.427171258 29.8230854638 -115.535898385 c 0
 29.8230854638 -76.0528816719 39.1817175406 -46.469568385 71.8195414734 -27.6261119517 c 2
 134.173370546 8.37388804833 l 2
 161.885157198 24.3732955317 206.379362963 32.6301327385 276.176911889 32.6301327385 c 0
 322.711433774 32.6301327385 355.186505282 26.5111366645 379.823085464 12.3341199462 c 1
 379.823085464 285.464101615 l 2
 379.823085464 296.507613429 378.774018834 305.103302756 376.053396081 311.743850766 c 0
 367.513861834 322.480395612 350.764211994 325.662211602 320.279389046 325.662211602 c 0
EndSplineSet
Validated: 524289
EndChar

StartChar: gargZ
Encoding: 58826 58826 100
Width: 481
GlyphClass: 2
Flags: HMW
HStem: -21.4641 42.9282 257.799 42.9282 332.492 42.9282
VStem: 28.8231 66.3538 380.823 66.3538
AnchorPoint: "dot-over" 241 400 basechar 0
LayerCount: 2
Back
SplineSet
97 -162.589752197 m 4
 87 -150 63 -129.071337695 63 -101 c 7
 63 -27.9931510062 94.9977121748 11.1660311233 246.999997353 11.1660311233 c 7
 346.000139224 11.1660311233 381.366245749 -16.5289642018 413 -90.58984375 c 1029
458 -157.58984375 m 4
 452.612304688 -160.759765625 446.81640625 -162.58984375 439 -162.58984375 c 7
 427.969726562 -162.58984375 413 -150.01953125 413 -90.58984375 c 7
 413 -90.58984375 413 147.669960937 413 300 c 4
 413 386 313.609435669 355.13937074 234 310 c 4
 137 255 -3 293 100 352 c 1037
EndSplineSet
Fore
SplineSet
332.051732498 333.018089005 m 0
 296.317110255 333.018089005 247.700918843 312.84807195 204.823085464 288.535898385 c 0
 171.784175832 269.802496016 133.756692427 261.8583346 102.041923403 261.8583346 c 0
 70.128798407 261.8583346 44.6075988597 269.902178256 36.9929892952 283.091068901 c 0
 31.1513637787 293.209061094 30.6651289175 294.051244578 30.6651289175 298.517148922 c 0
 30.6651289175 309.385674046 41.0936671407 322.61058836 66.219795712 337.117165454 c 2
 129.176319863 373.46513162 l 1
 133.176914536 366.535898385 l 1
 124.959491396 361.791566923 97.0189581752 345.490422029 97.0189581752 327.588945858 c 0
 97.0189581752 325.883166988 97.2758366239 324.235431306 97.7730895753 322.649893651 c 0
 107.515447303 311.47336009 131.298805902 304.786537807 160.395752312 304.786537807 c 0
 192.110521389 304.786537807 230.138004857 312.73069922 263.176914536 331.464101615 c 0
 306.054748196 355.77627534 354.670939964 375.946292499 390.405562644 375.946292499 c 0
 410.204395411 375.946292499 426.048928856 369.754633344 434.772300984 354.645309606 c 0
 441.74183731 342.573718584 446.176914536 334.891939493 446.176914536 314.535898385 c 2
 446.176914536 -76.0539453651 l 2
 446.176915352 -104.810594854 449.681879342 -122.595740472 454.549522416 -133.294105451 c 0
 458.939708397 -139.200356246 463.860013093 -141.125742135 468.176914536 -141.125742135 c 0
 477.622624878 -141.125742135 483.244467842 -138.396141293 487.176914536 -136.125742135 c 1
 491.177636172 -143.055195276 l 1
 428.520836392 -179.230115495 l 2
 423.218233259 -182.291574842 417.493536793 -184.053945365 409.823085464 -184.053945365 c 0
 400.473464354 -184.053945365 396.657484383 -177.444474176 390.102953077 -166.091692932 c 0
 384.270337967 -155.989307222 379.823085464 -137.51808845 379.823085464 -105.125742135 c 1
 375.333017685 -94.613604956 370.767755308 -85.035588148 365.956002965 -76.3383003228 c 0
 337.330770053 -28.888675931 298.934489954 -10.2980704918 217.823082817 -10.2980704918 c 0
 173.552180825 -10.2980704918 139.460962976 -13.6198447827 113.375120136 -20.1321663663 c 1
 100.468644704 -37.5290147971 96.1769145362 -59.7266294657 96.1769145362 -86.4641016151 c 0
 96.1769145362 -95.9379761099 98.9105462525 -104.598289259 102.917058348 -112.399057538 c 0
 110.519310764 -124.285452866 120.981896413 -134.585251499 126.176914536 -141.125650582 c 1
 130.176914536 -148.053853812 l 1
 67.8230854638 -184.053853812 l 1
 66.037326055 -181.805626968 63.805115513 -179.291477562 61.3428514366 -176.518217761 c 0
 48.0347560492 -161.529246298 46.2869657913 -158.50198477 38.442072655 -144.914231278 c 0
 33.4358720059 -136.243237401 29.8230854638 -126.427171258 29.8230854638 -115.535898385 c 0
 29.8230854638 -76.0528816719 39.1817175406 -46.469568385 71.8195414734 -27.6261119517 c 2
 134.173370546 8.37388804833 l 2
 161.885157198 24.3732955317 206.379362963 32.6301327385 276.176911889 32.6301327385 c 0
 322.711433774 32.6301327385 355.186505282 26.5111366645 379.823085464 12.3341199462 c 1
 379.823085464 285.464101615 l 2
 379.823085464 297.528898365 377.866999559 307.293781922 374.283856844 315.041980597 c 0
 365.237861233 327.741017244 350.329896207 333.018089005 332.051732498 333.018089005 c 0
EndSplineSet
Validated: 524289
EndChar

StartChar: gargE
Encoding: 58827 58827 101
Width: 481
GlyphClass: 2
Flags: HMW
HStem: -21.4641 42.9282 302.801 20G
VStem: 28.8231 66.3538 380.823 66.3538
AnchorPoint: "dot-over" 231 55 basechar 0
LayerCount: 2
Back
SplineSet
97 -162.589752197 m 0
 87 -150 63 -129.071337695 63 -101 c 3
 63 -27.9931510062 94.9977121748 11.1660311233 246.999997353 11.1660311233 c 3
 346.000139224 11.1660311233 381.366245749 -16.5289642018 413 -90.58984375 c 1025
413 131 m 21
 413 216 413 267 397 290 c 5
 413 300 l 5
 413 -90.58984375 l 7
 413 -150.01953125 427.969726562 -162.58984375 439 -162.58984375 c 7
 446.81640625 -162.58984375 452.612304688 -160.759765625 458 -157.58984375 c 1028
EndSplineSet
Fore
SplineSet
446.176914536 314.535898385 m 1
 446.176914536 -76.0539453651 l 2
 446.176915352 -104.810594854 449.681879342 -122.595740472 454.549522416 -133.294105451 c 0
 458.939708397 -139.200356246 463.860013093 -141.125742135 468.176914536 -141.125742135 c 0
 477.622624878 -141.125742135 483.244467842 -138.396141293 487.176914536 -136.125742135 c 1
 491.177636172 -143.055195276 l 1
 428.520836392 -179.230115495 l 2
 423.218233259 -182.291574842 417.493536793 -184.053945365 409.823085464 -184.053945365 c 0
 400.473464354 -184.053945365 396.657484383 -177.444474176 390.102953077 -166.091692932 c 0
 384.270337967 -155.989307222 379.823085464 -137.51808845 379.823085464 -105.125742135 c 1
 375.333017685 -94.613604956 370.767755308 -85.035588148 365.956002965 -76.3383003228 c 0
 337.330770053 -28.888675931 298.934489954 -10.2980704918 217.823082817 -10.2980704918 c 0
 173.552180825 -10.2980704918 139.460962976 -13.6198447827 113.375120136 -20.1321663663 c 1
 100.468644704 -37.5290147971 96.1769145362 -59.7266294657 96.1769145362 -86.4641016151 c 0
 96.1769145362 -95.9379761099 98.9105462525 -104.598289259 102.917058348 -112.399057538 c 0
 110.519310764 -124.285452866 120.981896413 -134.585251499 126.176914536 -141.125650582 c 1
 130.176914536 -148.053853812 l 1
 67.8230854638 -184.053853812 l 1
 66.037326055 -181.805626968 63.805115513 -179.291477562 61.3428514366 -176.518217761 c 0
 48.0347560492 -161.529246298 46.2869657913 -158.50198477 38.442072655 -144.914231278 c 0
 33.4358720059 -136.243237401 29.8230854638 -126.427171258 29.8230854638 -115.535898385 c 0
 29.8230854638 -76.0528816719 39.1817175406 -46.469568385 71.8195414734 -27.6261119517 c 2
 134.173370546 8.37388804833 l 2
 161.885157198 24.3732955317 206.379362963 32.6301327385 276.176911889 32.6301327385 c 0
 322.711433774 32.6301327385 355.186505282 26.5111366645 379.823085464 12.3341199462 c 1
 379.823085464 116.464101615 l 2
 379.823085464 194.193050077 379.823085464 243.490048285 367.587871092 268.943301628 c 1
 363.823085464 275.464101615 l 1
 389.176209072 291.562254365 416.08121636 306.108523434 442.176914536 321.464101615 c 1
 446.176914536 314.535898385 l 1
EndSplineSet
Validated: 524289
EndChar

StartChar: gargSH
Encoding: 58831 58831 105
Width: 481
GlyphClass: 2
Flags: HMW
HStem: -21.2397 42.4934 279.326 42.9282
VStem: 198.147 66.1039
AnchorPoint: "dot-over" 231 400 basechar 0
LayerCount: 2
Back
SplineSet
277 300 m 1
 314 300 368 299 389 287 c 1
 414 300 l 1
 408 300 231 300 231 300 c 1
 231 300 69 300 63 300 c 1
 88 313 l 1
 109 301 163 300 200 300 c 1025
277 0 m 1
 314 0 368 -1 389 -13 c 1
 414 0 l 1
 408 0 231 0 231 0 c 1
 231 0 69 0 63 0 c 1
 88 13 l 1
 109 1 163 0 200 0 c 1025
231 300 m 1
 231 -162.58984375 l 1027
EndSplineSet
Fore
SplineSet
229.176914536 321.464101615 m 0
 443.176914536 321.464101615 443.176914536 321.464101615 443.176914536 321.464101615 c 1
 447.176914536 314.535898385 l 1
 418.165566899 298.095969665 390.151576556 280.65868365 359.823085464 265.535898385 c 1
 341.754747317 275.86066304 299.257067149 278.042313688 264.176914536 278.450224244 c 1
 264.176914536 21.4641016151 l 1
 443.176914536 21.4641016151 l 1
 447.176914536 14.5358983849 l 1
 418.165566899 -1.90403033496 390.151576556 -19.34131635 359.823085464 -34.4641016151 c 1
 341.754747317 -24.1393369599 299.257067149 -21.9576863119 264.176914536 -21.5497757556 c 1
 264.176914536 -148.053945365 l 1
 201.823085464 -184.053945365 l 1
 197.823085464 -177.125742135 l 1
 197.823085464 -21.4641016151 l 1
 33.8230854638 -21.4641016151 l 1
 29.8230854638 -14.5358983849 l 1
 58.8344331014 1.90403033496 86.8484234439 19.34131635 117.176914536 34.4641016151 c 1
 132.729275009 25.577038488 166.381193842 22.7231614809 197.823085464 21.8405534797 c 1
 197.823085464 278.535898385 l 1
 33.8230854638 278.535898385 l 1
 29.8230854638 285.464101615 l 1
 58.8344331014 301.904030335 86.8484234439 319.34131635 117.176914536 334.464101615 c 1
 138.176914536 322.464101615 192.176914536 321.464101615 229.176914536 321.464101615 c 0
EndSplineSet
Validated: 524289
EndChar

StartChar: gargZH
Encoding: 58832 58832 106
Width: 481
GlyphClass: 2
Flags: HMW
HStem: -21.2383 42.492 257.928 42.9282 333.549 42.9282
VStem: 198.447 66.0471 380.825 66.3538
AnchorPoint: "dot-over" 229 400 basechar 0
LayerCount: 2
Back
SplineSet
110 358 m 1
 -2 293 96 230 231 308 c 0
 360.735369879 382.958213708 483 347 379 287 c 1024
277 0 m 1
 314 0 368 -1 389 -13 c 1
 414 0 l 1
 408 0 231 0 231 0 c 1
 231 0 69 0 63 0 c 1
 88 13 l 1
 109 1 163 0 200 0 c 1025
231 308 m 1
 231 -162.58984375 l 1027
EndSplineSet
Fore
SplineSet
86.366570692 250.38530851 m 0
 60.4588560051 250.38530851 42.0730440206 257.98018773 35.1151786468 270.03156407 c 0
 29.1212838652 280.413294367 28.0403711262 282.285490149 28.0403711262 288.494284537 c 0
 28.0403711262 304.002885093 42.6654627693 323.640481301 76.8230854638 343.464101615 c 2
 139.176914536 379.464101615 l 1
 143.176914536 372.535898385 l 1
 109.019292224 352.712278381 94.3942006361 333.074682224 94.3942006361 317.566081678 c 0
 94.3942006361 314.772523772 94.868736161 312.112938026 95.789125165 309.610369553 c 0
 104.031508088 299.518286667 121.303375993 293.313511676 144.720399405 293.313511676 c 0
 171.959871809 293.313511676 212.300237035 301.822510618 260.278186485 329.522592648 c 0
 312.243532407 359.524799105 363.001071114 371.734203877 398.489010627 371.734203877 c 0
 422.694242973 371.734203877 439.795775835 366.054163342 445.331644991 356.4657567 c 0
 451.261659886 346.194669611 451.261659886 346.080859868 451.261659886 342.350255632 c 0
 451.261659886 331.479287293 439.583970731 317.359355766 412.241919964 301.573415396 c 2
 412.241919964 301.573415396 349.888090891 265.573415396 349.823085464 265.535898385 c 2
 345.823085464 272.464101615 l 1
 353.15520515 276.69730289 384.907831003 295.132667638 384.907831003 313.278459046 c 0
 384.907831003 314.510983748 384.757720281 315.701744689 384.46330906 316.848434855 c 0
 377.192288191 324.419336748 361.406808634 328.806000603 340.135181315 328.806000603 c 0
 319.176232808 328.806000603 292.891236612 324.547351017 264.176914536 314.879875008 c 1
 264.176914536 21.4641016151 l 1
 443.176914536 21.4641016151 l 1
 447.176914536 14.5358983849 l 1
 418.165566899 -1.90403033496 390.151576556 -19.34131635 359.823085464 -34.4641016151 c 1
 341.754747317 -24.1393369599 299.257067149 -21.9576863119 264.176914536 -21.5497757556 c 1
 264.176914536 -148.053945365 l 1
 201.823085464 -184.053945365 l 1
 197.823085464 -177.125742135 l 1
 197.823085464 -21.4641016151 l 1
 33.8230854638 -21.4641016151 l 1
 29.8230854638 -14.5358983849 l 1
 58.8344331014 1.90403033496 86.8484234439 19.34131635 117.176914536 34.4641016151 c 1
 132.729275009 25.577038488 166.381193842 22.7231614809 197.823085464 21.8405534797 c 1
 197.823085464 284.259754965 l 1
 154.795710139 260.151390453 115.745018864 250.38530851 86.366570692 250.38530851 c 0
EndSplineSet
Validated: 524289
EndChar

StartChar: gargI
Encoding: 58833 58833 107
Width: 481
GlyphClass: 2
Flags: HMW
HStem: -21.2397 42.4934 302.784 20G
VStem: 198.147 66.1039
AnchorPoint: "dot-over" 231 350 basechar 0
LayerCount: 2
Back
SplineSet
277 0 m 5
 314 0 368 -1 389 -13 c 5
 414 0 l 5
 408 0 231 0 231 0 c 5
 231 0 69 0 63 0 c 5
 88 13 l 5
 109 1 163 0 200 0 c 1029
231 131 m 17
 231 216 231 267 215 290 c 1
 231 300 l 1
 231 -162.58984375 l 1027
EndSplineSet
Fore
SplineSet
264.176914536 21.4641016151 m 1
 443.176914536 21.4641016151 l 1
 447.176914536 14.5358983849 l 1
 418.165566899 -1.90403033496 390.151576556 -19.34131635 359.823085464 -34.4641016151 c 1
 341.754747317 -24.1393369599 299.257067149 -21.9576863119 264.176914536 -21.5497757556 c 1
 264.176914536 -148.053945365 l 1
 201.823085464 -184.053945365 l 1
 197.823085464 -177.125742135 l 1
 197.823085464 -21.4641016151 l 1
 33.8230854638 -21.4641016151 l 1
 29.8230854638 -14.5358983849 l 1
 58.8344331014 1.90403033496 86.8484234439 19.34131635 117.176914536 34.4641016151 c 1
 132.729275009 25.577038488 166.381193842 22.7231614809 197.823085464 21.8405534797 c 1
 197.823085464 116.464101615 l 2
 197.823085464 194.193050077 197.823085464 243.490048285 185.587871092 268.943301628 c 1
 181.823085464 275.464101615 l 1
 207.176209072 291.562254365 234.08121636 306.108523434 260.176914536 321.464101615 c 1
 264.176914536 314.535898385 l 1
 264.176914536 21.4641016151 l 1
EndSplineSet
Validated: 524289
EndChar

StartChar: gargHL
Encoding: 58837 58837 111
Width: 481
GlyphClass: 2
Flags: HMW
HStem: -22.1576 42.9282 310.907 42.9282 321.536 42.9282
VStem: 28.8231 66.3538 218.823 66.3538 380.823 66.3538
AnchorPoint: "dot-over" 241 400 basechar 0
LayerCount: 2
Back
SplineSet
497 346 m 0
 485 334 116 341 116 341 c 1
 96 341 62 325 62 300 c 5
 62 -162.58984375 l 1027
241.81768141 -43.848505213 m 1
 261.375556108 -10.5834060584 295.950595305 11.39453125 340 11.39453125 c 3
 382 11.39453125 409 -24.9912109375 409 -82 c 3
 409 -143.639648438 396 -173 310 -222.166992188 c 1033
62 -95 m 0
 69 -35 112.999999999 11.39453125 177 11.39453125 c 3
 218.991253288 11.39453125 246 -24.9788112461 246 -82 c 3
 246 -143.639648438 233 -173 147 -222.166992188 c 1033
EndSplineSet
Fore
SplineSet
212.823085464 -96.5358983849 m 0x9c
 212.823085464 -73.8370975298 208.543146007 -54.4102575521 200.741895084 -39.2473610278 c 0
 188.696823469 -20.6136256668 170.431550023 -10.0695703651 147.823085464 -10.0695703651 c 0
 139.593269872 -10.0695703651 131.69416651 -10.8367323093 124.161922964 -12.3013358748 c 1
 108.373246197 -30.5932182936 98.2377992066 -54.227947298 95.1769145362 -80.4641016151 c 1
 95.1769145362 -148.053945365 l 1
 32.8230854638 -184.053945365 l 1
 28.8230854638 -177.125742135 l 1
 28.8230854638 285.464101615 l 2
 28.8230854638 299.049941847 38.8639684455 309.97790129 51.2423650738 317.124571915 c 2
 113.596194146 353.124571915 l 2
 123.99591874 359.128855709 136.045586722 362.464101615 145.176914536 362.464101615 c 2
 145.176914536 362.464101615 252.165080217 360.434515816 352.796850813 360.434515816 c 0
 396.993360377 360.434515816 514.001314777 360.434515816 526.176914536 367.464101615 c 1
 530.176914536 360.535898385 l 2
 529.972614078 360.331597927 529.972614078 360.331597927 467.274977098 324.133100339 c 0
 458.253810346 318.924727286 378.569559941 317.506312586 294.443021741 317.506312586 c 0
 210.987003838 317.506312586 123.159229359 318.902206791 95.609666742 319.378707076 c 0
 95.325801744 317.805201136 95.1769145362 316.19025542 95.1769145362 314.535898385 c 2
 95.1769145362 -12.7283370527 l 1
 148.202750105 17.8861433868 l 2
 164.733860756 27.4303845713 184.285368649 32.8586328651 206.176914536 32.8586328651 c 0
 230.119451845 32.8586328651 249.191112313 21.0335039571 261.16261974 0.298244849822 c 0
 265.607933985 -7.40126527852 265.607933985 -7.40126527852 266.039927619 -8.18862433276 c 1
 311.202750105 17.8861433868 l 2
 327.733860756 27.4303845713 347.285368649 32.8586328651 369.176914536 32.8586328651 c 0
 393.122290642 32.8586328651 412.191977659 21.0315951204 424.162162082 0.298627523447 c 0
 432.255345982 -13.7191781863 442.176914536 -30.9038390132 442.176914536 -67.4641016151 c 0
 442.176914536 -128.437284338 429.456514287 -157.825422751 345.940958705 -206.043151247 c 0
 282.219825272 -242.832564788 282.219825272 -242.832564788 280.823085464 -243.631093803 c 1
 276.823085464 -236.702890572 l 1
 359.788818543 -188.802602245 375.823085464 -161.762113642 375.823085464 -96.5358983849 c 0
 375.823085464 -73.8391635979 371.543449375 -54.4112863197 363.741437892 -39.2469732383 c 0
 351.69766516 -20.615195693 333.434089113 -10.0695703651 310.823085464 -10.0695703651 c 0
 302.593269872 -10.0695703651 294.69416651 -10.8367323093 287.161922964 -12.3013358748 c 1
 282.628950948 -17.5529850376 278.561963191 -23.2450342026 274.994595946 -29.3126068282 c 1
 274.513876965 -29.5901500614 l 1
 277.564070759 -40.8288182407 279.176914536 -53.5299605638 279.176914536 -67.4641016151 c 0
 279.176914536 -128.437284338 266.456514287 -157.825422751 182.940958705 -206.043151247 c 0
 119.219825272 -242.832564788 119.219825272 -242.832564788 117.823085464 -243.631093803 c 1
 113.823085464 -236.702890572 l 1
 196.788818543 -188.802602245 212.823085464 -161.762113642 212.823085464 -96.5358983849 c 0x9c
EndSplineSet
Validated: 8912897
EndChar

StartChar: gargL
Encoding: 58838 58838 112
Width: 481
GlyphClass: 2
Flags: HMW
HStem: -22.1576 42.9282 257.683 42.9282 333.435 42.9282
VStem: 28.8231 66.3538 218.823 66.3538 380.823 66.3538
AnchorPoint: "dot-over" 241 400 basechar 0
LayerCount: 2
Back
SplineSet
433 331 m 0
 396 310 296 241 243 314 c 0
 198.187013762 375.723547082 61 360 61 300 c 6
 62 -162.58984375 l 1027
241.81768141 -43.848505213 m 1
 261.375556108 -10.5834060584 295.950595305 11.39453125 340 11.39453125 c 3
 382 11.39453125 409 -24.9912109375 409 -82 c 3
 409 -143.639648438 396 -173 310 -222.166992188 c 1033
62 -95 m 0
 69 -35 112.999999999 11.39453125 177 11.39453125 c 3
 218.991253288 11.39453125 246 -24.9788112461 246 -82 c 3
 246 -143.639648438 233 -173 147 -222.166992188 c 1033
EndSplineSet
Fore
SplineSet
212.823085464 -96.5358983849 m 0
 212.823085464 -73.8370975298 208.543146007 -54.4102575521 200.741895084 -39.2473610278 c 0
 188.696823469 -20.6136256668 170.431550023 -10.0695703651 147.823085464 -10.0695703651 c 0
 139.593269872 -10.0695703651 131.69416651 -10.8367323093 124.161922964 -12.3013358748 c 1
 97.0820780575 -43.6745374589 95.6736122913 -80.1773330326 95.030984849 -80.5483541593 c 2
 95.1769145362 -148.053945365 l 1
 32.8230854638 -184.053945365 l 1
 28.8230854638 -177.125742135 l 1
 27.8230854638 285.464101615 l 2
 27.8230854638 301.839379824 38.0416025698 314.916680484 53.8119301899 324.02168338 c 2
 116.165759262 360.02168338 l 2
 132.757854316 369.601133926 155.495427223 374.783520152 178.943572061 374.783520152 c 0
 214.868832744 374.783520152 252.462073772 362.618504932 272.176914536 335.464101615 c 0
 289.657225611 311.387446738 312.250167494 302.757463662 336.009236185 302.757463662 c 0
 366.896199193 302.757463662 399.753938674 317.342299111 425.911839051 331.535452193 c 0
 461.256752487 351.941847479 461.256752487 351.941847479 462.176914536 352.464101615 c 1
 466.176914536 345.535898385 l 2
 465.320088586 345.041209692 483.289964195 355.213799764 380.582062026 295.915364799 c 0
 352.916664356 279.942740007 313.927118369 259.829260432 277.655407113 259.829260432 c 0
 253.896338422 259.829260432 231.303396539 268.459243508 213.823085464 292.535898385 c 0
 194.108244699 319.690301702 156.515003671 331.855316922 120.589742988 331.855316922 c 0
 112.772951806 331.855316922 105.03512807 331.279386763 97.577621995 330.156620737 c 1
 95.3727595552 325.353663771 94.1769145362 320.13775771 94.1769145362 314.535898385 c 2
 94.8847401118 -12.8970240353 l 1
 148.202750105 17.8861433868 l 2
 164.733860756 27.4303845713 184.285368649 32.8586328651 206.176914536 32.8586328651 c 0
 230.119451845 32.8586328651 249.191112313 21.0335039571 261.16261974 0.298244849822 c 0
 265.607933985 -7.40126527852 265.607933985 -7.40126527852 266.039927619 -8.18862433276 c 1
 311.202750105 17.8861433868 l 2
 327.733860756 27.4303845713 347.285368649 32.8586328651 369.176914536 32.8586328651 c 0
 393.122290642 32.8586328651 412.191977659 21.0315951204 424.162162082 0.298627523447 c 0
 432.255345982 -13.7191781863 442.176914536 -30.9038390132 442.176914536 -67.4641016151 c 0
 442.176914536 -128.437284338 429.456514287 -157.825422751 345.940958705 -206.043151247 c 0
 282.219825272 -242.832564788 282.219825272 -242.832564788 280.823085464 -243.631093803 c 1
 276.823085464 -236.702890572 l 1
 359.788818543 -188.802602245 375.823085464 -161.762113642 375.823085464 -96.5358983849 c 0
 375.823085464 -73.8391635979 371.543449375 -54.4112863197 363.741437892 -39.2469732383 c 0
 351.69766516 -20.615195693 333.434089113 -10.0695703651 310.823085464 -10.0695703651 c 0
 302.593269872 -10.0695703651 294.69416651 -10.8367323093 287.161922964 -12.3013358748 c 1
 282.628950948 -17.5529850376 278.561963191 -23.2450342026 274.994595946 -29.3126068282 c 1
 274.513876965 -29.5901500614 l 1
 277.564070759 -40.8288182407 279.176914536 -53.5299605638 279.176914536 -67.4641016151 c 0
 279.176914536 -128.437284338 266.456514287 -157.825422751 182.940958705 -206.043151247 c 0
 119.219825272 -242.832564788 119.219825272 -242.832564788 117.823085464 -243.631093803 c 1
 113.823085464 -236.702890572 l 1
 196.788818543 -188.802602245 212.823085464 -161.762113642 212.823085464 -96.5358983849 c 0
EndSplineSet
Validated: 524321
EndChar

StartChar: gargO
Encoding: 58839 58839 113
Width: 481
GlyphClass: 2
Flags: HMW
HStem: -22.1576 42.9282
VStem: 28.8231 66.3538 218.823 66.3538 380.823 66.3538
AnchorPoint: "dot-over" 256 55 basechar 0
LayerCount: 2
Back
SplineSet
241.81768141 -43.848505213 m 5
 261.375556108 -10.5834060584 295.950595305 11.39453125 340 11.39453125 c 7
 382 11.39453125 409 -24.9912109375 409 -82 c 7
 409 -143.639648438 396 -173 310 -222.166992188 c 1037
62 -95 m 4
 69 -35 112.999999999 11.39453125 177 11.39453125 c 7
 218.991253288 11.39453125 246 -24.9788112461 246 -82 c 7
 246 -143.639648438 233 -173 147 -222.166992188 c 1037
62 131 m 21
 62 216 62 267 46 290 c 5
 62 300 l 5
 62 -162.58984375 l 1031
EndSplineSet
Fore
SplineSet
95.1769145362 -12.7283370527 m 1
 148.202750105 17.8861433868 l 2
 164.733860756 27.4303845713 184.285368649 32.8586328651 206.176914536 32.8586328651 c 0
 230.119451845 32.8586328651 249.191112313 21.0335039571 261.16261974 0.298244849822 c 0
 265.607933985 -7.40126527852 265.607933985 -7.40126527852 266.039927619 -8.18862433276 c 1
 311.202750105 17.8861433868 l 2
 327.733860756 27.4303845713 347.285368649 32.8586328651 369.176914536 32.8586328651 c 0
 393.122290642 32.8586328651 412.191977659 21.0315951204 424.162162082 0.298627523447 c 0
 432.255345982 -13.7191781863 442.176914536 -30.9038390132 442.176914536 -67.4641016151 c 0
 442.176914536 -128.437284338 429.456514287 -157.825422751 345.940958705 -206.043151247 c 0
 282.219825272 -242.832564788 282.219825272 -242.832564788 280.823085464 -243.631093803 c 1
 276.823085464 -236.702890572 l 1
 359.788818543 -188.802602245 375.823085464 -161.762113642 375.823085464 -96.5358983849 c 0
 375.823085464 -73.8391635979 371.543449375 -54.4112863197 363.741437892 -39.2469732383 c 0
 351.69766516 -20.615195693 333.434089113 -10.0695703651 310.823085464 -10.0695703651 c 0
 302.593269872 -10.0695703651 294.69416651 -10.8367323093 287.161922964 -12.3013358748 c 1
 282.628950948 -17.5529850376 278.561963191 -23.2450342026 274.994595946 -29.3126068282 c 1
 274.513876965 -29.5901500614 l 1
 277.564070759 -40.8288182407 279.176914536 -53.5299605638 279.176914536 -67.4641016151 c 0
 279.176914536 -128.437284338 266.456514287 -157.825422751 182.940958705 -206.043151247 c 0
 119.219825272 -242.832564788 119.219825272 -242.832564788 117.823085464 -243.631093803 c 1
 113.823085464 -236.702890572 l 1
 196.788818543 -188.802602245 212.823085464 -161.762113642 212.823085464 -96.5358983849 c 0
 212.823085464 -73.8370975298 208.543146007 -54.4102575521 200.741895084 -39.2473610278 c 0
 188.696823469 -20.6136256668 170.431550023 -10.0695703651 147.823085464 -10.0695703651 c 0
 139.593269872 -10.0695703651 131.69416651 -10.8367323093 124.161922964 -12.3013358748 c 1
 108.373246197 -30.5932182936 98.2377992066 -54.227947298 95.1769145362 -80.4641016151 c 1
 95.1769145362 -148.053945365 l 1
 32.8230854638 -184.053945365 l 1
 28.8230854638 -177.125742135 l 1
 28.8230854638 116.464101615 l 2
 28.8230854638 194.193050077 28.8230854638 243.490048285 16.5878710917 268.943301628 c 1
 12.8230854638 275.464101615 l 1
 28.8230854638 285.464101615 28.8230854638 285.464101615 91.1769145362 321.464101615 c 1
 95.1769145362 314.535898385 l 1
 95.1769145362 -12.7283370527 l 1
EndSplineSet
Validated: 524289
EndChar

StartChar: gargH
Encoding: 58843 58843 117
Width: 481
GlyphClass: 2
Flags: HMW
HStem: -22.1576 42.9282 310.907 42.9282 321.536 42.9282
VStem: 28.8231 66.3538 380.823 66.3538
AnchorPoint: "dot-over" 241 400 basechar 0
LayerCount: 2
Back
SplineSet
497 346 m 4
 485 334 116 341 116 341 c 5
 96 341 62 325 62 300 c 5
 62 -162.58984375 l 1027
62 -95 m 0
 69 -35 134.650278762 11.3942565918 261 11.3942565918 c 3
 378.029013064 11.3942565918 414 -24.991228745 414 -82 c 3
 414 -143.639780762 401 -173 315 -222.166992188 c 1033
EndSplineSet
Fore
SplineSet
231.823085464 -10.0698450233 m 0x98
 188.290313724 -10.0698450233 151.963119021 -15.5772660964 122.75769001 -25.251049475 c 1
 106.724631509 -41.221009965 97.5579205227 -60.055478874 95.1769145362 -80.4641016151 c 1
 95.1769145362 -148.053945365 l 1
 32.8230854638 -184.053945365 l 1
 28.8230854638 -177.125742135 l 1
 28.8230854638 285.464101615 l 2
 28.8230854638 299.049941847 38.8639684455 309.97790129 51.2423650738 317.124571915 c 2
 113.596194146 353.124571915 l 2
 123.99591874 359.128855709 136.045586722 362.464101615 145.176914536 362.464101615 c 2
 145.176914536 362.464101615 252.165080217 360.434515816 352.796850813 360.434515816 c 0
 396.993360377 360.434515816 514.001314777 360.434515816 526.176914536 367.464101615 c 1
 530.176914536 360.535898385 l 2
 529.972614078 360.331597927 529.972614078 360.331597927 467.274977098 324.133100339 c 0
 458.253810346 318.924727286 378.569559941 317.506312586 294.443021741 317.506312586 c 0
 210.987003838 317.506312586 123.159229359 318.902206791 95.609666742 319.378707076 c 0
 95.325801744 317.805201136 95.1769145362 316.19025542 95.1769145362 314.535898385 c 2
 95.1769145362 -27.1357481251 l 1
 145.917921853 2.15958610835 l 2
 178.999299739 21.2591285357 227.000241463 32.8583582069 290.176914536 32.8583582069 c 0
 372.727780148 32.8583582069 414.946418846 14.7539492905 432.657548783 -15.9226276201 c 0
 440.427447969 -29.3804877806 447.176914536 -41.0709067983 447.176914536 -67.4641016151 c 0
 447.176914536 -128.43741138 434.456515894 -157.825421869 350.94097453 -206.043142157 c 0
 287.21983341 -242.832560136 287.21983341 -242.832560136 285.823085464 -243.631093803 c 1
 281.823085464 -236.702890572 l 1
 364.788746686 -188.802643732 380.823085464 -161.762305418 380.823085464 -96.5358983849 c 0
 380.823085041 -81.2597417105 378.240246749 -67.4644063059 372.20707111 -55.4531657041 c 0
 353.369591841 -26.8419292822 311.2784042 -10.0698450233 231.823085464 -10.0698450233 c 0x98
EndSplineSet
Validated: 8912897
EndChar

StartChar: gargR
Encoding: 58844 58844 118
Width: 481
GlyphClass: 2
Flags: HMW
HStem: -22.1576 42.9282 257.683 42.9282 333.435 42.9282
VStem: 28.8231 66.3538 380.823 66.3538
AnchorPoint: "dot-over" 241 400 basechar 0
LayerCount: 2
Back
SplineSet
433 331 m 0
 396 310 295.999575221 240.999691601 243 314 c 0
 198.1875 375.723632812 62 360 62 300 c 2
 62 -162.58984375 l 1027
62 -95 m 0
 69 -35 134.650278762 11.3942565918 261 11.3942565918 c 3
 378.029013064 11.3942565918 414 -24.991228745 414 -82 c 3
 414 -143.639780762 401 -173 315 -222.166992188 c 1033
EndSplineSet
Fore
SplineSet
231.823085464 -10.0698450233 m 0
 188.290313724 -10.0698450233 151.963119021 -15.5772660964 122.75769001 -25.251049475 c 1
 106.724631509 -41.221009965 97.5579205227 -60.055478874 95.1769145362 -80.4641016151 c 1
 95.1769145362 -148.053945365 l 1
 32.8230854638 -184.053945365 l 1
 28.8230854638 -177.125742135 l 1
 28.8230854638 285.464101615 l 2
 28.8230854638 301.910933446 39.0559977236 315.03090943 54.8348357667 324.140825822 c 2
 117.188664839 360.140825822 l 2
 133.648848808 369.644117467 156.144256669 374.783555643 179.354140315 374.783555643 c 0
 215.062636706 374.783555643 252.462293159 362.618535109 272.176914536 335.464101615 c 0
 289.65708624 311.387344019 312.249981592 302.757326607 336.00905038 302.757326607 c 0
 366.895916997 302.757326607 399.753626571 317.342128934 425.911543276 331.535281372 c 0
 461.256758097 351.941850663 461.256758097 351.941850663 462.176914536 352.464101615 c 1
 466.176914536 345.535898385 l 2
 465.320086895 345.041208716 483.289878553 355.213745933 380.581894907 295.915263927 c 0
 352.91645284 279.942613502 313.926870066 259.829123377 277.655221307 259.829123377 c 0
 253.89615252 259.829123377 231.303257168 268.459140789 213.823085464 292.535898385 c 0
 194.108464087 319.690331878 156.708807633 331.855352413 121.000311242 331.855352413 c 0
 113.388868744 331.855352413 105.854264153 331.302634345 98.5841501278 330.224551607 c 1
 96.375271018 325.402855366 95.1769145362 320.164177689 95.1769145362 314.535898385 c 2
 95.1769145362 -27.1357481251 l 1
 145.917921853 2.15958610835 l 2
 178.999299739 21.2591285357 227.000241463 32.8583582069 290.176914536 32.8583582069 c 0
 372.727780148 32.8583582069 414.946418846 14.7539492905 432.657548783 -15.9226276201 c 0
 440.427447969 -29.3804877806 447.176914536 -41.0709067983 447.176914536 -67.4641016151 c 0
 447.176914536 -128.43741138 434.456515894 -157.825421869 350.94097453 -206.043142157 c 0
 287.21983341 -242.832560136 287.21983341 -242.832560136 285.823085464 -243.631093803 c 1
 281.823085464 -236.702890572 l 1
 364.788746686 -188.802643732 380.823085464 -161.762305418 380.823085464 -96.5358983849 c 0
 380.823085041 -81.2597417105 378.240246749 -67.4644063059 372.20707111 -55.4531657041 c 0
 353.369591841 -26.8419292822 311.2784042 -10.0698450233 231.823085464 -10.0698450233 c 0
EndSplineSet
Validated: 524321
EndChar

StartChar: gargA
Encoding: 58845 58845 119
Width: 481
GlyphClass: 2
Flags: HMW
HStem: -22.1576 42.9282
VStem: 28.8231 66.3538 380.823 66.3538
AnchorPoint: "dot-over" 256 55 basechar 0
LayerCount: 2
Back
SplineSet
62 -95 m 4
 69 -35 134.650278762 11.3942565918 261 11.3942565918 c 7
 378.029013064 11.3942565918 414 -24.991228745 414 -82 c 7
 414 -143.639780762 401 -173 315 -222.166992188 c 1037
62 131 m 21
 62 216 62 267 46 290 c 5
 62 300 l 5
 62 -162.58984375 l 1031
EndSplineSet
Fore
SplineSet
95.1769145362 314.535898385 m 1
 95.1769145362 -27.1357481251 l 1
 145.917921853 2.15958610835 l 2
 178.999299739 21.2591285357 227.000241463 32.8583582069 290.176914536 32.8583582069 c 0
 372.727780148 32.8583582069 414.946418846 14.7539492905 432.657548783 -15.9226276201 c 0
 440.427447969 -29.3804877806 447.176914536 -41.0709067983 447.176914536 -67.4641016151 c 0
 447.176914536 -128.43741138 434.456515894 -157.825421869 350.94097453 -206.043142157 c 0
 287.21983341 -242.832560136 287.21983341 -242.832560136 285.823085464 -243.631093803 c 1
 281.823085464 -236.702890572 l 1
 364.788746686 -188.802643732 380.823085464 -161.762305418 380.823085464 -96.5358983849 c 0
 380.823085041 -81.2597417105 378.240246749 -67.4644063059 372.20707111 -55.4531657041 c 0
 353.369591841 -26.8419292822 311.2784042 -10.0698450233 231.823085464 -10.0698450233 c 0
 188.290313724 -10.0698450233 151.963119021 -15.5772660964 122.75769001 -25.251049475 c 1
 106.724631509 -41.221009965 97.5579205227 -60.055478874 95.1769145362 -80.4641016151 c 1
 95.1769145362 -148.053945365 l 1
 32.8230854638 -184.053945365 l 1
 28.8230854638 -177.125742135 l 1
 28.8230854638 116.464101615 l 2
 28.8230854638 194.193050077 28.8230854638 243.490048285 16.5878710917 268.943301628 c 1
 12.8230854638 275.464101615 l 1
 28.8230854638 285.464101615 28.8230854638 285.464101615 91.1769145362 321.464101615 c 1
 95.1769145362 314.535898385 l 1
EndSplineSet
Validated: 524289
EndChar

StartChar: gargComma
Encoding: 58846 58846 120
Width: 301
GlyphClass: 2
Flags: HMW
HStem: -21.4641 42.9282
VStem: 28.8231 237.354
LayerCount: 2
Back
SplineSet
157.875 0 m 1
 148.625 0 95 0 86 13 c 1
 61 0 l 1
 67 0 235 0 235 0 c 1
 210 -13 l 1
 199 0 147.375 0 138.125 0 c 1025
EndSplineSet
Fore
SplineSet
108.948085464 -21.4641016151 m 2
 31.8230854638 -21.4641016151 l 1
 27.8230854638 -14.5358983849 l 1
 56.8344331014 1.90403033496 84.8484234439 19.34131635 115.176914536 34.4641016151 c 1
 124.176914536 21.4641016151 177.801914536 21.4641016151 187.051914536 21.4641016151 c 2
 264.176914536 21.4641016151 l 1
 268.176914536 14.5358983849 l 1
 239.165566899 -1.90403033496 211.151576556 -19.34131635 180.823085464 -34.4641016151 c 1
 169.823085464 -21.4641016151 118.198085464 -21.4641016151 108.948085464 -21.4641016151 c 2
EndSplineSet
Validated: 524289
EndChar

StartChar: gargFullStop
Encoding: 58847 58847 121
Width: 301
GlyphClass: 2
Flags: HMW
HStem: -21.4641 42.9282 52.5359 42.9282 121.536 42.9282
VStem: 29.2057 66.0176 114.823 66.3538 199.823 66.3538
LayerCount: 2
Back
SplineSet
61 142 m 5
 235 142 l 1
 235 0 l 1
 61 0 l 5
 61 142 l 5
EndSplineSet
Fore
SplineSet
90.1769145362 163.464101615 m 1
 264.176914536 163.464101615 l 1
 268.176914536 156.535898385 l 1
 268.176914536 14.5358983849 l 1
 205.823085464 -21.4641016151 l 1
 31.8230854638 -21.4641016151 l 1
 27.8230854638 -14.5358983849 l 1
 27.8230854638 127.464101615 l 1
 90.1769145362 163.464101615 l 1
94.1769145362 64 m 1
 94.1769145362 21.4641016151 l 1
 138 21.4641016151 l 1
 138 64 l 1
 94.1769145362 64 l 1
201.823085464 64 m 1
 156 64 l 1
 156 21.4641016151 l 1
 201.823085464 21.4641016151 l 1
 201.823085464 64 l 1
94.1769145362 82 m 1
 138 82 l 1
 138 120.535898385 l 1
 94.1769145362 120.535898385 l 1
 94.1769145362 82 l 1
201.823085464 82 m 1
 201.823085464 120.535898385 l 1
 156 120.535898385 l 1
 156 82 l 1
 201.823085464 82 l 1
EndSplineSet
Validated: 524289
EndChar

StartChar: ophSnake
Encoding: 58848 58848 122
Width: 317
GlyphClass: 2
Flags: HMW
HStem: -21.8066 42.9277<112.394 188.856> 521.848 42.9277<127.476 203.939>
VStem: 27 66.3535<416.85 469.984> 222.978 66.3535<72.9839 126.118>
LayerCount: 2
Fore
SplineSet
129.959960938 521.84765625 m 0
 124.991210938 521.84765625 120.006835938 521.473632812 115.0546875 520.720703125 c 0
 100.875976562 503.01171875 93.353515625 481.069335938 93.353515625 458.899414062 c 0
 93.353515625 457.53125 93.51171875 429.870117188 106.159179688 411.30859375 c 0
 270.514648438 171.6875 270.514648438 171.6875 272.408203125 168.408203125 c 0
 280.270507812 154.790039062 289.331054688 139.095703125 289.331054688 113.139648438 c 0
 289.331054688 101.794921875 286.4375 54.3662109375 239.766601562 27.4208984375 c 2
 177.413085938 -8.5791015625 l 2
 161.970703125 -17.494140625 144.913085938 -21.806640625 128.018554688 -21.806640625 c 0
 96.7685546875 -21.806640625 66.080078125 -7.0517578125 47.22265625 20.62109375 c 0
 41.6025390625 29.150390625 35.43359375 37.130859375 30.4482421875 46.294921875 c 1
 92.8017578125 82.294921875 l 1
 105.576171875 63.548828125 l 2
 124.43359375 35.8759765625 155.122070312 21.12109375 186.372070312 21.12109375 c 0
 191.340820312 21.12109375 196.32421875 21.494140625 201.27734375 22.248046875 c 0
 215.455078125 39.95703125 222.977539062 61.8994140625 222.977539062 84.068359375 c 0
 222.977539062 85.4365234375 222.8203125 113.09765625 210.171875 131.659179688 c 0
 45.81640625 371.280273438 45.81640625 371.280273438 43.923828125 374.559570312 c 0
 36.060546875 388.177734375 27 403.872070312 27 429.828125 c 0
 27 441.17578125 29.8935546875 488.6015625 76.56640625 515.547851562 c 2
 138.919921875 551.547851562 l 2
 154.361328125 560.462890625 171.419921875 564.775390625 188.314453125 564.775390625 c 0
 219.563476562 564.775390625 250.251953125 550.020507812 269.109375 522.34765625 c 0
 274.729492188 513.817382812 280.897460938 505.836914062 285.8828125 496.672851562 c 1
 223.529296875 460.672851562 l 1
 210.755859375 479.419921875 l 2
 191.8984375 507.091796875 161.209960938 521.84765625 129.959960938 521.84765625 c 0
EndSplineSet
Validated: 524289
EndChar

StartChar: ophConSnake
Encoding: 58849 58849 123
Width: 317
GlyphClass: 2
Flags: HMW
HStem: -21.8066 42.9277<112.394 188.856> 521.848 42.9277<127.476 203.939>
VStem: 27 66.3535<416.85 469.984> 222.978 66.3535<72.9839 126.118>
LayerCount: 2
Fore
SplineSet
129.959960938 521.84765625 m 0
 124.991210938 521.84765625 120.006835938 521.473632812 115.0546875 520.720703125 c 0
 100.875976562 503.01171875 93.353515625 481.069335938 93.353515625 458.899414062 c 0
 93.353515625 457.53125 93.51171875 429.870117188 106.159179688 411.30859375 c 0
 270.514648438 171.6875 270.514648438 171.6875 272.408203125 168.408203125 c 0
 280.270507812 154.790039062 289.331054688 139.095703125 289.331054688 113.139648438 c 0
 289.331054688 101.794921875 286.4375 54.3662109375 239.766601562 27.4208984375 c 2
 177.413085938 -8.5791015625 l 2
 161.970703125 -17.494140625 144.913085938 -21.806640625 128.018554688 -21.806640625 c 0
 96.7685546875 -21.806640625 66.080078125 -7.0517578125 47.22265625 20.62109375 c 0
 41.6025390625 29.150390625 35.43359375 37.130859375 30.4482421875 46.294921875 c 1
 92.8017578125 82.294921875 l 1
 105.576171875 63.548828125 l 2
 124.43359375 35.8759765625 155.122070312 21.12109375 186.372070312 21.12109375 c 0
 191.340820312 21.12109375 196.32421875 21.494140625 201.27734375 22.248046875 c 0
 215.455078125 39.95703125 222.977539062 61.8994140625 222.977539062 84.068359375 c 0
 222.977539062 85.4365234375 222.8203125 113.09765625 210.171875 131.659179688 c 0
 45.81640625 371.280273438 45.81640625 371.280273438 43.923828125 374.559570312 c 0
 36.060546875 388.177734375 27 403.872070312 27 429.828125 c 0
 27 441.17578125 29.8935546875 488.6015625 76.56640625 515.547851562 c 2
 138.919921875 551.547851562 l 2
 154.361328125 560.462890625 171.419921875 564.775390625 188.314453125 564.775390625 c 0
 219.563476562 564.775390625 250.251953125 550.020507812 269.109375 522.34765625 c 0
 274.729492188 513.817382812 280.897460938 505.836914062 285.8828125 496.672851562 c 1
 223.529296875 460.672851562 l 1
 210.755859375 479.419921875 l 2
 191.8984375 507.091796875 161.209960938 521.84765625 129.959960938 521.84765625 c 0
EndSplineSet
Validated: 524289
EndChar

StartChar: ophRevSnake
Encoding: 58850 58850 124
Width: 317
GlyphClass: 2
Flags: HMW
HStem: -21.8066 42.9277<112.057 190.747> 521.848 42.9277<125.584 204.273>
VStem: 27 66.3535<70.8223 122.553> 222.978 66.3535<420.415 472.146>
LayerCount: 2
Fore
SplineSet
186.37109375 564.775390625 m 0
 222.17578125 564.775390625 254.650390625 545.461914062 272.05078125 515.322265625 c 0
 279.887695312 501.748046875 289.331054688 485.391601562 289.331054688 458.899414062 c 0
 289.331054688 440.072265625 283.90625 421.08203125 272.525390625 404.380859375 c 2
 110.159179688 167.659179688 l 2
 98.779296875 150.958007812 93.353515625 131.966796875 93.353515625 113.139648438 c 0
 93.353515625 97.1962890625 97.244140625 81.3701171875 104.704101562 67.1513671875 c 0
 110.981445312 57.2294921875 137.329101562 21.12109375 188.313476562 21.12109375 c 0
 193.1796875 21.12109375 198.033203125 21.4794921875 202.830078125 22.1875 c 0
 204.87890625 24.7958984375 204.87890625 24.7958984375 219.529296875 46.294921875 c 1
 281.8828125 82.294921875 l 1
 285.8828125 75.3671875 l 1
 273.95703125 57.0673828125 260.79296875 37.32421875 241.58984375 27.333984375 c 2
 179.236328125 -8.666015625 l 2
 164.239257812 -17.32421875 147.184570312 -21.806640625 129.958984375 -21.806640625 c 0
 94.154296875 -21.806640625 61.681640625 -2.4931640625 44.2802734375 27.646484375 c 0
 36.443359375 41.2197265625 27 57.576171875 27 84.068359375 c 0
 27 102.895507812 32.4248046875 121.885742188 43.8056640625 138.586914062 c 2
 206.171875 375.30859375 l 2
 217.552734375 392.009765625 222.977539062 411.000976562 222.977539062 429.828125 c 0
 222.977539062 445.771484375 219.086914062 461.59765625 211.627929688 475.81640625 c 0
 205.3515625 485.737304688 179.002929688 521.84765625 128.017578125 521.84765625 c 0
 123.150390625 521.84765625 118.297851562 521.489257812 113.500976562 520.780273438 c 0
 111.44921875 518.169921875 111.44921875 518.169921875 96.8017578125 496.672851562 c 1
 34.4482421875 460.672851562 l 1
 30.4482421875 467.600585938 l 1
 43.2216796875 486.34765625 l 2
 51.6845703125 498.766601562 62.5302734375 508.583984375 74.7412109375 515.633789062 c 2
 137.094726562 551.633789062 l 2
 152.091796875 560.291992188 169.146484375 564.775390625 186.37109375 564.775390625 c 0
EndSplineSet
Validated: 524289
EndChar

